<mxfile host="Electron" agent="Mozilla/5.0 (Windows NT 10.0; Win64; x64) AppleWebKit/537.36 (KHTML, like Gecko) draw.io/25.0.2 Chrome/128.0.6613.186 Electron/32.2.5 Safari/537.36" version="25.0.2">
  <diagram name="Pagina-1" id="pmmRAt18brjVKw2MHCiE">
    <mxGraphModel dx="3686" dy="2943" grid="1" gridSize="10" guides="1" tooltips="1" connect="1" arrows="1" fold="1" page="1" pageScale="1" pageWidth="827" pageHeight="1169" math="0" shadow="0">
      <root>
        <mxCell id="0" />
        <mxCell id="1" parent="0" />
        <mxCell id="O7SuQSuRmWpHJPatjK4z-4" value="" style="shape=image;verticalLabelPosition=bottom;labelBackgroundColor=default;verticalAlign=top;aspect=fixed;imageAspect=0;image=data:image/png,iVBORw0KGgoAAAANSUhEUgAABAMAAAVjCAIAAAAzX3GXAAAAKnRFWHRjb3B5bGVmdABHZW5lcmF0ZWQgYnkgaHR0cHM6Ly9wbGFudHVtbC5jb212zsofAAACsWlUWHRwbGFudHVtbAABAAAAeJytVdtO20AQfd+vGPGUSAFahFAbKRUKCRU0oYiQvG/sSTqqs+vuJQi+pv/SH+usL2CbGOglT453zuy5jHdPrZPG+U0iZOS0gb25Q+VwD6SFuUUjUl6miFKpHOzNyDrcyGx1dh+e6+sj6eRS2hw+GgoxGMBEr0nBYCBCO9j/VAD7cKG2JCEyGKN6IJkQdLg3JT1IpbV32sRdkdcG1GjYh7HFtSf44dHcQ8rdtmhoRZE0WO0jRsPqPjdkfeKk0xBjksgC3nFGb/nlodIKiufqfoFtFZtkMjrWRxFaqw9XMklow14xKsi8Nqi0kw+kFcKCLDnZLtpQ9I2QrYe0CuvE7F8PVtJGXKSNNMR/NxhTpJteLArpEJNNtaIlJeR+/QwaC0S7DTWEkImD0eMrFMC/+l4XilUQk2rQ9dmslAx7sIN+N2tXZ3Km1QrNpi6+sW1uf81Uud2i8uxZxImVOQhMLMIVv4lbJeS9zqu0QDUQqOIsxqmOc1trW78hyE0JrFtEcQ+U5+kqzMmfGxa9OVme3h0N/l/Q038Q8ULOpTevZ1xW/nXKV8+ptWY95g+Y1J9HjTkur2861Zom2nB4qofG2Ldl11IeMhxnSzviKwU95/RCOFU1rwdUVLfmg7u47ejzdOrKxzz4ptDe7Urg5tH7JKtpeHzLQoJuy1yy7vnBJFoUu7w8J1Jinh39BRtcrdA5HyKpKT5l1uHaFNcJX33z6SRcRqETvD84end0fPBxiU6edObqu9J3isGblIcPHF8aXdH5fD0Bq72JMIymM7T0jsFdcSl5fm+8CnV9+Jqiuhx9KV/AmEfRaBXuHXG5mD4VnBzvD8nBDA3TgMVUjHAlfRgWFfE3pdZ9mN+e738QE6nWXq65Nypxprmvuee1mfgN+JHGBMhxw7UAAIAASURBVHhe7N0JeBRV1vDxsEPYl0gIO4QQzACBBEEDKmEEFVBEgyiiICJgxpHBb3SQYVEgKvKioOwiOjAII2NEUVC2oEjADGETQgJhCXtYBZUtUN95c19qiuquoklC6K7+/55+eKpu3bp161a4Oae7qhOgAQAAAPA/AeYCAAAAAH6ATAAAAADwR2QCAAAAgD8iEwAAAAD80a3PBHbu3Dlx4vsJCW+PHfuW/Pvee5MyMnaaKwEAAAAoULcyEzh06NDIka9PnTp7+/b9WVmn1UuWJ0+eNXz4qIMHD5l3AAAAAFBAblkmsGnTpuHDX8/MzNZzAONLyl97bWRqaqp5NwAAAAAF4dZkAocOHRox4nXXBMD0kmTg4MGD5p0BAAAA5NutyQRGjrT8NMD4kjrDho0w7wwAAAAg325BJpCRkTFz5ieucb/b19Sps3fsSDc3AQAAACB/bkEmMHnyZOMjwvYvqfnee++bmwAAAACQP7cgE3jrrXGuEb/Na8yYt8xNAAAAAMifW5AJvPnm267hvs1r9Og3zU0AAAAAyJ9bkAnwmQAAAABwy92CTIDnBAAAAIBb7hZkAnx3EAAAAHDL3YJMQOPvCQAAAAC32q3JBPgbwwAAAMCtdWsyAbFp06bhwy0/GZBySQNSU1PNuwEAAAAoCLcsE9ByPxkYOfL1qVNnGx8gluXJk2cNHz7q4MFD5h0AAAAAFJBbmQkoO3funDjx/YSEt5966mn59733JmVk7DRXAgAAAFCgbn0moBs/fry5CAAAAMDNQSYAAAAA+CMyAQAAAMAfkQkAAAAA/ohMAAAAAPBHZAIAAACAPyITAAAAAPxRYWQCCxYsGO+B7t27m4vckdbMBwAAAABwgwojE/DQeD4TAAAAAAoLmQAAAADgj8gEAAAAAH9EJgAAAAD4IzIBAAAAwB+RCQAAAAD+iEwAAAAA8EdkAgAAAIA/IhMAAAAA/BGZAAAAAOCPyAQAAAAAf0QmAAAAAPgjMgEAAADAH5EJAAAAAP6ITAAAAADwR2QCAAAAgD8iEwAAAAD8EZkAAAAA4I+8JRP4/fffe/bsKf+aNwAAAAC4CbwiE7h8+fLw4cO3bdsm/8qyeTMAAACAguYVmcD48eMzMjJkQf7lHiEAuCVOnjw1ZszbI0eOHT58jANey5evMp8hACf67rtVrjOAI18jRsjMlmQ+//y59ZnAJ5988uOPP+qrsiwlhu0AgMIwduy4bduysrJOO+P18ccL5s2bbz5JAM7y2Wf/lv/srjOAU18ff/yvTz8tyJntFmcCS5cu/fe//20qlBIpNxUCAG6qESPGuv7W8enXG2+MMZ8kAGcZO/Yt1//7zn6NHj3WPAr5cCszgU2bNk2ZMsVcmkvKZau5FABw04wYMcb1V45PvxIS3jafJABn8cNM4M03C3Jmu2WZwP79+0ePHm0uNZCtUsdcCgC4OcgEAPgcMoF8ujWZwC+//PLaa69dvHjRvMFAtkodqWneAAC4CcgEAPgcMoF8ugWZgOchvicJAwCgQJAJAPA5ZAL5dAsygRu67ee6NxEBAAoEmQAAn0MmkE+FnQnk4VFgmweLAQAFhUwAgM8hE8inQs0E8vz1oG6/bBQAUIBsMoGdO4/Mn//le+9N//jjBcnJP+vlI0e++e6701zre8mLTABwPJtMYO3aLYsXr5LX0qVrZOLat++Ua518vv72t5GTJ3/kWn5TX76aCeTzT4aZ/gAZAKBgWWUCiYnfVa8eXLVqUHR0m3r1GhQtWnTo0FFq00MPPdq/f7zrLvrr6aef0ysX/otMAHA8m0zgsceeKF68eOXKVSpWrCQTV/nyFZ588pmNG3e61jS9PJ+4YmLuGTRosGv5TX35ZCaQkZExfvx4c+kNkhakHXMpAKAgWGUCDRqEdu7cbffuY2p13bptS5b84FrN7Ss2ttOzzw50LS+cF5kA4Hj2mUCbNjFqedeuo3Pnfh4WFl6rVp3Nm3e7Vja+PJ+4yAQ8kp2dPXz48MuXL5s33CBpQdqR1swbAAD55jYT2LnzSEBAwMSJM1w3yevvfx8zfvxktbxsWXK3bnEREc1atmzVo0evDRvSx479n+rVgyWR6Nq1u7xSUnaomh9/vEB+0UZENJUE45tvVqvCv/717++//+GYMeNl91at2syePX/fvlMjR74ZGRnVtu298+d/pR/03/9eKr/gpTwqqvXzz//p55/3uXZMvcgEAMfzMBNQL5mXAgMDX3jhL1nWM4nrxGVVM+v/MoGXRo16q0WLaNmqz4c27btOlfoubudG15fvZQKzZ8/+/fffzaV5Iu1Ia+ZSAEC+uc0E5FW7dl35ZbZo0fI9e06YNnXs+OAzz/TPyn2/rWrVoN69+0nI/vHH/3rppVdWr96wePGqpk0j5RfbtGmfyGv79gNSU35Tli1bdujQUZ9+uugvf/lb6dKlv/32x6zcX6g1aoTIL86PPpr/3HMvFC9e/PHHn3riiadlVZqVX94bN+5SBx0xIkEykH/+M/HDD+dFR7e54447XfusXmQCgOPdUCYgLwnuJdTOsp5JXCcuq5pZuRNXUFD1Bx98+B//WCjTWvHiJSZNmqk2ud3L7VSp6lvNja4v38sEAADezyoT+OKLZXXr1g8ICJBw/J57Oui/57IMmcD336dKhZ9+SjPta/qQfffu41WrVnv99bf1kri4Jx9++LGs3F+okm+own37TklW0Lr1XWpVMpBKlSp/8MEsU+Py2rQpU467atVPrpuyyAQAP3CjmUB8/JDKlauYCk0zic3dQaaaMnHVqVNv796TanXgwD83bBhms5fVVGkzN7q+yAQAAAXPKhPIyg3Nv/pq5ciRb8qvPfk1NmDAi6pczwTk11jjxk1q1aojvwjnzftCf6jA9At12bJk2f2pp579y1/+Nnjwqy+99Mrdd8c2aRKRlfsL1VgzKuoO49234eG3jxiRoJY3btwlv8vvuqudFIaFhRcpUuSTTz7TaxpfZAKA491oJiBzVLVqt2XZziSmicumpkxcTzzxtF7zn/9MlK0ZGUes9rKaKm3mRtcXmQAAoODZZALGV9++A4sXLyG/z7IMmYC80tIOvvnmu506dS5XrnydOvXWrNmU5fIL9csvV8hvO/kV+Le/jdRfY8f+T5bLg3fR0W3kN6K+evvtfxg2bLRabt68ZWxsx7lzP//uu7UrV66Xzsyc+U+9pvFFJgA43o1mAvfc0yEqqnWW7UximrhsasrEJVOiXjMx8VuZ4tQTyVZ7uZ0qbeZG15d3ZQJpaWl79+41lpw4cSIlJeXKlSvGQgCAl/MwE3j77UlFihSRX2ZZ12YC+ks2NWwYJr/SVIW+fQfom7Zs2VO0aNFp0/7h2qyHmcCGDeny+zIp6T+qXBZklUwA8Fs3lAl8/XVSsWLFRo58034mMU5c9jVl4pKX3v5bb71XvnyF6+6lXsap0mZudH15VybQunXrfv36GUvmzJkjZ3vu3DlZfuGFF9566y3j1jwokEYAAPbcZgKZmdmPPNIjMfG7nTv/9/PuFSvWhYWFt2zZSm3VM4Hk5K1z5vxb3Swrv9Lq1q2vvo27b9+BUVGtU1Mz5Hee+rM+3bv3rFOnnv4k3MqV6+fN+yLL40wgPf1w8eIlEhImyPL27fvvvjtW0hIyAcBv2WcCkZFR33+fKoH4558vffnl18qVK3/nnW137TpqP5MYJ64dOw7Z1JSJS1ILtbpu3TaZ+tSfWLFq32qqzLKeG11fvpQJdO7c+aWXXjJuzYMCaQQAYM9tJrB79/HY2I6lS5cuWrRomTJlZHpv16792rVb1FY9E/juu7XVqt1WokTJkJCaJUuW6tSps/wilPI1azZJTK92VM/Yya/VHj16FS9evFKlyoGBgfLvm2++m+VxJiCvN94YJwcKCqpetmzZ4cPHSiNkAoDfss8EAnJJsF6lStW77monobm6szHLdiYxTVw2NWXi6tmz9x/+0Fzal0lSDiFxv037VlNllvXc6PrymUxgypQpISEhYWFhj+c6ePCgqrB48WIJ7iMjI+Pi4jZs2KAKx4wZM2/evOnTp99555133333Rx99pMpvqBEAQJ65zQTUKzMzW341rlixTv8l5/a1fv12+T23Zcse102m1/btB6RmcvJW128m9eS1bVvWsmXJ9p3JIhMA/IBNJnDdl4cziSc1V6/eoO7492Qvm6nSk7nRZzKBlJSUqKgoidc/y3XmzBnZKiF+uXLl3nrrreXLl48cOVLyrc2bN0t5hw4dateu3bNnz0WLFiUkJEheJRWk/IYaAQDkmU0m4KMvMgHA8fKTCfjoy2cyAc3lxp5Lly4FBQVNmjRJL+nTp88TTzyh5WYCEvHrzxl36tQpPj5eLXveCAAgz8gEAPgcMoF8KtRMYOvWrQH/+x1JA0eOHDlixIjhw4d37NixWbNmWm4mYKw5aNCg7t27q2XPGwEA5BmZAACfQyaQT/nNBP74xz8+/vjjxpLJkyeXLFny8uXLmksQv379egni//rXv75pMGXKFC03E3j11Vf1mvHx8Q8//LBa9rwRAECekQkA8DlkAvmU30xgwIABERERxhIJ4sPDw9WyRPMvvviivunEiRNFixZduHChXqKzyQQ8bwQAkGdkAgB8DplAPuU3E0hJSSlSpMjbb799/vz5y5cvL126tFy5chMmTFBb//znP991111Hjhw5e/asegagd+/eDRo00B/w3b59+7JlyzTbTMDzRgAAeUYmAMDnkAnkU34zATF16tTKlSsXLVq0VKlSJUqUGDRo0MWLF9WmzMzMmJiYwMDAgICAtLQ0Kfn111/79u1bvHjxKlWqlC1bVv6dNm2aZpsJeN4IACDPnJcJSIhgPkkAzjJmDJlAvhRAJqDlfp+PxOhbtmyRGN28zZ0zZ85I5b179+bk5Ji3eaxAGgEAKJIJqD8D7IzXf/6TPmUKbxIBDjd58lT5z+46Azj1JSc7dep08yjkQ8FkAgAAX7diRdInn/zL9RePL77kl+WQIa9cuHDBfJIAnEX+mw8Z8lc/SQbkNF9++dWCndnIBAAA/2fhwoVvvTXOAa8pU6bq96kCcDb5zy7/5V3nAee9pk6dVuAzmxdlAj/++KO5CADgOMz2AHydY+YxL8oExo8fby4CADgOsz0AX+eYeYxMAABQqJjtAfg6x8xjZAIAgELFbA/A1zlmHiMTAAAUKmZ7AL7OMfOYF2UCjnn2AgBgg9kegK9zzDzmRZkAAAAAgEJDJgAAAAD4IzIBAAAAwB+RCQAAAAD+yIsyAcc8ewEAsMFsD8DXOWYe86JMwDHfxwQAsMFsD8DXOWYeIxMAABQqZnsAvs4x8xiZAACgUDHbA/B1jpnHyAQAAIWK2R6Ar3PMPOZFmYBjnr0AANhgtgfg6xwzj3lRJgAAAACg0JAJAAAAAP6ITAAAAADwR2QCAOClVq1aNdIHJSUlmc8EAOCVvCgTcMyzFwBQICSqDvBBo0aNMp/JtZjtAfg6x8xjXpQJOOb7mACgQKhMoG3btq/6iJiYGE8yAWZ7AL7OMfMYmQAAeCmVCUiEfdJHSFfJBAD4A8fMY2QCAOClyAQAwDs5Zh4jEwAAL0UmAADeyTHzmBdlAo559gIACoRTMwFmewC+zjHzmBdlAgAAI6tMYOLEia+99trcuXNN5XnWokWL2rVrz5kzx7zhBnmYCQAAvASZAAB4KatM4A9/+IOUx8XFmcrzTNKAUqVKzZw507zhBpEJAIBvIRMAAC+Vt0zg+PHjGzdu/Prrrzdv3nzixAm9fPfu3d988822bdukws+5jhw5ojalpaXJ6sGDB43LBw4cWLx4cWpqqt7CdZEJAIBvIRMAAC+Vh0xg1apVaqsSFRWVnJws5Z988klgYKCUFC1adNCgQWrrd999p/YKCgqS1WnTpunLvXv3rlKliqr2yiuvGA9hg0wAAHyLmucBAF7K80wgKyurWrVqsumee+557733oqOjZbl27doZGRkqrI+JiXnrrbduv/121bJNJlCyZMk//elPHTt2lOXixYtnZmZecyQLKhMAAHgncx4gmYB5IgcAeAcVWHueCXz88cdSXqRIkZ07d8rqTz/9pKb+YcOGqQVJCaT822+/Vas2mUB8fLwsb9u2TdVcsWLFfw9jzarDAABvYM4DyAQAwGtZBdZWmcC4ceOkvFy5cmr18OHDKo5/5pln5N9SpUqp8p9//lmV22QCkydPPpn7IYOq+c0336ia9qw6DADwBuY8gLuDAMDLuQbWVpnA3Llz1S7btm2T1e+//16tvvnmm2rhxx9/lPLZs2erVZtMQC3v379f1byhTAAA4J3MeYBXPTHsmL/WBgAFwv6J4fLly4deFR0dLeWHDh2qWbOmbGrevPnQoUPDwsJkWf49cuRIeHi4LFetWrVjx44VKlRQvxJuUiZw3SeGme0B+DrHzGNelAk45q+1AUCBsM8EjKpUqaI2paSk3HPPPaqwSJEiEvdv3rxZld95550lS5Zs1KjR+++/ryokJSWpvQo5E2C2B+DrHDOPeVEmAAAwssoEruvAgQMS+qu/D6Bs2LAhOztbLaubhUqVKpWVlaVXKBAeZgIAAC9BJgAAXirPmYCr+Pj4oKCgdu3aNWvWTL3NP3z4cHOlfCMTAADfQiYAAF6qADOBL7/88pFHHomOjo6JienVq9fSpUvNNQoCmQAA+BYyAQDwUgWYCRQOMgEA8C1elAk45tkLACgQTs0EmO0B+DrHzGNelAk45vuYAKBAODUTYLYH4OscM4+RCQCAl1KZQExMzKs+QrpKJgDAHzhmHiMTAAAvpTIBn0MmAMDxHDOPkQkAgJdKSkoa5YOk2+YzuRazPQBf55h5zIsyAcc8ewEAsMFsD8DXOWYe86JMAAAAAEChIRMAAAAA/BGZAAAAAOCPyAQAAAAAf+RFmYBjnr0AANhgtgfg6xwzj3lRJuCY72MCANhgtgfg6xwzj5EJAAAKFbM9AF/nmHmMTAAAUKiY7QH4OsfMY2QCAIBCxWwPwNc5Zh7zokzAMc9eAABsMNsD8HWOmce8KBMAAAAAUGjIBAAAAAB/RCYAAAAA+CPfyATmzZv33XffmUs90K1bt/nz55tLC0V2dnbdunVPnjxp3pBXnpyLXsemcmpqateuXc2lBcqTbvgo42V9+umnV6xYYa4BAADgI7woE7B59qJTp04vvfSSudQDCQkJP/zwg7m0UBw+fDggIODYsWPmDXnlybm0bt165syZmm3lDh06SGZlLi1Q+tH1/jiG8bIuXbo0MjLSXAPA9djM9gDgExwzj3lRJmDzfUx6JnD06NHffvvt9OnTq1ev3rdvn17h1KlTJ06c+O8Omnbw4MFz585lZ2dLfb1w7969SUlJ27Ztu3z5sqHuNWRTRkaGVNu/f78qUQeVQ6xatUoaVIU5OTkbNmxITk4+e/bsf3fO7YlU2717tykTcFvf7emcP39+/7WkRMt9N/q656JH3qbKuq1bt1auXFk1qNh07OTJk3KIAwcOqMK0tDSpZtxXs+iGfnRPMgF1rOPHj8u4SWvGTW4bF3KBVq5cmZqaevHiRatCOR198KV9/WpKU7KsGrxw4cLGjRs3bdpkbMft5XZ7Wa9cuVK7dm3pob4vAE/YzPYA4BMcM4/5WCbQvHnz/v37N2zYUELM0qVLf/DBB6rCrFmzwsLC9PoSOxYrVkyCNmMk2qdPn/r168fGxtarVy86OtqUOSjp6emRkZF169Zt3759cHDwF198oeUeVPYNCQlp2bLl559/LiU7duxo1KhReHh427Ztg4KClixZonaXoLBixYpRUVGNGzceMGCAHjJa1Xd7OmvWrIm4Sk5KGlm+fLl2bVRtdS56HasQfPjw4XFxcfqqTcf69u0rHWvVqlXJkiUTExNltVmzZjIy8q+eY+S5G0ZyrF69ekkL0ocyZcqMGzdOlbttXCL4Rx99VK7FfffdJ1eqY8eOVoWLFy+W3qqmXnnlFRnG7du3y/L3339ftWpV2SUlJaVOnTpydBlnOdMtW7aoyq6X2+qyiueff37QoEFqGYCHbGZ7APAJjpnHfC8TkFDvzJkzsrxw4cLy5curN3elJDAwMDk5WdWXyO/BBx/Uro1Eje8Kd+/efejQoWpVd+XKFQl8+/Xrp9rMyck5ffq0lntQiZX1MFeqtWnTRkJqtbpo0aLq1atLcCx7SbXRo0erOj179lQho1V91bLb09FJSBoTE6PehvfkXK4bgktgnZCQoJbtOybB96+//irLb7zxhgToEyZM0HI/rwgNDf3oo4/ULnnuhpEcSwJxdef96tWrS5QokZmZqVk0vnnz5rJly+qpyC+//GJVKKNavHjxXbt2ybIE8U2bNn3//fdleeTIkY899phc3CZNmsjPidpl4MCBEvfLgGgul9vqsqqt06dPl/pqGYCHbGZ7APAJjpnHfC8TmDhxoio8deqUxGT6vStPPfWUxHNabgQfEhLy2WefaddGohLGLV++XHaXqO6hhx6SNlW5TqJGafDQoUOmcjmo/ka12L17t1STmHXjVRUrVly3bl1aWpqU6/fYSFqiQkar+qplq9MR0k8Ju48fP65WPTmX64bgEtR++OGHatm+Y5MmTVLVkpKSihYtqt8UJOP86quvquU8d8NIjjVmzBh9VaJ29dmI28YlPShZsqQkMxkZGfoubgvFXXfdJZG65BiVKlWaO3fuww8/LIVt27adOnXqjh075Nz1m38k95DVrKwszeVyW11WtZqYmBgUFKRXBuAJm9keAHyCY+YxL8oEbJ69MGYCc+bMUYXnzp2TmGznzp1qVaJGCfgkYF2yZEmVKlUuXLigXRuJdu3atUWLFqNGjZIY98knn5RNqlwnMXHx4sVNhdq1B9Vyq0lk3Olaa9eulYi5XLlyerW9e/eqkNGqvqll0+l8+umnVatWTU9P1xv05FyuG4JHRERIcKyWPeyYxL5ly5bVW+jXr5/+9Haeu2Ekx9KTE9GlS5e///3vmnXj33777f333x8YGNigQYMFCxbYFA4fPrxHjx7//ve/pU0J+uXH4/Tp0yVKlFDPgRivtRr89evXay6X2+qyqtWFCxcGBwfrWwF4wma2BwCf4Jh5zIsyARudPMgErly5UqdOHYkCe/bsGR8frwr1SDQzM1OiXnUfjpYbI7pmAirIMz20qrmEhqqa8c17RXoi5fpdJRJnq5DRqr5mfTpr1qypUKGCtGCs7Mm5XDcEf+CBB15//XW17GHHrDKB/HTDSI6l36EkmjZtOm3aNJvGFcn0JEOQsF6v41ooQXy1atUGDhz43nvvabkHGjFiRO3atbWrn/8cPHhQ7aje+FerpsttdVnV6vvvv3/HHXfolQEAAHyIczIBMWzYsHbt2pUpUyYlJUWV6JHovn37pPLWrVu13NiuevXqrpmAuPfee7t37/77779ruTeaqzuFTKGhlnu3fVxcnLqNXjKQlStX5uTkyHLLli0HDx6s5YakEnPrIaNVfbenI0GqxK+mI2qenct1Q/CEhATjHxPwpGNWmcCNduObb75xfTZDyz1WzZo1VUKSmJhYunRpicitGpfsRf+cRNLxYsWKnT171m2hlnsVAgMDy5Urp9oZMmSILPfp00fLPdmoqKgBAwbIgpzy448/Lj85qgXXy211WUXv3r1ffvllY2UAAABf4ahMQL19GxERoZcYI1GJ2CRJaNKkSWhoqAR2bjOBrKys9u3bS7wYFhZWuXJl9efMXENDyRC6dOki1Ro3blypUqXIyEj1NZSpqakS1NaqVatGjRojRozQQ0ar+m5P59133y1SpEhFA/U9lZ6ci9sQ3GjPnj3SDf2ud086ZpUJaDfYDRmQVq1aqWUjOVZ8fHzdunWlEQncZ82apcrdNi6BvlwXGWG5yrIwdepUq0KlY8eOkkWo5a+//lpG+B//+Ida3b59e7NmzW677baqVatKVqCeLdbcXW6ryypjJfvKVmNlAAAAX+EbmUBByc7OTk9PV2972zh16tSOHTvcfh+/kcTTaWlppr8iLNGhhJjqS4dM3NbPMw/PxVVcXNzkyZONJfnpmOfd6NChg9u/N6wi7/Pnz8u4qa/90bltXFYln5FyyZ3sCz0hudDhw4fNpS7cXlY5ndjYWGMJ4M+OHDkyd+5cmT/NGwAA3sqLMgHHPHvh5TIzM5977jlz6c03fvx403ekKq7vwfuKIUOGbNy40VwK+LG1a9c2btx40KBB6vl7K8z2AHydY+YxL8oEHPN9TLghL7744qpVq8ylAHzTsmXLatasGRIScuedd86YMcPtRwTM9gB8nWPmMTIBAEBBkmRAPVfTvHnz+vXru35EwGwPwNc5Zh4jEwAAFDCVDATnatSo0e233278iIDZHoCvc8w85kWZgPqdAQBwqrCwsJUrVzrmNygAv+WYecyLMgHHPHsBAH7u+++/r1Onjor+a9Wq1ahRo1atWumfCTDbA/B1jpnHvCgTAAA4gJ4GhIaG1qtXr3///vZfJQQAuFXIBAAABUbSgJo1a9aoUcP4IQAAwDuRCQAACsbatWvDwsL4EAAAfAWZAACgAPA3hgHA53hRJuCYZy8AADaY7QH4OsfMY16UCTjm+5gAADaY7QH4OsfMY2QCAIBCxWwPwNc5Zh4jEwAAFCpmewC+zjHzGJkAAKBQMdsD8HWOmce8KBNwzLMXAAAbzPYAfJ1j5jEvygQAAAAAFBoyAQAAAMAfkQkAAAAA/ohMAADgFebNmzf6Wnv27DFXugm6des2f/58cymu0sfnt99+69evX3h4eMeOHY3lviU7O7tu3bonT540b8grT8ZBr+NJZaAweVEm4JhnLwAANqxm+06dOkVERPQz2L59u7nSTZCQkPDDDz+YS3GVPj6TJk2Kjo7evXv38ePHjeW+5fDhwwEBAceOHTNvyCtPxqF169YzZ87UPKsMn2A1j/kcL8oEHPN9TAAAG1azvWQCL730krk0V0ZGxsqVK1NTUy9evKgX5uTkbNiwITk5+ezZs4a62pkzZ9asWSMB6+XLl/fv3y//arnx3/nz5/UdpfzKlStqNTs7+7ffftN31506dWrVqlWmdjTbptx26ejRo9K+am3nzp0nTpzQN4mDBw+eO3fOWKJd3UUCbtll7969xk3XPYScjqH6/56FzRE9aU2Nj3Tm2Wef7dWrl5zvL7/8ormMm4yPXKakpCSpoBdK56Vk27Zt+uhpLu1rFt0wcW3ftR3Nuin9apoyAbf1VcunT59evXr1vn37VKFc9P3XUj8GpnFwe8p6JmD1wwafYzWP+RwyAQBAobKa7d1mAhJOPfrooyEhIffdd19kZKS6L0Xs2LGjUaNG4eHhbdu2DQoKWrJkiSqXaK9y5cqtWrWSTQMGDNBjvpo1ay5btkzVkRhOyiU0VKt6lGYkwVzFihWjoqIaN25sbEezbsqqS82bN+/Tp4+cQsuWLeUEGzZsqGcOmzdvLlGihMSdalUnu0jMXa9ePWmqTJky48aNU+WeHOLzzz//b0OaNmvWrLCwMH1VItRixYpJNKx53Joan8GDBwflkjGZMmWKdu24paeny9WpW7du+/btg4ODv/jiCymURurXrx8bGysnEh0drSckpvatumHktn3Xs7ZqyupqWtWXlvv37y9XSs6xdOnSH3zwgRRKehlxlQypNLJ8+XLt2nGwOmW9jtsfNvgiq3nM55AJAAAKldVsL5lA06ZNBxj8+uuvEiuXLVtWfxtVvRstkXSbNm2GDx+uChctWlS9enWpc+nSJYnD3nnnHVWnd+/eecsEJP2Q6HD06NFabjs9e/a8biZg1SUtN6yU1lRQeP78+WrVqum7v/DCCz169FDLRrKLhKHqXvbVq1dLtpCZmenhIUzOnDkTGBiYnJysVl955ZUHH3xQsx5DzaU1fXzi4+PloqhCY7k0JalXv3791LvgOTk5p0+f1nIHR9WU8u7duw8dOlStGtu36YbOqn1TP62asrqaVvVVy5J4yNDJ8sKFC8uXL298g1/LjfhjYmLUZwLGnx+rUyYTcB6recznkAkAAAqV1WwvmcCdd95pfGL4999/l9CqZMmSCQkJGRkZes3du3dLMCch8sarKlasuG7dup9//rlIkSKyl6qWkpKSt0wgLS1NKui3i0gYfd1MwKpLWm5Yqb+pL/7617/GxcVpuQ/gSp0VK1bom3Syy5gxY/TVqKioDz74wPNDmDz11FMDBw7UcmPokJCQzz77TLMeQ82ltetmArt27ZKmDh06pG9SJNRevnz5xIkT5VI+9NBDcn1VubF9m27orNo39dOqKauraVVftSzdVvXl4kq1AwcO6AeS0wkNDVUPS2jX/vxYnTKZgPNYzWM+x4syAcc8ewEAsGE127u9O0h8++23999/f2BgYIMGDRYsWKDlvk1etGjRTtdau3atlJcrV07fcc+ePXnLBJKSkozt7N2797qZgFWXtNywcs6cOXprmZmZpUqVOnr06EcffdSoUSP9TiEj2eXDDz/UV7t06fL3v//d80OYSGxaqVKl8+fPL1mypEqVKhcuXNCsx1Bzae26mYA0Vbx4cb1c17Vr1xYtWowaNWrSpElPPvmk1FflxvZtuqGzat/UT6umrK6mVX1Ty+fOnZP6O3fuVKuffvpp1apV09PT9QaNPz9Wp0wm4DxW85jP8aJMAADgzzpZZAKKxK8SXZUoUeLMmTMqmDO+Tauocv3NY0kh9Ag+LCzsyy+/VOUbNmywzwQk7JMK+m0nEjIaMwG3TVl1SXMJWIUkNm+//XabNm3UjUyuZBf9rhXRtGnTadOm3dAhjCTZqFOnjiRRPXv2lGheFXre2nUzAdWU6clmSXgkzlY32Ag5HbeZgE03dG7b11z6adWU1dW0qq9ZZwJr1qypUKGCtGCsrI+DzSmTCcBrkQkAALyCZAISaB4zOH/+vIRr+vuvP/74Y7FixdRtHrGxsXFxcb/++quWG+muXLkyJydHltu3b9+jRw8J+2THmJgYFfNJ+SOPPNK3b18tN6OQCgG2mYBo2bLl4MGDtdz6DzzwgN6OZt2UVZdcw/RFixZVq1atVKlSepsmskvNmjVVkJqYmFi6dOmDBw9qN3IIk2HDhrVr165MmTIpKSl6oYetXTcTEPfee2/37t3VfVkSCksytm/fPhmZrVu3armxePXq1d1mApp1N4xc29dc2tGsm7K6mlb13WYCu3btkqvmOs76ONicMpkAvBaZAADAK0gmEHCt2bNnS/RfuXLlWrVqRUREyMLUqVNVZYkFu3TpUq5cucaNG1eqVCkyMlJ9wejhw4c7d+4s5WFhYTNmzChSpIj6xszNmzfXqFEjJCQkODh47NixAdfLBFJTUyUWl+PKXiNGjAgwZAJWTVl1yTVglXBTWn7iiSeMhUayi4TddevWDQ0NDQwMnDVrlir3/BAm6n1xGUNjoYeteZIJZGVlSQ6mhl0u03fffSeFL7/8suQeTZo0kbOQQNwqE7DqhpHb9l3P2qopq6tpVd9tJvDuu+/Kj1NFg6SkJO3acbA6ZTIBX3HkyJG5c+fqk4M/IBMAAHg1iZv37NmTnp7u+r37Z8+eTUtLs/p7sQsWLKhdu7a+eunSpYyMDP3mjeuSoHD79u2nT592/VtUNk3Zd0mROq43mRipSPT8+fPSAfV1SUaeHMJzBdiaxE87duwwfvNPdna2XDjX9/hdedIN1/bdctuUfjWNhYrb+nnm+SnDO61du1Zyueeff379+vXmbU7kRZmAY569AADYuKmz/aJFi955552vvvpq4sSJQUFBkyZNMte4ca6ZQH4sW7asV69e+rvFbrm+2w2g0EgyULdu3Ro1akRHR0+fPt3tRwQ3dR4rTF6UCTjm+5gAADZu6my/ffv2wYMHP/roo88//7z+XG8+SRzQuXNn1/fm8+aRRx7p16/fnj17zBsMXnzxxVWrVplLARQWSQbCwsJq1qzZoEEDyQrk/6zpI4KbOo8VJjIBAEChYrYH4P1UMlC7du3g4GBJCUJDQ40fEThmHiMTAAAUqmAA8Fn169dfuXKlY6JWMgEAQKFitgfg/dauXRsREXHnnXeqBKBGjRqNGjV69dVX+UzgZnHMsxcAABvM9gC8nEoDmjdvLjlASEjIH//4R/XdtTrHzGNelAkAAAAAt5akAfXr1zd9COBUZAIAAADA/1J/T+Cxxx4zfQjgVGQCAAAAAH9jGAAAAIB/8KJMwDHPXgAAbDDbA/B1jpnHvCgTcMz3MQEAbDDbA/B1jpnHyAQAAIWK2R6Ar3PMPEYmAAAoVMz2AHydY+YxMgEAQKFitgfg6xwzj3lRJuCYZy8AADaY7QH4OsfMY16UCQAAAAAoNGQCAAAAgD8iEwAA+IB58+aNzjVhwoSvv/768uXL+qZu3brNnz/fUNdT+o6HDh06e/asebM7ntd0Kzs7u27duidPnjRvMDCeTp5P7ZZITU3t2rWrWs7nQHnoho4ye/bsjIwMc2kBuaGe5JmHR3n66adXrFhhLgXcIRMAAPiATp06NW/ePD4+vk+fPkFBQe3atbt06ZLalJCQ8MMPP1xb3SOtW7eeOXOmLERFRUmYaN7sjuc13Tp8+HBAQMCxY8fMGwz0XpmWvV+HDh0kYVPL+RwoD3l+lN9++61s2bL2I58fnvckPzw8ytKlSyMjI82lgDtelAk45tkLAICNvM32kgm89NJLajk9PV3i6eXLl6vV7OxsifP0mhkZGStXrkxNTb148aIqkfj7/PnzajknJ2f//v1XrlzRrsbZJ06caNas2YQJE6RcmtLb2bt3b1JS0rZt2/TPH9zWvHDhwsaNGzdt2qQfztWpU6dWrVq1e/duUyYgndmwYUNycrLxjV6rTMC1P670A0kd6aRe02oE1KprH44ePSpDqlrbuXOnnLi+SRw8ePDcuXPGErF169bKlSuro7gOlLFBVeI6brLV5kCup+96FM1ds8rnn38u2aNaVp05ffr06tWr9+3bZ6zmdneb+oprT1zPV3Np/Oadr1zc2rVry+56CQpc3uYxL+RFmYBjvo8JAGAjb7O9MRO4dOlSsWLF9Lef9XBZYqZHH300JCTkvvvui4yM7Nixo6pQs2bNZcuWqWWJoiQWlyBM3/G1114LDAysV69eVFRUnz59VDVZqF+/fmxsrJRHR0eriM21ZkpKSp06dZo3bx4REdGwYcMtW7ao3Y0kIKtYsaLs0rhx4wEDBuiZwI4dOxo1ahQeHt62bdugoKAlS5ao+m4zAbf9MbE6kGY9AlZ9kDOSI8pItmzZUoZdTk3PHDZv3lyiRAmJdNWqbvjw4XFxcWrZdaCMDUpQ7nbcZs2aFRYWpjcoQbBcZclhNIvTdz2K22aVZ555Rv/Bkwr9+/eXCjK8pUuX/uCDD1S51e5W9XWuPTGdr+au8Zt6vs8///ygQYP0VRS4vM1jXohMAABQqPI220smMHDgQIlfDxw48Oqrr5YtW1YW1CY9XJYgVcr1zwd++eUXtWAVB9vcHSTV1IJkF927dx86dKhaNdbMyclp0qTJK6+8olalexL26RGzIrtLnD169Ggt953anj17qgBdltu0aSPRs6q2aNGi6tWrq567zQSs+qOzOpDa6nYEbPogwaW0pgLQ8+fPV6tWTd/9hRde6NGjh1o2krA1ISFBXzUNqbFBq3E7c+aMRLrJycmqXCo8+OCDatnq9D28HLJJTkF/SEA6I4miHE6WFy5cWL58eWnWZne39VU1nc35ahZ9k5/Pm3S+Yvr06dIHtYybIW/zmBciEwAAFKq8zfaSCQRcVbJkSf3WIO3acFk2STxqejDUbRxs3NE1E5CISg4xceJEia0feughOboqN9bcsWOHNKXfp5GZmSmrWVlZalVJS0uTQv3GGwn7VIC+e/duWVi9evXGqypWrLhu3TrNIhOw6o/O6kBq1e0I2PRBgshx48ap+uKvf/2rer9f8gSp4/ZpVAl8P/zwQ33VNTLWG7QZt6eeekoiWi03zA0JCfnss89UHavT9/ByyDnefvvtqlzL7Yw0pZZlHKSaZJU2u7utr1Z1NuerWfftJp2vSExMDAoKUsu4GfI2j3khMgEAQKHK22yv3x0koc9jjz0mIZH+xLAxdP7222/vv//+wMDABg0aLFiwQBW6jYONO7pmAl27dm3RosWoUaMmTZr05JNPSk1VbqyZlJRUvHhxfZdz585Jy+vXr9dLtNw65cqV01f37t0bkBugS2xatGjRTtdau3atZpEJWPVHZ3Ugtep2BGz6IIHsnDlz9NYkyixVqtTRo0c/+uijRo0amT73UCIiIqZPn66vukbGeoM24ybhb6VKlc6fP79kyZIqVapcuHBB1bE6fQ8vx5AhQ4yfohg7o6rt3LnTZne39fWais35atZ9u0nnq+V+dhEcHKxvRYHL2zzmhbwoE3DMsxcAABt5m+07GZ4TOH36dNWqVfW40xg6KxJRSQhVokQJdUdHWFjYl19+qTZt2LDBNRNo1aqVxLj67hL4Sois9tVy74DXQzFjzV27dklTBw8eVKvqXXl9VZGQUQr1u0Qk+FYBuorUXd9a1txlAjb90VkdSK26HQGbPpgCWSH51dtvv92mTZt33nnHWK574IEHXn/9dX3VNKTGBm3GTXKMOnXqSArXs2fP+Ph4VcHm9D28HKGhoeqzDsVtZG+zu9v6alVnc76add9u0vmK999//4477lDLuBnyNo95IS/KBAAAsGLMBLTcbw6VEEq9h6qHzhLapqenqwrye7pYsWLqbplHHnmkb9++Wm6G0KNHDxUHG3d8+OGHhwwZot/8vW/fPqmzdetWLTfCrl69uh6KGWtKGBcVFTVgwABZyMnJefzxx/VvpzFq2bLl4MGDtdyjS7gccDVAj42NjYuL+/XXX7XcplauXCmNaO4yAZv+GFkdSLMeAas+uGYCixYtqlatWqlSpay+iFOuiP7HBDSXITU2aD9uw4YNk9UyZcqkpKSoEpvT9+Ry/Pzzz8HBwcbPMdxG9la7W9VXqzqb89Ws+6bdhPNVevfu/fLLL+urgBUyAQCAd5Egde7cuUeOHDEWmjIBCfElMJ02bZpmCJ0l+q9cuXKtWrUiIiJkYerUqary5s2ba9SoERISIhHh2LFjXTMB2TE8PLxkyZIxMTFqF4miJDhr0qRJaGiohNd6KGaquX379mbNmt12221Vq1aVsGzXrl2qmlFqamrNmjWlV9KHESNG6AH6oUOHunTpUq5cucaNG1eqVCkyMlJ9EaRrJqBZ98fI6kCa9QhY9cE1E5BYU1p+4oknjIVGe/bskXb0BxVMA2Vq0Gbc1IcbcgX1Es369D25HHK+/fv3N7ZmFdm73d2mvpH9+WrWjRf4+Qq5iFIiPw96g4AVMgEAgLdYv379Cy+8IAGQuls9DyRglZA0PT1d/1525dKlSxkZGfodF57Izs6WdtR75PYknlZf/mhFIjMJ2k6fPm3ekJvSpKWl2f/VYcWT/ugHcv0TZjYj4EkfpE6FChVWr15t3mAQFxc3efJkc6m1646bkSenr5ialTB68eLFhu3XcUO9ulGeN57n8xXz58+PjY01lgBWyAQAALfYqVOnZsyYcdddd4WEhNSpUyfPaQB0rplAfixbtqxXr15uP4gwyszMfO6558ylt9qGDRts/uibIw0ZMmTjxo3mUsAdL8oEHPPsBQDAhnG2Vx8CNGjQoGXLlpIG1K9fnzSgQEhy1blzZ/0vKuTTI4880q9fvz179pg3AP7KMVGrF2UCjvk+JgCADZnt9Q8B/vCHP4SHhwfnIg0A4CscE7WSCQAAClV8fHzDhg0l9FcPsAKAz3FM1EomAAAoVDLbZ2dn//nPf27QoIH+a7VNmzYRERF8JgDAJzgmaiUTAAAUKuNsn5iYePfdd9eoUUOSgWbNmpEMAPAJjolavSgTcMyzFwAAG66zvf4RgaQEPC0AwPu5zmM+yosyAQCAn0tMTOzatWt+/p4AAMBzZAIAAO/i9m8MAwAKHJkAAAAA4I/IBAAAAAB/5EWZgGOevQAA2GC2B+DrHDOPeVEm4JjvYwIA2GC2B+DrHDOPkQkAAAoVsz0AX+eYeYxMAABQqJjtAfg6x8xjZAIAgELFbA/A1zlmHvOiTMAxz14AAGww2wPwdY6Zx7woEwAAAABQaJyQCcybN290rgkTJnz99deXL1/WN3Xr1m3+/PmGuh4x7nXo0KGzZ89eu90ND6sZ5a1vSh72TU1N7dq1q7nUp8yePTsjI+O3337r169feHh4x44dzTUM9CEyjlUexu1GefiT8PTTT69YscJcCgAAUIickAl06tSpefPm8fHxffr0CQoKateu3aVLl9SmhISEH3744drq19e6deuZM2eq5aioKAlAr9nsjofVjIxHuVF5OK8OHTpIymQu9R2SAJQtW/bYsWOTJk2Kjo7evXv38ePHzZUM9OE1jnMexu1GefiTsHTp0sjISHMpAABAIXJIJvDSSy+p5fT09ICAgOXLl6vV7OxsiSDVckZGxsqVK1NTUy9evKhKDh8+fP78ebWck5Ozf//+K1euaIbY8cSJE82aNZswYYJskqZUzb179yYlJW3btk3/8MFttQsXLmzcuHHTpk364UxMmYBV/TNnzqxZs0YCXzmctK8Oajyvo0ePyvLp06dXr169b98+4766rVu3Vq5cWT9Z7UZGQ8hBpb6ctRSqEqtC2XHDhg3Jycmm98VdD2dVaDUOn3/+ueR4Ev0/++yzvXr1koP+8ssvapPrFdEsMgHXcTt58qTse+DAAVWYlpYmnTcOlNszshpzz38SZGxr164th9ZLAAAACpkXZQJ5fvbCmAlcunSpWLFi+pvfKgqUAPHRRx8NCQm57777IiMj9btKatasuWzZMrUsoZukEKdOndL3koXXXnstMDCwXr16UVFRffr0kRL5t379+rGxsVIYHR0tkZ/baikpKXXq1GnevHlERETDhg23bNmijmJkjFCt6q9atUoi+FatWoWHhw8YMEB6eOzYMdO+slf//v1lLyksXbr0Bx98oMqNhg8fHhcXp5ZvdDQkuZJqdevWbd++fXBw8BdffGFVuGPHjkaNGklX27ZtGxQUtGTJEqvDuS3UrMdBPPPMM+PHjx88eHBQLhnqKVOmaBZXRLPIBEzj1rdvXzmKDG/JkiUTExNlVeJ4OSn5VyUMbs9I7et2zG/oJ+H5558fNGiQvgr4jzzP9gDgJRwzj3lRJpDn72OSTGDgwIESth44cODVV18tW7as/havivw2b94shfqbwfp7yVaxrzFeNN3sob//LbFs9+7dhw4d6lotJyenSZMmr7zyilqVvrVs2VJ/f12nH8WqvmQ1EuO+8847Wu5byL1797bKBCSYPnPmjCwvXLiwfPnyxrfGFQmUExIS1PINjYYcVwLlfv36qTalq6dPn7YqbNOmjaQcqoVFixZVr15djuL2cG4LrcZBbapWrVpGRoYsx8fHS1Kk6mjWV8STTEAyh19//VWW33jjjTJlykyYMEGWz58/Hxoa+tFHH1mdkdrXasw9/0mYPn26tKOWAb+S59keALyEY+Yxh2QCAVeVLFlSvzVIuxr5SbAo5RIKq1BS5zb21fdS5aZMQMI4aX/ixImjR49+6KGH5NCu1Xbs2CFN6TeHZGZmympWVpZa1elHsar/888/FylS5Pfff1flKSkpVpmA9EctS/+ljp4I6cLDwz/88EO1fEOjsWvXLlk4dOiQsabbwt27d0vh6tWrN15VsWLFdevWuT2c20KrcZBlafb2229X5aZMwOqKeJIJTJo0SS0nJSUVLVpUvynoqaeekpTS6ozUvlZj7vlPQmJiYlBQkFoG/EqeZ3sA8BKOmccckgmou4Mk5HrsscckFNOfGNYjv2+//fb+++8PDAxs0KDBggUL1Fa3sa9xL80lE+jatWuLFi1GjRolQeSTTz4pNV2rSVhZvHhxfZdz585Jy+vXr9dLFP0oVvUlBi1XrpxevmfPHqtMYM6cOcZ9d+7cqe+lRERETJ8+XV/1fDSkD8a+KVaFEkx3utbatWs1i8O5FlqNgywPGTJEf7PflAlYXRFPMgF93JKTk8uWLauWRb9+/eQnyuaMbMbc85+EhQsXBgcH61sB/5Hn2R4AvIRj5jFHZQLi9OnTVatW1aNeY+Sn5T67KfFiiRIl1H0dYWFhX375pdq0YcMGt5lAq1atPvroI7WcmZkpoaHaV8u9+V6PO43V1FvmBw8eVKtpaWnGVZ1+FKv6e/fuDTC89S6hc54zgQceeOD11183FXoyGqoP8q9xR5tC148jdKbDuRZajYMsh4aGqjfjtWszAZsrkv9MwOaMbMbc85+E999//4477lDLgF/J82wPAF7CMfOYF2UCeX72wpgJaLnfFFmnTh0JMbWrkZ+EdOnp6WqrHKVYsWLqe2AeeeSRvn37arnxaI8ePVTsq++l6j/88MNDhgxRd4Hv27dP6mzdulWWJfKrXr26Hncaq125ciUqKkqiVVnIycl5/PHH27Vrp6oZ6Uexqd++fXvp2IkTJ+QUYmJiAvKaCciY6H9M4EZH49577+3evbu6SUlibpWZuC2MjY2Ni4tTd97LuaxcuVJOx+3h3BZajcPPP/8cHBys315vzARsrkj+MwHN4oxM+5rG3POfhN69e7/88sv6KuA/8jzbA4CXcMw85kWZwHVJYDp37twjR46Yyk2ZgMSU1apVmzZtmnY18pOrVbly5Vq1akVERMjC1KlTVc3NmzfXqFEjJCREAs2xY8e6zQRk3/Dw8JIlS0ogLqsSupUpU6ZJkyahoaGDBw/W405Tte3btzdr1uy2226rWrWqxIK7du1S1YyMR7Gqf/jw4c6dO5crVy4sLGzGjBlFihSRuNO0r01UqtuzZ480oiL+Gx2NrKwsSUhUH6T+d999Z1Uo+UCXLl2ksHHjxpUqVYqMjLx48aLbw7kt1CzGQTrTv39/VUFzuTvI6ooUSCbg9oxM+5rG3MOfBGlHSlJTU9UqAABA4fONTGD9+vUS/0m0p+7SzoOcnByJhtPT01Ukrbt06VJGRobxfpXrys7OlnbUe8P2JI6UUN5cas2+/oIFC2rXrm0u9VhcXNzkyZPVch5GQ7KCHTt26N/2Y1Mo+UZaWtrJkyf1EreHc1uomMZBwvfFixcbtpt5fkXyxvWMbpTrlZ0/f35sbKyxBAAAoJB5dSYggeaMGTPuvvvumjVrShCcmJhoruF0ixYteuedd7766quJEycGBQXp33WTB5mZmc8995y51Bds2LDB6q+z+a4hQ4Zs3LjRXAoAAFCIvDQTUB8CNGrUqEuXLlFRUTVq1Jg7d665kh/Yvn374MGDH3300eeff15/nBcAAADIPy/KBH788Uf9Q4DWrVt369ZNMoHg4GC/TQMAwJEc86QdAL/lmHnMizIB9SGAhP5RUVHBAACHcsy37wHwW46Zx7woE5AxPXHixP/7f/8vNDS0Ro0a6hdGvXr1GjdunOcHhQEA3sYxv0EB+C3HzGPelQnoy0uWLImNjVX5QO3atUkGAMAxHPMbFIDfcsw85qWZgKJ/RKA+HCAZAAAHcJ3tAcC3OGYe86JMwObZiyVLltx33318MgAADmAz2wOAT3DMPOZFmcB1Wf2NYQAAAAA3ypcyAQAAAAAFhUwAAAAA8EdkAgAAAIA/8qJMwDHPXgAAbDDbA/B1jpnHvCgTcMz3MQEAbDDbA/B1jpnHyAQAAIWK2R6Ar3PMPEYmAAAoVMz2AHydY+YxMgEAQKFitgfg6xwzj3lRJuCYZy8AADaY7QH4OsfMY16UCQAAAAAoNGQCAAAAgD8iEwDg11atWjUS/iEpKcl8+QHAv5EJAPBrEiAGwD+MGjXKfPkBwL95USbgmGcvAPgQlQm0bdv2VThXTEwMmQCAAuSYqNWLMgHHfB8TAB+iMgEJFk/CueT6kgkAKECOiVrJBAD4NTIBf0AmAKBgOSZqJRMA4NfIBPwBmQCAguWYqJVMAIBfIxPwB2QCAAqWY6JWL8oEHPPsBQAfQibgD8gEABQsx0StXpQJAEDhs8kEJk6c+NpVY8aM+eSTTw4ePGiudDOlp6dv2rQpMzPTvMFjLVq0qF279pw5c8wbCtr48eNllBYsWGAsTExMlMKxY8ee9Lgnxmr5P30dmQAAuEUmAMCv2WQCf/jDHwKuddttt61evdpc76bp2LGjHPS5554zb/CYRNWlSpWaOXOmeUNB69+/v3S1Xr16xsKmTZtK4eOPP37S454Yq+X/9HVkAgDgFpkAAL923Uygbdu2n3766bvvvlulShVZbd26tWxKS0v7+eefDx48mJWV9dVXX6Wnp6tdTpw4sWnTpi+//DIlJcXYlF7/wIEDixcvTk1NNW49fvz4xo0bv/76682bN0sLqlDavOeee+SITz75pOwrLUjhsWPHfvrpJ6n5xRdfGBs5fPjwz9favn37ScNx9Zpuj2Ws6baHVuelW7FihUqWli5dqkqSk5NVSWJi4kl3PZEOyIGWLFmydetWvVCvdkOnf11kAgDgFpkAAL923UwgLi5OrT733HOyWrZsWVkOCgoKyH27ulKlSrIwdepUKVy9enWzZs1U+CtiYmL0DEHV7927t0onxCuvvKI2rVq1yvjhQ1RUlMTQUh4eHq4XCtnxZO7NM8ZCOYSKrSVGN5aLChUq6MedNm2a/bH0mm57aHNeRo0bN5atzz77rFodPHiwrNasWVNyj5PX9iQ7O7tz5856g+Kpp55Se+nVbuj0r4tMAADcMk6qAOCnbDKBbt267dmzZ926dWFhYbIq8e7JqwGr6NChwzPPPPPZZ5/t379fFUpQu3DhQnVnyx//+EfVlNpUsmTJP/3pT2pT8eLFMzMzs7KyqlWrJqv33HPPe++9Fx0dLcu1a9c+cuTIW2+91aBBA1mV8Pfll18ePny4tPPnP//5gw8+SExMnD17dr169WTrsGHDpHzjxo0v5/rLX/5Svnx5KW/atKl+XBV/2xzLpof252UkcXZAbsh+9OjREydO1KpVS1aHDBmithp7snjxYllu2LChjNu8efPkFNTZGavd0Olfl8oEAMDPmfMAyQTM8yUA+BMVI9pkAiazZs06eTVg7dGjh175k08+CciNnj/88MOPP/5YhcVi586dev34+HhZ3rZtm9q0YsUKqSkLRYoUUdV++ukntUndUeN6o7zE5dOnTx86dKjE682bN5etnTt31rdK/N2rVy8prF+/vro7yBh/2x/Lqof252UkRyxWrJhs+uc///nVV1+panIUtdXYk6VLl8qyZCySt0yZMsV4x5Gx2o2evg2bqwwA/sOcB5AJAPBzNjGiygSqV68eGxsrEeegQYOSkpLUJhWwTpw4Ua88btw4Ffua/PDDD3r9yZMnn8x9b15t+uabb9Re5cqVU40cPnxYbZoxY8ZJl1A4IyNDvdFetWpViYNVmzExMf/Xg5Mn+/XrJyVSZ8uWLarEGFjbH8u+h67UeZnIQMmmhx9+uHfv3rIQHR2tbzL25GTurVYlSpTQW3v66addq93o6duwucoA4D/MeQB3BwFAgEWMaHpOwMgU14p//vOfUlKqVKmtW7fuvEoi8mPHjpnq79+/Xx1U4uy5c+eq5W3btsmm77//Xq0uXrxYVh988EFZ7tu3rzrE1KlTA3LjYAniZVU6FmAIhePj4wNy85b//Oc/quTktce1P5ZVD+3Py2TmzJmqcoUKFWThf/7nf/RNriMmZ7FixYrhw4erY+3du9dU7YZO3x53BwFAgNu7g8wFt45j/lobAB/i+RPDRm7j2jp16kjh3XffPXny5HHjxj3xxBO33367a31jnH3o0KGaNWvKcvPmzYcOHaoeRZB/VZw9cOBAWa1cuXKPHj1Gjx6tQvnixYuPGjVKKstCwNVQeNasWarN1q1bP5FLPblrPK79sax6aH9eJnII9ZRCQG4+sHv3bn2TsX1JANq3by9nNGPGjL/85S+qsvFxBVXN89O/Lp4YBlCwHBO1elEm4Ji/1gbAhxRUJiBSU1M7depUpEgRFQpXqFBBfz/bKs6W1ZSUFPV1mQG5N/F37Nhx8+bNai9ZaNOmjUTJsik2NlZC9q5du6qaEs0b3xR/++23VbnO7XcH2RzLpoc25+VK3RckHnroIWO5sf3k5OTg4GBVTVSrVk3vobGa56d/XWQCAAqWY6JWL8oEAKDw2WQCeXP48OGffvpp+/btbu+fsXLgwAEJ0z35TkxpecOGDebSG+H5sYzydl42MjIy1q1bt2XLluzsbPM2a3k7fTIBAHCLTACAXyvwTABeiEwAANwiEwDg18gE/AGZAAC4RSYAwK+RCfgDMgEAcMuLMgHHPHsBwIeQCfgDMgEABcsxUasXZQKO+T4mAD6ETMAfkAkAKFiOiVrJBAD4NZUJxMTEvArnkutLJgCgADkmaiUTAODXVCYAf0AmAKCgOCZqJRMA4NeSkpJGoXB17NjRXFQo5FqbLz8A5IljolYvygQc8+wFAMAGsz0AX+eYecyLMgEAAAAAhYZMAAAAAPBHZAIAAACAPyITAAAAAPyRF2UCjnn2AgBgg9kegK9zzDzmRZmAY76PCQBgg9kegK9zzDxGJgAAKFTM9gB8nWPmMTIBAEChYrYH4OscM4+RCQAAChWzPQBf55h5zIsyAcc8ewEAsMFsD8DXOWYe86JMAAAAAEChIRMAAAAA/BGZAAAAAOCPfCMTmDdv3nfffWcu9UC3bt3mz59vLvXYdXd/4IEHEhMTzaUe7Gjl0KFDZ8+eNZd6mfx0Ms8j47nU1NSuXbuaSzUtOzu7bt26J0+eNG8wyM+pid9++61fv37h4eEdO3Y0b8uTQhguG7f26Drjhctzl55++ukVK1aYSwEA8G9elAnYPHvRqVOnl156yVzqgYSEhB9++MFc6rHr7t68efM5c+aYSz3Y0UpUVNTs2bPNpV4mP53M88h4rkOHDpI6mks17fDhwwEBAceOHTNvMMjPqYlJkyZFR0fv3r37+PHj5m15UgjDZePWHl1nvHB57tLSpUsjIyPNpbhFbGZ7APAJjpnHvCgTsPk+Jj0TOHr06G+//Xb69OnVq1fv27dPr3Dq1KkTJ078dwdNO3jw4Llz57Kzs6W+Xrh3796kpKRt27ZdvnzZUPe/VPvS2qpVq7JzGXeXvTIyMqSF/fv3qxKVCbj2x7RjTk7Ohg0bkpOTTe83S2srV65MTU29ePGirMopNGvWbMKECdK+tKDqeNhnCT2lz1LZVK6fiyp02xOrURUXLlzYuHHjpk2bVA81jzt5/vz5/deSEu3akXFtXLPtjGbRf6OtW7dWrlxZHUtRIyDRuSkTcO2zh6dmRS7Bs88+26tXL9n9l19+UYVWu5suveL6A2YcLqumjGyG1PST4LY1+59/t7tYUU2dPHlSdjlw4IAqTEtLk2tnvDqa9TV1e+GMXXIdLsXtIFy5cqV27dpS2VARt4zNbA8APsEx85iPZQISeffv379hw4atW7cuXbr0Bx98oCrMmjUrLCxMry/BSrFixSSAkGozZ85UhX369Klfv35sbGy9evWio6NNmYMi7Uu1kJCQli1bfv7558bd09PTIyMj69at2759++Dg4C+++ELVd9sf4447duxo1KhReHh427Ztg4KClixZouUGMY8++qgc6L777pNm1c0kr732WmBgoHQvKipKuqF53GeJPqWCtF+mTJlx48bp5cZz0Sx6omq6PYuUlJQ6derI1oiICNm6ZcsWzeNOrlmzJuIquTQSyS1fvlwzjIzbxm06o1n332j48OFxcXH6qkR+FStWlK42btx4wIABekDpts8enpqVwYMHB+WS3adMmaJZ7O720msWP2D6cLltysRmSE0/CVat2fz8W+1iRZrq27evdKNVq1YlS5ZMTEyUVUm05ATlXz2at7qmVhdO75Lb4dKsB0E8//zzgwYN0ldxC9nM9gDgExwzj/leJiC//s+cOSPLCxcuLF++vHp7UkokhktOTlb1X3nllQcffFC7NiLX3ziUXbp37z506FC1aiTtS1CiRzn67leuXJGApl+/fupwOTk5p0+fVvXd9se4Y5s2bSQ8VQ0uWrSoevXqEgZt3ry5bNmyejykv4VsujvFwz5LxKPuol69enWJEiUyMzNVufFcrHqiarqehZxjkyZNZCRV/YEDB0p0KI1oN95JCSJjYmLUO8FqZGwad9sZzbb/RhKqJiQkqGXZUUZg9OjRWu7uPXv21ANKqz7f6KmZxMfHS9iqr7rd3e2lt/oB03+Q3DZlZD+kxp8Ezbo1q59/m12sSFOSMPz666+y/MYbb0iOOmHCBC33w6LQ0NCPPvpIs76mNhdOdclquGwGQUyfPl16pZZxa9nM9gDgExwzj/leJjBx4kRVeOrUKYkP9BsPnnrqKfnFr+VGAyEhIZ999pl2bSgjAcHy5ctld4kwHnroIWlTlRtJ+/p76pph9127dsmxDh069N+quaz6o++4e/duKZQAfeNVFStWXLduncRVJUuWlJg1IyPD2KApEvWwz2PGjNFXpQX1PrrpXKx6omq6nsWOHTtkQb+ZRLILWc3KytJusJNSKJGfft+8Ghmbxt12RrPtv5FEkB9++KFaTktLk130e04kUdQDSqs+39CpuTJlAm53d3vprX7AjCmla1NG9kNq/EnQrFuz+vm32cWKNDVp0iS1nJSUVLRoUf2mIPmv+uqrr2rW19TmwqkuWQ2XzSCIxMTEoKCg/9bGrWMz2wOAT3DMPOZFmYDNsxfGTEB/QvfcuXPya37nzp1qVcKUSpUqSbSxZMmSKlWqXLhwQbs2lOnatWuLFi1GjRolAcqTTz4pm1S5kbF9zbC7BCvFixf/b72rrPpj3FFioE7XWrt2rWz69ttv77///sDAwAYNGixYsEA1YopEPeyzHvuKLl26/P3vf1flxnOx6Ynbs5DozXjKqnz9+vXajXTy008/rVq1anp6ul6iRsamcbed0Wz7bxQRETF9+nS1LEcpV66cvmnv3r16QGnVZ89PzS1TJmC1u+ult/oB03+QrJrSeTikilVrVj//NrtYMTYloXzZsmX1Tf369VP/na2uqc2FU12yGi6bQdByP2IKDg7Wt+IWspntAcAnOGYe86JMwEYnDzKBK1eu1KlTR+Kqnj17SkCmCvVQJjMzU2IOdc+Jlns3udtQxioSUrGI8Xlcxao/ph31Dy5cScYioVWJEiVU31q1aqVunNBupM/6/RWiadOm06ZNU+XGc7HpiduzUG+7Hjx4UJWrt2nVqoedXLNmTYUKFSRoU6uKGhmbxt12RrPtv9EDDzzw+uuvq2XZUXbR73WRngTkBpQ2ffbw1KwYM4Hr7m689FY/YGq4rtuUdvVThesOqWbbMauff5tdrHiSCVhdU6sLp13tktVw2QyCeP/99++4447/1gYAwO85JxMQw4YNa9euXZkyZVJSUlSJHsrs27dPKm/dulXLjTOqV6/uNpSxioTEvffe2717999//13LfSxB3Zlg1R/jjrGxsXFxceqGaUlXVq5cmZOTI0GM/k65pJXFihVT90I8/PDDQ4YMUXc/e97nmjVrqnAqMTGxdOnSbuM/zaInppr6WUiFqKgoiWtlQao9/vjjMraqjiedlJisWrVqpg5oV0fGpnG3nVGrVv03SkhIMP4xgZYtWw4ePFjLDbslSVABpVWfNc9OTXzzzTdub5Q3ZgJWu1tderc/YGq4rJoy8nBINeuOudZUR7ffxWooPMkENOtr6vbCaYYuuR0um0EQvXv3fvnll/VVAADgqExAvZUYERGhl+hxg5AgQJKEJk2ahIaGSpDhGktp1pGQyMrKat++fbly5cLCwipXrqz+0plVf4w7SozSpUsX2bFx48aVKlWKjIy8ePGihIDSSK1ataS3sjB16lRVWcrDw8NLliwZExOjedxnCUDr1q0rdQIDA2fNmqWXmwJxtz0x1TSexfbt25s1a3bbbbdVrVpVAiwJ7lUdTzr57rvvFilSpKKB+gJHfWSsGrfqjGbdf6M9e/ZIBf0W89TUVEmTZJxr1KgxYsQIPaB022fNs1MT0lSrVq3UspHp7iC3u1tderc/YPpwuW3KxJMhVaxas/n5t9rFaig8zASsrqnVhdO75Ha4NOtBkGalRJpVqwAAQPOVTKCgZGdnp6enu76R7LlTp07t2LHD9Strrkti07S0NOMfuJVuSNgq/ZF411DR7Lp9ViHX+fPnJQbSv4PIhmtP7EmsdvjwYXPpta7bSSueNG5y3f7HxcVNnjxZX5UQUEZGfbeMkYd9dlutQ4cOHv6lW7e721x6mx8wt0258nBIPWzNyO0ung+FDbfX1OrCGVkNl+sgSCdjY2ONJShwR44cmTt3rlwU8wYAgLfyokzAMc9eFDLXd3z9XGZm5nPPPWcuLVDjx49XdxDBV4ZiyJAhGzduNJeioK1duzYsLEyycf1BbbeY7QH4OsfMY16UCTjm+5gK2Ysvvrhq1SpzKQDcCpIM1K5du0aNGk2bNn333XfdfkTAbA/A1zlmHiMTAAAUJEkGGjRoEBwcLPlArVq1XD8iYLYH4OscM4+RCQAACpieDCh16tQxfkTAbA/A1zlmHvOiTED/nQEAcJjQ0FD5NywsbOXKlY75DQrAbzlmHvOiTMAxz14AgJ9buHBhSEiIhP7y7913392yZct27drNmDFDfSbAbA/A1zlmHvOiTAAA4AAqDWjUqNG9994bGhoaHx9v/1VCAIBbhUwAAFBgJA2oVauWZALGDwEAAN6JTAAAUDDWrl0bHh7OhwAA4CvIBAAABYC/MQwAPseLMgHHPHsBALDBbA/A1zlmHvOiTMAx38cEALDBbA/A1zlmHiMTAAAUKmZ7AL7OMfMYmQAAoFAx2wPwdY6Zx8gEAACFitkegK9zzDzmRZmAY569AADYYLYH4OscM495USYAAAAAoNCQCQAA4KeOHDny8ccf5+TkmDcA8A9kAgCAW+/DDz9cuXKlqfCLL77417/+ZSq00a1bt/nz56vl3377rV+/fuHh4R07djRtyr/s7Oy6deuePHlSrRZs4zb0Az3wwAOJiYnmzdf2xO3yoUOHzp49q9cXffr0ee2114wlNkwnbuVmD4ixGzf7WICzkQkAAG69YcOGtWjRwliSk5MTHBw8bdo0Y6G9hISEH374QS1PmjQpOjp69+7dx48fN23Kv8OHDwcEBBw7dkytFmzjNvQDNW/efM6cOebN1/akdevWM2fONJVHRUXNnj37avX/denSpc6dOy9btsxYaMV04laMh74ZjN0otMEHHMmLMgHHPHsBALDhdrbfuXOnxHabN2/WS7766qsyZcqcPn1arUpisGHDhuTkZONb2keP/n/27j2+piv/H39ckkrErUFuJEHkMhkRIuX7CC3RurShxAct7QxVpaMdynwYWh0tTeejMzpVLdqiMy7lMT6NmnZMW81lKFIjF0ouhAgS4hJ1TYjs3/tz1s/qyt577ZzsROxz8nr+4bH32muvtfY6Oeu83+fsc5y7fv16WVlZSkpKqQ3tUjlF/88999zEiRNPnTr1008/KbZ3kdkhcufOnfz8/NTUVDrKmyosLKSSw4cP01FeqMI6ouxCFRCLjVPLycnJGRkZt27dYiVskDQkOpd6YYVMRUVFZmZmVlYWr6zcrU8XnpaWdvLkSaH6zx2xTEDbpjgSMRxn5RcvXoyMjFy2bBldOJWwQ3W5cEXyuOhmAuy6Ll26RN2dPn2aFebk5NC55eXlYk3dNhXJMMRLViQPru48A9SF7jrmiCyUCTjN7zEBAIAB2Wr/8MMPv/LKK3w3ISGBQnm2nZub271797CwsP79+3fo0GHHjh2snALiSZMm+fn59e7d+/PPP+cB6KxZszrYREdHf/jhh4oQm+bl5UVFRQUGBg4aNMjHx2fbtm2K7Q6ZLl26xMXFBQUF9enThyJm1r6Igss2bdpQg6GhodOmTRMDYtY4xaBjxoyhwTz22GPUBbsrSbENki6EWqbBU26zdOlSVr5///6AgAA6GhER0a1bt4MHD/L6U6dOpRJqtkWLFitWrGDlinAVsjbFEFy7vWDBAg8PDzqLroIuWanzhcseF91MgMY8efJkuq6YmBg3N7ekpCTapcyEHgv6l0fzsjZlwxD70n1wZfMMUBeydczhIBMAAIAGJVvt161bR5Efe9f2woULFCzu3LmTtquqqvr167dw4UJW7YsvvvD29uZvjVPIyONXMSicMWMGxYtsmx+ipigMnTJlCnv/u7Kykn3mwN8/pnLKQObPn89P5OXU0eLFixXbeJ566iltJpCdnd2yZUse0bLPIhTbICkAZTe1p6Wlubq6FhQUUNfh4eFz585ldaZPn07JDLXM6lM4e+XKFdreunVrq1at+Lv1YiagbVOsINtW3R1Ulws3eFxkmQAlG9euXaPtN998kxKYZcuW0XZ5eXlwcPDatWsVeZsGw+B96T64BvMMUBeydczhIBMAAIAGJVvtKUb09PRk7+O+9957gYGBLGI7fvw4hX0U72be1aZNm3379im24JK/Ha7YkQkcO3aMmiouLublDHVEWQd1SrHmyJEjhw4dqqqQk5NDJ/KbVfbu3avNBCiqpuwlMTExPz//5zNtg1yyZAnfpVh8xYoVubm51AK/RYfieNotKipi9WkkrLysrIzK+b00YiagbVOsINtWZQJ1uXCDx0WWCSxfvpxtp6amNm3alN8U9Mwzz8ybN0+Rt2kwDN6X7oNrMM8AdSFbxxwOMgEAAGhQBqv9c889N2rUKNqIior6wx/+wAopLqSocWh1e/bsUe7eLs9PrzEToKaaN2/OC7kRI0b06tVr0aJFFKpOmDCBKqsqUORKWQrfLSws1GYCtPH1118PGzbMw8Oja9euW7ZsYUdpkJ988gk/Nz4+/rXXXqMGxZHcvHmTGkxPT2f1+UWx8qNHj7JdMRPQtilWkG2rMoG6XLjB4yLLBPh1USjfsmVLfmjKlCkzZ85U5G0aDIP3pfvgGswzQF0YrGOOxUKZgNN89wIAAAwYrPa7du1ydXX99ttvmzRpcuLECVbIwj7+vriotpkAa0r1td2CggKKPtndOGThwoXagJh9oZnfhkRBp24mwFRUVFBgTRfC2qRB8ttdSI8ePVatWsXewD5z5gwrZO95s107MwFtm2IF2XZMTAy7D0ep84UbPC6mMwFZmwbD4H3pPrgG8wxQFwbrmGOxUCYAAAAQEhLi4+MTFxcnFtLu2LFj2S3mVVVVycnJ7D/Dqm0mQBsDBw5MSEi4ceMGbVMQXFxcfPLkSYoODx06pNgiTm9vb21ATHr37j1r1izFFugPHz6cR6KKkGbk5eWxEooSmjVrxu5moUH6+/uz6DYpKalFixYUidJVREdH0whpg65l/PjxAwYMYOfamQlo2xQryLaffPLJ2bNnszvp637hssfFdCagyNuUDUPsS/vgGswzACjIBAAAwFISExMpyFP9WD6FdPHx8Z6enqGhoW3bto2KimJfLDaRCRQVFQ0aNIiaopSjXbt233zzDRXOmTPH3d09PDw8ODiYwk3dgDgjI4OC706dOvn6+r7++uvaTICif2qQKkRERNDGypUr2VEaJA0mMDCQGvfw8FizZg0rP3LkSGRkZMeOHb28vChaPXbsGK9vTyag26Zu9C9u0yDDwsLc3NxiY2OVOl+47HGpSyYga1M2DLEv3QdXNs8AoCATAAAAR3H16tWcnJwa/4Nbe5SVleXm5oq/Q19aWpqXl8fefpahkJTCSv5fHGjR6SdOnKB2KILnhSwCLi8vp3P5DwpxFPiWlJSoCu0ka7NW6n7h9fi4cLptGg+D0z64St3mGRqPs2fPbtiwgf6E1AecFzIBAACAe0j1wQUAWNmePXvCw8PHjRuXmpqqPuaMLJQJOM13LwAAwEBjW+1ffvnllJQUdSkAWBUlA126dPH19Q0NDf3DH/6g+xGB06xjFsoEnOb3mAAAwABWewCwOEoGfvGLX0RERPj4+Pj5+Q0fPlz1EYHTrGPIBAAAoEFhtQcA62PJQHR0tI8N5QPiRwROs44hEwAAgAbFXlYBABxRly5dkpOTnSZqRSYAAAANCqs9AFjfnj17QkNDAwMDKfr39fXt2rVr7969V65cic8E7hWn+e4FAAAYwGoPABbH0oDOnTsHBQUFBARMmjQpPT1drOA065iFMgEAAAAAgPuL0oDAwEBfX1/xQwBnhUwAAAAAAOD/sP9PYMqUKaoPAZwVMgEAAAAAAPwfwwAAAAAA0DhYKBNwmu9eAACAAaz2AODonGYds1Am4DS/xwQAAAaw2gOAo3OadQyZAAAANCis9gDg6JxmHUMmAAAADQqrPQA4OqdZx5AJAABAg8JqDwCOzmnWMQtlAk7z3QsAADCA1R4AHJ3TrGMWygQAAADAIZw9e/bTTz+trKxUHwAAh4JMAAAAHMCmTZsW2yxbtuyrr766c+cOPzRq1KjNmzcLde3FTywuLr569ar6sB77a+oqLS0NDAy8dOmSUodh1xbvaPjw4UlJSerDNryOOCpxW3vhkyZNWrBggVgCAA4HmQAAADiAoUOH9uzZc8aMGRSAdujQYcCAAbdv32aHEhMTd+3aVb26Xfr27fvxxx/TRnR09Lp169SH9dhfU1dJSYmLi8v58+eVOgy7tnhHNIHr169XH7bhdficiIWK3oXT/D/xxBPffvutWAgAjgWZAAAAOADKBGbOnMm28/LyKJ7euXMn2y0tLb1+/TqvmZ+fn5ycnJGRcevWLVZC8Xd5eTnbrqysPHXqVFVVlXI36r148WJkZOSyZcuonJri7RQWFqamph4+fJh//qBbs6KiIjMzMysri3enVVZWlpKScvz4cTETMB72uXPn6OiFCxfoRBoJr8bodspOuXz5clpa2smTJ3k574hlArpt8jpiJsALdS9cOz8A4HAslAk4zXcvAADAgLnVXswEbt++3axZs02bNrFdHrxSSDpmzBg/P7/HHnssKipqyJAhrIK/vz9/65piWYrFKTTnJy5YsMDDwyMoKCg6OnrSpEmsGm106dIlLi6Oyvv06UOhMBVqa+7fvz8gIIAi7IiIiG7duh08eJCdLqJwuU2bNnRKaGjotGnTeCZgPGxqc+LEidRX//793d3dly5dyhuUdUolU6dOpRJquUWLFitWrGDlvCODNnkdMRPg29oL150fgMbD3DpmQRbKBJzm95gAAMCAudWeMoHp06dTBH/69Ol58+a1bNmSNtghHrBmZ2dTOX+j/aeffmIbxpmAonfrC1VjGxSmJyQkzJ8/n+2KNSsrK8PDw+fOnct2aXi9e/dmnzZwdHpYWNjixYtpmw499dRT2kxAd9gUtVNMz75RkJaW5urqWlBQoBh2SqdQInHlyhXa3rp1a6tWrdi79WImoNumWEc3E1A0UySbH4BGwtw6ZkHIBAAAoEGZW+0pE3C5y83Njd8apAgBK4WndCgxMTE/P//nM01lAhRbUxfvvfceBfEjR46k3lm5WDM3N5ea4nfLUFRNu0VFRWyXycnJoUL+Xdu9e/dqMwHdYVPUvmTJEr5L/bL3+A06pVNowKycLpDKWbIkZgK6bYp17MwEZPMD0EiYW8csCJkAAAA0KHOrPb87iILg//qv/6LAlH9jWAxYv/7662HDhnl4eHTt2nXLli2s0EQmMGLEiF69ei1atGj58uUTJkygmqxcrJmamtq8eXN+ys2bN6nl9PR0XqLY6nh6evLdwsJCbSag6A2bovZPPvmEnxgfH//aa68php2KXwhm5UePHlWqZwK6bYp17MwEZPMD0EiYW8csCJkAAAA0KHOrvfg9gcuXL3t5ea1evZrtigErU1FRQRGqq6sru1UmJCRk+/bt7NCBAwe0mUBMTMzatWv56QUFBU2bNmXnkoULF/JIV6x57NgxaurMmTNsl739z3cZisWpkN9Gn5aWppsJMOKwKWqnfvmhHj16rFq1SjHs1J5MQLdNsY4sExAv3GB+ABoJc+uYBVkoE3Ca714AAIABc6u9mAkoth+4DAgIoNBZEQLWwsLCvLw8VoF6adasGbstZ/To0ZMnT1Zsofa4ceO0mcCTTz45e/Zs/hs4J0+epDqHDh1SbKG8t7c3j3TFmlVVVdHR0dOmTaONysrK8ePHDxgwgFUT9e7de9asWYqt9+HDh2szAd1hU9Tu7+/Pbu9JSkpq0aIFC/cNOrUnE9BtU6wjywTECzeYH4BGwtw6ZkEWygQAAABkVJkAxcrt27dnb2nzgJVem9u1a9epU6eIiAjaWLlyJaucnZ3t6+vr5+fn4+Pz1ltvaTMBOjEsLMzNzS02NpadMmfOHHd39/Dw8ODgYIrjeaSrqnnkyJHIyMiOHTt6eXlRgH7s2DFWTZSRkUHxN42KxvD6669rMwHdYfe0/ecJgYGBNAAPD481a9bwBmWd2pMJyNqsMRNQXbhsfgDAsSATAAAAa6EwfcOGDWfPnlUfsENlZeWJEyfy8vIoFBbLb9++nZ+fz29osUdpaSm1Qw2qD2gUFxeXlJSoSwW3bt2i8P3y5cvqA3dph83C+vLycjqR/wiSqMZOZQzarBX75wcALAuZAAAAWEV6evozzzwTHh6+Z88e9bFGRnyDHwDgHkEmAAAA91lZWdny5csjIyN9fX2DgoKQBpCXX345JSVFXQoAUK8slAk4zXcvAADAgLjap6enP/300507d/b396d/Q0NDkQYAgPU5TdRqoUzAaX6PCQAADNBqzz8ECAwM9LEJCgpCGgAAjsJpolZkAgAA0KBmzJjRrVs3lgAAADgip4lakQkAAECDYp8JvP/++z179uSfCdAGPhMAAEfhNFErMgEAAGhQ4mqfnp4+YcIEfE8AAByL00StFsoEnOa7FwAAYEC72vOPCHx9fQMDA5EMAIDFadcxB2WhTAAAABq59PT0Z599Fv+fAABAw0AmAAAA1lKX/2MYAADsh0wAAAAAAKAxQiYAAAAAANAYWSgTcJrvXgAAgAGs9gDg6JxmHbNQJuA0v8cEAAAGsNoDgKNzmnUMmQAAADQorPYA4OicZh1DJgAAAA0Kqz0AODqnWceQCQAAQIPCag8Ajs5p1jELZQJO890LAAAwgNUeAByd06xjRpnAwYMHZzi+xMTEdwEAAAAAGoGioiJ1TC9nlAlQGO0CAAAAAAAO4r333lPH9HI1ZwLx8fGJjmnq1Kk0/pdeeuk9AAAAAACnNmrUqPrPBCikvuSYtm/fTuNPSUlRXxgAAAAAgHN59913kQn8DJkAAIAFOc037QCg0bLmOmbpTKBXr16dO3dev349befl5WVlZRUUFKgr1avaZgK3b99ef1dxcTGVVFZWUmFVVZW6qqKUl5dTNepCfaD+iF3IurOnDnf27Fl+gVRZfRgAoEE4za/vAUCjZc11zNKZQIcOHai1VatW0faQIUNo+/nnn1dXqle1zQSuXr1K9d3d3UNDQ3ft2kUlzZo1o5ImTZp4eHj06NHjjTfe4AH0+fPn6RDVrNZEvRK7kHVnTx0uPT2djtIFUjWqrD4MANAgrPkKCgBgP2uuY/c/E6D48ocffvjqq6+2bduWkZEhHuKZQF5e3iOPPELbEyZM+PHHH3NycsRq9chcJhAbG8tLWCbwm9/8ZuLEia1bt6btRx99lH1EcPv27b1792ZlZbGapaWlx48fv3btGj+XKlRWVtLGhQsXbt68ycsJtXDmzBnqjpeIlXm52IUY5YsNyuow1Is4JIZNPjIBALhfrPkKCgBgP2uuY/c/E+jVq5eLgKJqCkbZIZ4JhIWFiXUefPDB6m3UG/bbQezdfXvIMgEWNBcVFbVt25Z2//GPfyhC2E1x+UMPPcSupUmTJq+88go/GhgYOGzYMNp44IEHPv30U9bm3/72t/bt27P6gwcPPn36NK8cHx9PG66urps2bRK7MGhQW4dtb9iwgU04DWncuHFi1oFMAADuL2u+ggIA2M+a69j9zwR++9vfrlixIikpad26dUFBQXT6q6++yg7xTOCPf/xj165daZvShjlz5ixcuLB6G/XjxRdfpC5mzZqlvio540yAjB8/nnYXLFigCGH32rVraeONN97Izc398ssvt2zZwo+SxYsXb9y40cPDw93d/ezZs9nZ2dSmv78/pRPz5s2jCsOHD+eVZ86c+fbbb7NmxS4MGtTWoe2DBw82b978l7/85YEDB9555x0qZPkJg0wAAO4va37TDgDAftZcx+5/JnDq1KnVq1fPnz//pZde6tmzJ53+xBNPsEMN+T0BE2mAYkcmMG7cOBdbbqMIYXdaWhpttG3b9tFHH/39739/4sQJftTb25udOGbMGNrdvn07ZZC0QdUU29eRH3jgATc3t5KSEips3749u++IgngK9MUuDBrU1qHtP//5z7QRERFBqcvo0aNpOywsjJ2oIBMAAAAAcEb3ORPIz8/v1KkTneLl5UVpAAv9KbBmRxssEzCXBig1ZQIU4rdp04Z2v/rqK6V6mJ6SkvLKK68MHjyYSoKDg/lRHx8f1o4sE3CzYZkAv7//ARtVF7IGtXVom/XSv3//eXe9+eab7EQFmQAAAACAM7rPmcDKlStdbGkAhba0O3bsWBdJJvD444/T9uTJk8XT64XpNECRZwIvvPDC+PHjW7VqRdtDhw5l79zzsHvfvn1r1qzJsunYsaOHhwdVYEddbDfzbNq0id/MQ3VUdwcNGzZMjOYVw0xA26C2Dr87KCws7Pvvv8/Ozl67du0777zDLwqZAAAAAIDzuc+ZwIYNG6g+xaCLFi2aP38+bbhIMoHp06fTdrt27caNG0ehbbVW6qAuaYAizwToX0oDevbsuWTJkoqKCnaIh907duzw9PS0RekutMFmnx0NDAwcPnw4bbi5uVE4zk5ct24dJUus/qBBg4qKiuzPBLQNauuw7Y0bN3p7e7NeaPBvv/02a1xBJgAAAADgjO5zJkDB5YgRI1j0SXGzwWcC2dnZ/fr1o3iXSuLi4qq1YlYd0wDlbibQunVrGvO+ffvUh+Xu3Llz+vTpwsJCbZ6g2H7088aNG2L9qqoqqn/lyhWx0H7aBmVKSkqoI/b7pCQjI4Mujf0cKjIBALhfrPlNOwAA+1lzHbvPmQBz5MiRAwcOqEvvsbqnAeTWrVvv3MW++Gua6m1+iygqKuIXaGcuAQBQ76z563sAAPaz5jpmiUyg4dVLGlC/KKnYsWOH/f+VAQBA42HNV1AAAPtZcx27J5nA1KlTt1sY++/DLJUGAACAAWu+ggIA2M+a69g9yQSsD2kAAIADseYrKACA/ay5jtVzJpCYmEjNvfTSSykNYsWKFeoiO+AOHAAAx2LNb9oBANjPmutYPWcCJpoDAAAAAICGZyJ0RyYAAAAAAODwTITuyAQAAAAAAByeidAdmQAAAAAAgMMzEbpbKBOw5ncvAACgfmG1BwBHZ811zETobqFMwJq/xwQAAPVLttpv2rTpm2++UZfWn1GjRm3evFldWhNzZ9W74uLiq1evqkvt0wCXkJGRMWLECHWpRl2uQqnz6fWotLQ0MDDw0qVLyj2eXrEjmbpPy/Xr16dMmRIWFjZkyBD1sdq7pxNijxoH8Ktf/eq7775Tl9aSbB27v0yE7sgEAACgQclW+6FDh86cOVNdWn8SExNN/PC0ubPqXXR09Lp169Sl9mmASxg8eDAlcupSjbpchVLn0+tRSUkJBUjnz59X7vH0ih3J1H1ali9f3qdPn+PHj1+4cEF9rPbu6YTYo8YB/Otf/4qKilKX1pJsHbu/TITuyAQAAKBByVZ7MRM4d+7c9evXL1++nJaWdvLkSbFafn5+cnJyRkbGrVu3eGFlZeWBAwf27t0rvjnKGikrK0tJSSm1oV1+VLedO3fuUHlqauqpU6dYieosjjVOkRM1XlhYqCrnnSqGY9O9QFJRUZGZmZmVlcXGdvHixcjIyGXLltGoWJsM9UtDPXz4MA2blZSXl5+qjkpUl6BqnDEYj+74RYcOHWrXrh11xHYpeOXbdC6NoaqqSpFchW7juoOx/3QZ1uylS5do0k6fPs0Kc3Jy6HQ+YEbWLHtYKWIWA3TV9Gr/hBTJnBvQ7UjRe8R1p0W3pgz9DT/33HMTJ06kFn766SdFfq65p4ysNZHu/GifSrpNaauJA9A9hf4gO3fuTOW8xATZOnZ/mQjdkQkAAECDkq32YibQs2fPqVOnduvWrW/fvi1atFixYoViiznGjBnj5+f32GOPRUVF8TsZcnNzu3fvHhYW1r9//w4dOuzYsYM3MmnSJKrfu3fvzz//nJr6+OOPDdrJy8uj3cDAwEGDBvn4+Gzbto0K+Vkq1DgFT0FBQdSpu7v70qVLebnYqcHYtBfI7N+/PyAggCpERERQhYMHDy5YsMDDw4P6io6OpsZZNdro0qVLXFwclffp04ciQircvXt3xF0hISH0Ir5z507xErSNs3LZeGTjFy1cuHDs2LF819/f/9tvv2XbFB3SGChKo23tVcga1x2M/afLULOTJ0+mZmNiYtzc3JKSkmiXwmh6xOlfHjvKmqXAsU2bNtR7aGjotGnTeIAuTq/un5BszmVkHek+4tppkdWUmTVrVgcbauHDDz/UPdf0U0a3NRXZ/KieSrKmVNUUYQCyU8gLL7zw4osv8l0TZOvY/WUidLdQJmDN714AAED9kq32qkyAIowrV67Q9tatW1u1akWxSHZ2dsuWLXnExt6/rKqq6tevHwWjrPCLL77w9vZmdagRiuf4yz+PD2TtUIA4ZcoU9t5hZWXl5cuXxbNUqHGKWtgN3Glpaa6urgUFBaycd2o8Nu0FKrZ+w8PD586dy06ZPn06xTfUjvYOEP4WLJ2YkJAwf/588ahiC4NiY2PLy8v5JcgaVyTjMRi/iCKtxMREvivLBJTq97EYNK47GPtPl6FmKRy8du0abb/55puUvy1btkyxfZASHBy8du1aRd4sDYAe1sWLF7M6Tz31lDYT0P0TMphzXQYdyR5xE38bKjNmzKCUg23rnmv6KaPbmshgflTPX1lTqmqKMADZKWT16tV0It81QbaO3V8mQncLZQIAANCYqTIB/upDcSS9GJ0+fZpe193c3CjozM/P52cdP36cjlIsnnlXmzZt9u3bxxrhb9Ur1eMDbTvHjh2jdoqLi3kJY5AJLFmyhO9SNMbeuhY7NR6b9gIV2xvStM1v86DsgnaLioq00R5FSzt37qRGKGocOXIkzZ54lAopumW3ffNLkDWuSMZjMH4RxWGffPIJ37UzEzBoXHcw9p8uQ80uX76cbaempjZt2pTfFPTMM8/MmzdPkTebk5ND5fxmob1797poMgHdPyGDOddl0JHsEa/t34aWmAnonmv6KaPbmshgflTPX1lTqmpK9dxM9xSSlJTUoUOHn89xFiZCd2QCAABgCapMYP369Wz75s2b9GJ09OhR2v7666+HDRvm4eHRtWvXLVu2KLb34ymkG1rdnj17VI0o1QMU3XaaN2/OK3MGmYAY/sbHx7/22musnHdq59jEC6QIVRwGO5Senq6N9kaMGNGrV69FixZRdDthwgQaJz/02WefeXl55eXlsV1+CbLGFcl4DMYvioiIWL16Nd+1MxMwaFx3MPafLiM2SxF2y5Yt+aEpU6awvz1ZszR1np6evH5hYSEP0Pn06v4JGcy5LoOOZI94rf42dImZgOxcc08ZWWucwfyonr+yplTVFGEAslMU22dNPj4+P5/jLEyE7sgEAADAEobakQkwFRUV9NLu6up65coVFirxL4CKDDIBRtuO+N1fRnsWQ43ze0hIjx49Vq1axcp5p3aOTbxA9j7rmTNn2CH2DjHtxsTEsNtXmIKCAgpY2f0ziu1OfR7l7N69u3Xr1hSl8cr8EmSNK5LxGIxfNHz48DfeeIPvhoSEbN++nW0fOHDARcgExKswaFx3MIrdp8vYkwnImqUBUDm/BYWm10WTCej+CRnMuS5ZRwaPuP1/GzI8E6jx3Fo9ZWpsTTGcH/HxMmhKlgkYnELef//9hx56iO86DROhOzIBAACwhBozAYo5+Pvc33//fbNmzdhNFHFxcWPHjmX3f1dVVSUnJ1dWVqoaUapHbLrtDBw4MCEh4caNG7RNAQS77cEgE/D392chY1JSUosWLbThi2Lf2MRgt8r2lQAKy2iDao4fP37AgAFU/uSTT86ePZvdkE1OnjxJpxw6dEixxY7e3t4syqG4qn379rqBkSJvXJGPRzZ+UWJiovifCYwePXry5MmKLWocN26ci5AJqK5C1rhsMHae/s9//lN7P7piXyagyJvt3bv3rFmzFNt1UfLDAnSl+l+I9k/IYM5l49TtSPaIK5ppkdWUdacImYDsXHNPGVlrIoP5ER8vg6ZkmYDBKeTZZ5+dM2fOz+c4CxOhu4UyAWt+9wIAAOqXbLWvMROgE9u1a9epU6eIiAjaWLlyJatA8Ud8fLynp2doaGjbtm2joqLYbxHKMgFZO0VFRYMGDaJ2QkJCqJz9N2dinCeixil+CgwMDA4O9vDwWLNmDS8XO7VnbKoPPY4cORIZGdmxY0cvLy8Kkii4V2xjDgsLc3Nzi42NZdUojnF3dw8PD6cBUODIohx64W7SpEkbQWpqqngJuo0r8vHIxi86ceIEVeC3tmdnZ/v6+vr5+fn4+Lz11ltiJqC6ClnjssHYefrrr78eExPDThfZmQnIms3IyKDcj/5s6OqoC91MQPdPSDbnsnHKOtJ9xBXNtMhqyrpTqt8dpHuu6aeMbmsqsvlRPZVkTckyAYNT6AGlvmiexbOYs2fPbtiwgf/FGpCtY/eXidDdQpmANX+PCQAA6lddVvvKykqKO/Py8ihAVB2iSDQnJ8f4f2PlDNqhICA3N9f4V2iUu/FHeXk5xTHsp1QM1GpsDMWjJSUl6tLqSktL6RK0b9LXyJ7GRTWOf+zYsR988AHfvX37dn5+Pr8xw1iNjRvTnj548GDj/2LWHtpmFVsESQ83+4UcA7p/Qto5NxinrCP7H3FtTYPuVLTnKnV4yui2pqWdHy07mxLpnkLzEBcXJ5aI9uzZQ8nD9OnTDb7OodRtHbt3TITuyAQAAKBBOcdqr30nsjErKCh4/vnn1aX3Cf2B8VtlrKyBx9nA3VnZ7NmzMzMz1aUCSgYCAwN9fX0feuihjz76SPcjAmuuYyZCd2QCAADQoJxjtX/55ZdTUlLUpQDgFCgZ6N69u5+fX2hoaFBQ0LRp01QfEVhzHTMRuiMTAACABoXVHgCsjycDPj4+AQEBlBKIHxFYcx0zEbpbKBOw5ncvAACgfvkAADisLl26JCcnWzNqNRG6WygTAAAAAACwgj179kRERAwcOJDnAF27dp01axb/H5EtyETojkwAAAAAAOBnLA3o06cPJQC+vr6PPPII///yrMxE6I5MAAAAAADg/0dpQNeuXSkBsP6HAComQndkAgAAAAAA/4f9fwIJCQkO8SGAionQ3UKZgDW/ewEAAPULqz0AWBP+j+FqTDRXF9b8PSYAAKhfWO0BwNFZcx0zEbojEwAAgAaF1R4AHJ011zEToTsyAQAAaFBY7QHA0VlzHTMRuiMTAACABoXVHgAcnTXXMROhu4UyAWt+9wIAAOoXVnsAcHTWXMdMhO4WygQAAAAAAMAcE6E7MgEAAAAAAIdnInRHJgAAAAAA4PBMhO7IBAAAAAAAHJ6J0N1CmYA1v3sBAAD1y/Rqf+fOnc8///zll1+ePHny4sWLf/zxR3UN+1y/fn3KlClhYWFDhgxRH3NSxcXFV69eVZfaZ9SoUZs3b1aXAjRuptexe8pE6G6hTMCav8cEAAD1y9xqf+XKlYcffrhDhw6UCdDL08yZM2k7KSlJXc8Oy5cv79Onz/Hjxy9cuKA+5qSio6PXrVunLrVPYmLirl271KUAjZu5dexeMxG6IxMAAIAGZW61nzp1ateuXc+ePctLysrKDh06xLYrKioyMzOzsrJu3brFK5w7d+769euXL19OS0s7efIkK6To/7nnnps4ceKpU6d++uknVlhZWXngwIG9e/eKb5yz06mXlJSU0tJStnvp0qXU1NTTp0+zOjk5OXRWeXk5P4sUFhZSncOHD9+5c0cs51hTNBJqmSqrynmPrNBgbKpLY7RTcfHixcjIyGXLltEl82a1g6SrOFUduy46hfpidbSNK4aDUSTjB3B05taxe81E6I5MAAAAGpSJ1f7atWtubm5r165VH7DZv39/QEBAz549IyIiunXrdvDgQVZOJZQ/UEnfvn1btGixYsUKKpw1a1YHm+jo6A8//JBKcnNzu3fvHhYW1r9/fyrfsWMHP33SpEl+fn69e/f+/PPPaXfy5MnUWkxMDA0mKSmJdinCDgwMpH95rEyndOnSJS4uLigoqE+fPhSFs3IRNUWpCFWgHt3d3ZcuXcrLxR4Vw7FpL02RTMWCBQs8PDyoO7pkal+RDHL37t0Rd4WEhFAAsHPnTiqnLj7++GNZ4waDUeTjB3B0JtaxBmAidEcmAAAADcrEap+enk6vRzz0FFVWVoaHh8+dO5ftTp8+ncLoqqoqxRahRkVFXblyhba3bt3aqlUr9v73jBkzpk2bxupTzX79+i1cuJDtfvHFF97e3iysp9MphOWhPO1S0Ew5CW2/+eabFMEvW7ZMsb2VHhwczLOUU6dOsQ3qKyEhYf78+WxXRE1R3Hzp0iXaTktLc3V1LSgoYOVij8Zj016awVSo7g6qcZCUKsTGxrLPBFgmYNC47mAUw/EDODoT61gDMBG6WygTsOZ3LwAAoH6ZWO1TU1Pp9aioqEh9wPauMx3iN71QSM1rUoTKX8LKysqonN3VI2YCx48fp3IKxzPvatOmzb59+9jp/N16trt8+XK2TeNp2rQpvynomWeemTdvHtum8Hfnzp3U7+LFi0eOHDl06FBWLqKmlixZwncpTGfvo6t6NB6b9tIMpkKVCRgPkgopt+FfomCZgEHjuoNRDMcP4OhMrGMNwETobqFMAAAAQFd+fj69Hv373/9WH7AF5c2bN+e7N2/epJrp6emKLUJdv369WH706FGleiZAcSrF9EOr27Nnj+p01e7evXtbtmzJD02ZMmXmzJlse8SIEb169Vq0aBGlDRMmTKAwmlfjqKlPPvmE78bHx7/22musXOzRzrHxSzOYClUmYDDIzz77zMvLKy8vj5ewTMCgcd3BKIbjB4B7wUTojkwAAAAcQHBwMA/fRceOHaOXqjNnzrDdnJwcviuLUMVMoLCw0OXue9gqJjKBgoICin3ZfTJk4cKFskyA3zNDevTosWrVKlYu9mjn2PilGUxFTEwMv3/JYJC7d+9u3bo1RfBsl2GZgEHjuoNRDMcPAPeCidAdmQAAADiAbdu2ubq6/vGPf2Q3mlMg+6c//Wnz5s1VVVXR0dEU2dNGZWXl+PHjBwwYwE6RRahiJkDi4uLGjh3LvgBAjSQnJ1M7qtNVu7JM4OTJk9QL+0Uj6svb21uWCfj7+7MQOSkpqUWLFtqQmrFnbPzSDKbiySefnD17Nrt9XzZIivXbt2+vGoByNxMwaFx3MGxXNn4AuBdMhO7IBAAAwFrKyso2bNgg/mAoQ0Fz9+7dmzRp4uPj4+bmFh8fz75oe+TIkcjIyI4dO3p5eVG0ShEtqy+LUFWZQHFxMTXl6ekZGhratm3bqKgo9hOZJjIBMmfOHHd39/Dw8ODg4FmzZskyARpDYGAg1fHw8FizZg0vVwXi9oxNvDTZVHz//fdhYWE0abGxsYpkkPSiT3PbRpCamqoIKH+CrAAAgABJREFUvx0ka1w2GEU+fgC4F0yE7hbKBKz53QsAAKhfBqt9eno6hcgUoRrcTc6+Gnvjxg1VOQWdJSUlqkL7Xb16NScnh/2eTx2Vlpbm5eUZvPnNQufy8nKKrfn/aWCgtmOzZypqHKSMPY2r1Hb8ANZnsI7dRyZCdwtlAtb8PSYAAKhf2tW+rKzso48+6t+/v5+fX0BAgDVfYuuR9r1/AHAs2nXMCkyE7sgEAACgQYmrPfsQgP2nVJ06dQoKCnL6NIC8/PLLKSkp6lIAcBzWjFpNhO7IBAAAoEHRas8/BIiMjOzZs6ePTSNJAwDACVgzajURuiMTAACABsU+BKDQv1OnTiwHAABwLNaMWk2E7hbKBPBWEABAY0Cr/ZkzZ1544YXAwED+sjpw4MCIiAiDLwoDAFiHNaNWE6G7hTIBAABobDZu3Pj//t//Y8lAnz59kAwAAJhmInRHJgAAAPcZ/4jA19e3S5cuSAYAAEwwEbojEwAAAKvYuHFjfHy88f8nAAAAukyE7sgEAADAWmT/xzAAABgwEbpbKBOw5ncvAACgfmG1BwBHZ811zETobqFMwJq/xwQAAPULqz0AODprrmMmQndkAgAA0KCw2gOAo7PmOmYidEcmAAAADQqrPQA4OmuuYyZCd2QCAADQoLDaA4Cjs+Y6ZiJ0t1AmYM3vXgAAQP3Cag8Ajs6a65iJ0N1CmQAAAAAAAJhjInRHJgAAAAAA4PBMhO7IBAAAAAAAHJ6J0N0ZMoFNmzYttqEBf/PNN+rD9a24uPjq1avqUvuMGjVq8+bN6lLnVZe5AgAAAAD7mQjdLZQJmP7uxdChQ3v27Dljxoxf/epXbdu2feKJJ6qqqtSV6k90dPS6devUpfZJTEzctWuXutR51WWuAMBZmV7tAQAswprrmInQ3UKZgOnfY6JMYObMmWw7MzOTxvzvf/+bts+dO3f9+vWysrKUlJTS0lIqqaysPHDgwN69e8U3qlm1y5cvp6WlnTx5kpeTiooKajArK+vWrVus5OLFi5GRkcuWLTt16hRrkxQWFqamph4+fPjOnTuspLy8/FR1VELldAr1xeooeu0bDEaRjF9FOxiaARq2WOfMmTM3b96UlSuSjmRjKykpYVen2E6ki2WZmJ1zpUWH8vPzqRqdyAu1c6XIh6RCrSUnJ2dkZPBzZWNWJL3LynUnStHrUVuiSC4KwOmZXu0BACzCmuuYidDd2TIBisyaNWv22Wef0XbPnj0nTZrk5+fXu3fvzz//PDc3t3v37mFhYf379+/QocOOHTvYKVRt6tSp3bp169u3b4sWLVasWMHK9+/fHxAQQEcjIiLo6MGDB6lwwYIFHh4eQUFB0dHR1DiV0L9dunSJi4ujwj59+rDYevfu3RF3hYSE0DTu3LmTyqmLjz/+2KB92WCIbPwi3cGsWbOGxsDrUBROU0ShsKxc1pFsbP7+/t9++y3bpiiZLpZyDMXuuVLJy8uLiooKDAwcNGiQj4/Ptm3bFMlcKfIhcRS+jxkzhv4GHnvsMWp2yJAhrFw2Zt3eZeW6E6XtUVvC2pRdFIDTM73aAwBYhDXXMROhu7NlAh999FGTJk2OHDmi2MJEitJYuFlVVdWvX7+FCxeyal988YW3tzd7e56qUXx25coV2t66dWurVq0odKOMIjw8fO7cuaz+9OnTKZ1gbxur7njh7xDTWQkJCfPnz+eHGAp/Y2Nj2TvQPBOQta87GMVw/CLdwVBrFJHv3buXHaJOH3/8cVm5QUeyscmiaqX2c0W9x8TETJkyhbVMs3T58mXZXCnyIXHZ2dktW7bkE/XTTz+xDd0x6/auSEYlmyhtj9oS1ojsogCcnunVHgDAIqy5jpkI3Z0kE2jTpk23bt06duxIIddf/vIXVk5h4tKlS9n28ePH6VrS0tIy76JT9u3bx6rxa6RwkKqdPn06NzeXNvg9LQUFBbRbVFSkaKJbit527txJLSxevHjkyJE0GH6IUGFwcPCFCxfYLs8EZO3rDkYxHL9INphnnnmGYk3FFoD6+fn9/e9/l5UbdCQbm25UzXZrNVfk2LFjdHpxcbFYKJsrRT4kjsbj5uaWmJiYn58vluuOWbd3RTIq2URpe9SWKIYXBeD0TK/2AAAWYc11zETobqFMwPR3LyignDBhAoViR48eraio4OUUJq5fv55tU8TWtGnTodXt2bNHVe3mzZt0ydROampq8+bNeVOsPD09XdFEtyNGjOjVq9eiRYuWL19Ow6BYnx/67LPPvLy88vLyeAnPBGTt6w5GMRy/SDYYir/btm1bXl6+Y8eOBx98kM+SttygI9nYdKNqtmv/XDHUuzgtjGyuFPmQRF9//fWwYcM8PDy6du26ZcsWVqg7Zt3eFcmoDCZK26O2xOCiAJye6dUeAMAirLmOmQjdLZQJmDZUuDtIJIaJhYWFLpo3jBndaJK9DXzmzBlWnpOTw3djYmLWrl3LygsKCigcZHenkIULF/Lodvfu3a1bt6Z4ke0yPBOQta87GMVw/JzBYKqqqgICAigGfeqpp2bMmMFP0ZYbdCQbW0hIyPbt21n5gQMHXIRMwM654ljv9K9YKJsrRT4kLUpyKP1wdXVlA9Ads27vimRUBhPFqHpUlRhcFAAAAIAJJkL3xpIJkLi4uLFjx167dk2xRcDJycmVlZWqajyapArR0dHTpk2jDao2fvz4AQMGsDpPPvnk7Nmz2S3jJ0+epPqHDh2ibTrL29ubRbcU57Vv317sneGZgKx93cGwXdn4OdlgmFdffZW6cHd3379//8/n6JXLOpKNbfTo0ZMnT1Zske64ceNYVM2q2TNXKgMHDkxISLhx44Zi+yZDcXGxbK4U+ZA4itf5ZzKUvjdr1oz9yI9szNre2bm65boTpe3x8OHD2jEYXBQAAACACSZC90aUCVD0Fh8f7+npGRoa2rZt26ioKPbTjbJo8siRI5GRkR07dvTy8qKgjYJ7VoeCubCwMDc3t9jYWNqdM2cOhdHh4eHBwcGzZs1i0S1NXZMmTdoIUlNTleq/HaTbvmwwinz8It3BMNQOtRYRESFU1y+XdSQbW3Z2tq+vr5+fn4+Pz1tvvSVmAvbMlUpRUdGgQYOo95CQkHbt2rH/Kk53rhT5kDgaADXSqVMnukDaWLlyJSuXjVm3d1m57kRpe9SWsDZlFwUAAABggonQ3ZEyAYrVNmzYcPbsWfWB2rh69WpOTs6lS5fUByQo2ispKVGXVldaWpqXl6d6h95O9rQvqnH8dRmMqMaORLdv387Pz+e3wRiwc3j0WOfm5qp+HKm2c8VQXydOnKBOb9r+qwTOYMy6vcvKtROl7VFbwpm7KAAAAAAVE6G7hTIBg+9efPXVV48++mhoaKj2O7IAAOBYDFZ7AACHYM11zETobqFMQPt7TOfPn589e3a3bt18fHyCgoKQBgAAOAHtag8A4FisuY6ZCN0tmgl89dVXAwcO9PX1pRwgICAAnwYAADgNa76CAgDYz5rrmInQ3VqZgPghABMUFIQ0AADAmVjzFRQAwH7WXMdMhO4WygRmzJgREhJC0X9MTAzPBAAAwMlY8xUUAMB+1lzHTITuFsoEvv/++7Kyso8++ujhhx/u169fQkJCWFgYvWb4+vpqf5gfAAAclDW/aQcAYD9rrmMmQncLZQKi9PR09hHBiBEjYmJikAwAAAAAABgwEbpbNBNg+EcE/v7+nTt3TkpKUtcAAAAAAABTobulMwGOfUQQHh6Orw4DAAAAAGiZCN0dIxNg6uX/GAYAAAAAcD4mQncLZQLW/O4FAADUL6z2AODorLmOmQjdLZQJWPP3mAAAoH5htQcAR2fNdcxE6I5MAAAAGhRWewBwdNZcx0yE7jVnAmTRokW0S//e0+0hQ4bolmMb29jGNradaZtWe91ybGMb29h2lG1rrmPDhg1zqfdMQGzu9u3b6+8qLi6mksrKSiqsqqpiFdgur18rutnVxo0bN2/eTBvl5eXU6fbt29U16pXYi6xHXi6rIDp79iyfMaqvPgwA0PjorvYAAA7EmuuYNnSvUe0ygatXr1KJu7t7aGjorl27qKRZs2ZU8uKLL7IKsbGxtLt//35+iv10v3tB7bds2ZI2zp8/Ty1Tv+oa9UrsRdYjL5dVEKWnp1MFmjGqSfXVhwEAGh/d1R4AwIFYcx3Thu41MpMJULjPS1gm4OrqeuzYMUWTCVRVVZ05c4bO4vUV2wcLlZWVtHHhwgXVIY7KL1++rAiZAJ21d+/erKwsXqe0tPT48ePXrl3jJWLLN2/e5OWK3kh0hyH2Igb6YoO8jm4mQL2IQ2IeeeQRZAIAAAAAcO9oQ/ca1UMmQDw9PZ9++mmleibwt7/9rX379i42gwcPPn36tHI3vA4MDIyPj2cpxKZNm3hrzJtvvtnUZtKkSbqfCVBc/tBDD7GWmzRp8sorr4gts3ukHnjggU8//ZQ1qB2JbBjazwS0Dco+E9iwYUOHDh3YkMaNGydmHcgEAAAAAOCe0obuNaqHTIBC5Ndff53C36ysLJ4JZGdn0yF/f/9//OMf8+bNo8Lhw4crd8NoMnPmzLfffluMpJnMzEwq9PHxSUpKevHFF2lbmwmsXbuWtt94443c3Nwvv/xyy5YtYsuLFy/euHGjh4eHu7v72bNndUciG4Y2E9A2qJsJHDx4sHnz5r/85S8PHDjwzjvvUDnLTxhkAgAAAABwT2lD9xrVTyZw5cqV9u3bU4TNM4E//elPtPH73/9esX2NmOq4ubndvn2bRc9UmX3JmKJnirB5a4S6owpz5sxR7nanzQTS0tJou23bto8++ih1ceLECV7B29ubtTNmzBja3b59u+5ISkpKdIehzQS0DepmAn/+859pOyIiYvz48aNHj6btsLAwdqKCTAAAAAAA7jFt6F6j+skEaGPZsmV0qE2bNi56mYCbDc8E+OcAD9iwbfbdi7/85S9U4Xe/+50izwRISkrKK6+8MnjwYCoMDg7mFXx8fFgFWSbARsIyAe0wtJmAtkHdTID10r9//3l3vfnmm+xEBZkAAIDAmt+0AwCwnzXXMW3oXqN6ywTKy8sDAgJcbCgTyMrKUt2TM2zYMEUT0IuZAPs9poyMDBZ/G9wdtG/fvjVr1mTZdOzY0cPDo6qqilVwsd3Ms2nTJn4zj+5IZMPQZgLaBnUzAXZ3UFhYGP1lZGdnr1279p133mGNK8gEAAAE1vz1PQAA+1lzHdOG7jWqt0yArFu3joXO7BvDtOvl5cVKBg0aVFRUpNiRCZA//OEP7BvDkydP1v3G8I4dOzw9PVnLtMFGyCoEBgYOHz6cNtzc3CgcZw1qRyIbhjYT0Daomwkotv/6wNvbm/XSqlWrt99+m5UryAQAAATWfAUFALCfNdcxbeheIzOZQOvWrSkZ2Ldvn1BXX1VV1enTp69cuaI+oEecUzqF/YqozJ07d6jlwsLCiooKViLG5RcuXLhx44ZYv1Yj0dI2KFNSUkIdsd8nVWwfcdBc0YwhEwAAYKz5CgoAYD9rrmPa0L1GtcsEbt269c5d7Hu69aiOc6p6h94iioqK+IzZmUsAADi3Oq72AAD3nTXXMW3oXqPaZQL3VB2/e0FZyo4dO9j/fAwAAJZVx9UeAOC+s+Y6ZiJ0t1AmAAAAAAAA5pgI3ZEJAAAAAAA4PBOhOzIBAAAAAACHZyJ0RyYAAAAAAODwTITuFsoErPndCwAAqF9Y7QHA0VlzHTMRulsoE7Dm7zEBAED9wmoPAI7OmuuYidAdmQAAADQorPYA4OisuY6ZCN2dIRPYtGnTYgHtqmuYMmrUqM2bN6tLG8r97V1XaWlpYGDgpUuXlAYcHu9o+PDhSUlJ6sM2vE6DjQoA6sL0ag8AYBHWXMdMhO7OkAkMHTo0IiJiyl00bHUNUxITE+/j/1N2f3vXVVJSQn8P58+fVxpweLyjnj17rl+/Xn3Yhtfp27fvxx9/rD4MABZjerUHALAIa65jJkJ3C2UCpr97QZnAzJkz1aWKUlhYmJqaevjw4Tt37ojl+fn5ycnJGRkZt27d4oVUh8qp/qlTp1hJaWnp9evXeQVZa6KKiorMzMysrCyx5XPnzlE7ZWVlKSkp1KYiaUpVrba9s9MvX76clpZ28uRJ8ZDBqHTrq7AhHT9+XMwExOFp55M1fuHCBTqRRs6bYrTjMRgM74hlArpt8jqqTKCysvLAgQN79+69evXqz7UB4H4zvdoDAFiENdcxE6G7hTIB03QzgUmTJnXp0iUuLi4oKKhPnz4XL15UbOH+mDFj/Pz8HnvssaioqCFDhrDKeXl5tBsYGDho0CAfH59t27Yp1cNK3dZU9u/fHxAQQAFrREREt27dDh48yMqphE6nTnv37v3555/LmlJVq23vdPrUqVOpXzqxRYsWK1asYOUGo9Ktr0LpR5s2baKjo0NDQ6dNm8YzATY82XxS4xMnTqTR9u/f393dfenSpbxB3fEYDIbPg0GbvI44abm5ud27dw8LC6P6HTp02LFjB68PAAAA4HxMhO5OkgmIdwdlZmZSIX9rn6LVhISE+fPn03Z2dnbLli35m9k//fQT/VtVVRUTE0MnsrfbKysrL1++rFQPK3VbE9FZ4eHhc+fOZbvTp0+ngJ5aVmwhLMWjPHyXNaWqVqveFdvpFItfuXKFtrdu3dqqVSuqbDwqbX2hvf9DJTSkxYsXK7ZZeuqpp1SZgO58KrbGKaxn3yhIS0tzdXUtKChQ5LNkMBgxE9BtU6zDN6jNfv36LVy4kFX44osvvL29xc9YAAAAAJyMidDdSTKB2NjYt+/Kz89XbLHgzp07afAUyI4cOZLqKLaQ2s3NLTExkdVhjh07RpdZXFzMSxgxFtdtTZSbm0uNsJt/CAWptFtUVKTYQljxDWxZU6pqtepdsZ3OH6mysjLq/fTp08aj0tZnu1xOTg6V81tr9u7dq8oEdOdTsTW+ZMkSvhsdHc3e5peNx2AwYiag26ZYh28cP36cGqGEIfOuNm3a7Nu3j58OAAAA4GRMhO5Okglo7w4aMWJEr169Fi1atHz58gkTJlCMyMq//vrrYcOGeXh4dO3adcuWLYrtDebmzZtXO9lGjMVlrXGpqaliIzdv3qSpS09PV2whrPhVV1lTqmq16l2pfjrr/ejRo3aOitfnNRk63dPTk+8WFhaqMgFFbz4VW+OffPIJPzE+Pv61115T5LNkMBgxE9BtU6zDN+gxbdq06dDq9uzZw08HAAAAcDImQncLZQKmv3uhzQQKCgooEGR3m5CFCxeqoueKigqKql1dXakOC3C1X2zlYWWNrSl3P1g4c+YM22XvprNdMcw1aEqWCRicItINpu0clSwToBIq5zcsUXitzQQYcT4VW+P8zhzSo0ePVatWKfJZMhiMmAnotinW4RvsMdV+ygEAVmB6tQcAsAhrrmMmQncLZQKmf49JmwmcPHmSRn7o0CHFFs56e3uz6JkCxLy8PFaHHsJmzZqxW18GDhyYkJBw48YN2qZYlt0pxMNKWWuiqqqq6OjoadOm0UZlZeX48eMHDBjADolhrkFTskzA4BSRbjBt56hkmQDp3bv3rFmzFFusP3z4cFUmIJtPatzf358F4klJSS1atGDRv2w8BoMRMwHdNsU6fIPExcWNHTv22rVriq3f5ORk6pEdAoD7y/RqDwBgEdZcx0yE7o6UCZSVlW3YsOHs2bOqcm0mQObMmePu7h4eHh4cHEyxLIueKVpt165dp06dIiIiaGPlypWsclFR0aBBgzw9PUNCQqj8m2++UaqHlbqtqRw5ciQyMrJjx45eXl4U7x47doyVq0J8WVOyTMDgFJEsmLZnVAaZQEZGBsXfNGO+vr6vv/66KhOQzSc1PmPGjMDAQBqwh4fHmjVreIO64zEYjJgJyNrUzQQonYuPj6fHNDQ0tG3btlFRUeKPqALAfVTjag8AYHHWXMdMhO6OkQmkp6dTFEihcK1u9S4tLc3Ly1O9E0y7J06coHKKOMVyxZZp5Obmyn5hRrc1LQpAS0pK1KXV2dmUyMQpIntGJUMBNIXv7PeUtHTnk0X25eXldCL/QSGR6fEYtKnr6tWrOTk57BeHAMAiDFZ7AACHYM11zETobulMgELzjz766OGHH/b39+/cuXNSUpKqAliT6vMNAACRdrUHAHAs1lzHTITuFsoExO9esA8BunfvHh8fHx0d7evru2HDBqEuWNrLL7+ckpKiLgUAsLHmN+0AAOxnzXXMROhuoUxAET4E6Nu376hRoygT8PHxQRoAAAAAAGDMROhuoUwgOTmZhf7R0dE+AADgpNSrPwAA1AcTobuFMgFy8eLF3/3ud8HBwb6+vuwFIygoKDQ0tFZfFAYAAAAAaGxMhO7WygS4HTt2xMXFsXygc+fOSAYAAAAAAAyYCN0tlAlov3vBPyJgHw4gGQAAcALa1R4AwLFYcx0zEbpbKBMw+D2mHTt2PPbYY/hkAADACRis9gAADsGa65iJ0N0xMgFG9n8MAwCAA6lxtQcAsDhrrmMmQndHygQAAMAJYLUHAEdnzXXMROhecyYwatSodxvE6NGj1UUAAOB0sNoDgKOz5jpGQXv9ZwIAAAAAAOAQ6i0TKCoqeg8AAAAAABwEBfDqmF7OKBMAAAAAAABnhUwAAAAAAKAxQiYAAAAAANAYWSgTsOb/1gYAAPULqz0AODqnWccslAlY85dZAQCgfmG1BwBH5zTrGDIBAABoUFjtAcDROc06hkwAAAAaFFZ7AHB0TrOOIRMAAIAGhdUeAByd06xjFsoEnOa7FwAAYACrPQA4OqdZxyyUCQAAAAAAQINBJgAAAAAA0BghEwAAAAAAaIyQCQAAAAAANEYWygSc5rsXAABgAKs9ADg6p1nHLJQJOM3vMQGApaSkpPwBrGTIkCHqIgtITU1V/+kAAEg4TdSKTAAAnBwFeS4ANVm0aJH6TwcAQMJpolZkAgDg5Fgm0L9//3kAemJjY5EJAECtOE3UikwAAJwcywQo4LsEoIf+NpAJAECtOE3UaqFMwGm+ewEAloJMAIwhEwCA2nKaqNVCmQAAwL2ATACMIRMAgEYLmQAAODlkAmAMmQAANFrIBADAySETAGPIBACg0UImAABOziATeO+99xbYpKam8sKvv/6aFa5evVqoW4Pjx493tuFN9erVi3bXr19P2yUlJb/5zW969OgREBAwcuRI1dE64ldBlixZ8te//vXMmTPqSvdSXl5eVlZWQUGB+kBt1OOE1BYyAQBotCyUCTjNdy8AwFIMMoFf/vKXLjaDBw/mhdHR0azwkUceEerW4OjRo+ysb775hpVQXPvAAw98/PHHtP3WW2/RIQ8Pj6effprGozpaR/wquI4dO6alpanr3TNDhgyhTp9//nn1gdqoxwmpLWQCAFBbThO1WigTcJrfYwIAS7EnE2jSpMn+/fup5LvvvuPxNM8ELly4kJmZ+dVXX2VnZ1+8eFFs4dixY9u3b6dybSaQk5Pz448/njlzJj8/PyEhwcWWb1DJiRMnxKO8qUOHDn355Zepqannzp1jJefPn//hhx+o323btmVkZPCaKuwq+vfv/9lnn7377rsPPvgg7fbt25cd5R0VFRX94x//yMvLo0K6iqysLBo5u2qOVz59+jQNRtWp7jxQgzRR1OOECRPoXGrhknzkJSUlP1Z35MgRdkg1Ibp9idV0Ryi7LmPIBACgtpwmakUmAABOrsZMgP37wgsvUMm4ceNou0ePHjwTSElJEd90j46O3rt3Lzv9b3/7m7u7u4stkZg2bRqrwDOBDh060O6qVavYf1zFTZo0STxK27t27erTpw+v8Itf/IK10KtXr59Pc3GhdnRv+2HDGzt2LNt9/vnnabdly5Zsl3VEhW3btqWNlStXpqWlRUZGis2y9IBXfvbZZ1k6QebOncsOyeYhLCyMFxI68ZJ85BSji+WkdevWYtdsQmR98Wq6IzS4LmPIBACgtpwmauVrJgCAMzPIBF555ZWgoCBPT8///Oc/bm5ulAawYJoygaKiovbt27Ptv/zlLyxe79y589mzZ0+dOsUOUcT5xz/+MTw8nHWkzQSWL18eERFB26GhoXPmzNm4caN4lNrp2LEjbXfr1m3p0qWJiYk8pv/tb3+7YsWKpKSkdevW0QipzquvvsoHz7GrGDVq1IkTJ/bt2xcSEsL6YkdZRy62TyR+/etfr1+/npU888wzW7duZTf2PProo2JlmoSXXnqJHWrevHlBQYHBPNC1d+3alXYp+qerW7hw4SX5yDMzM+fY0Jy3atXKxZZ0iV3ThBj0ZTBCmkaD6zLGMgEAAKenzgMoE1CviAAAzoXFeQaZAAWmixcvdrHF4vTv+++/zzOBTz/91MX2lv/Ro0ep/g8//MAWU4pxt2zZwrbZG8///Oc/2a42E6Dtp59+mrZHjx7Nu+ZH//rXv7ITDxw4wI8yFN2uXr16/vz5FPX27NmT6jzxxBOqOpf0vidA1qxZw46yjsaNG8d2WXcUPX/yySd0dYsWLWL12QWyyjNmzKDtw4cPs0PfffedwTxc0vuegPHIL168OHHiRCrs0qULvzuIT4hxX7IRGl+XMYO/EAAAZ6LOA5AJAIDTM4jzeCZw4sQJdp/Pgw8+WFxczDOBpUuX0oanpyerX1JSwuLLjz76aPny5bTRokULdohHpbXNBN555x3aoN75ISY/P79Tp050yMvLi4JpVj82NlZV7dLdq/D29o6Li6OA+8UXXxR/Comd+N5777FddkVau3bt4pU/+OAD2i4qKmKHKMkxmIdLmkygxpFPmTKFSqjOwYMHeSGfEOO+jEeoxa7LmMFfCACAM1HnAbg7CAAaCd04j2cCtP3rX/+atmfOnHnp7q32lAls2LCBnU6BPpX/+9//Zrtffvnl//7v/7LtQ4cO0aGkpCS2W9tMYNOmTezE77//nh8lK1eudLEF0xQK0+7YsWNdDDMBfk+RijgMsnHjRtp94IEHaNhH76KI/Pz586rKp06dYgOjONtgHmj38ccfp+3JkyezLoxHPmPGDBdb3vKf//yHlTC8a+O+ZCM0vi5juDsIABoJdR5gqW8MAwDcCzV+Y5hlAoWFhRSLU3B5ScgEiouL/f39abtnz57z589nt+DTvxRfUpjr5+fnYvvC8ezZs9m74C61zwSoHXYnva+v73//93+/8sorQ4YMoQosIG7evPmiRYuoa9pwqY9MgLoLCAigkocffviDDz5YunQpjY1/R1kWZxvMA9WcPn067bZr127cuHGLFy82GPmaNWtYm3379n3a5rnnnlN1bdyXbITG12UM3xgGgEYLmQAAODk7MwERzwRoe//+/exXMl1sN69TmJ6dnc2qffHFF+y7rQ888MCrr77K6tQ2E6DtrKys4cOHN23alLXAfgCUAt8RI0awEoqJ6+szAZKRkTF06FC6FtZ469at+dv5sjj7kuE80Ea/fv1oEuhQXFycwcj/53/+h5Vzur8dZNCXwQgNrssYMgEAaLSQCQCAkzPIBOx3+vRpCk+1P+JZUlKyb9++oqIiVbkJ1BR18eOPP4qFR44c0X6TuF5Qdz/88AO1b8/9M5xsHrTqPnL7+xKZuC5kAgDQaFkoE3Ca/60NACylXjIBcGLIBACgtpwmarVQJuA0/0cDAFgKMgEwhkwAAGrLaaJWZAIA4OSQCYAxZAIAUFtOE7UiEwAAJ4dMAIwhEwCA2nKaqBWZAAA4OWQCYAyZAADUltNErRbKBJzmuxcAYCksE4iNjZ0HoIf+NpAJAECtOE3UaqFMAADgXmCZAIAxZAIA0AghEwAAJ5eamroIoCb0d6L+0wEAcHbIBAAAAAAAGiNkAgAAAAAAjZGFMgGn+e4FAAAYwGoPAI7OadYxC2UCTvN7TAAAYACrPQA4OqdZx5AJAABAg8JqDwCOzmnWMWQCAADQoLDaA4Cjc5p1DJkAAAA0KKz2AODonGYds1Am4DTfvQAAAANY7QHA0TnNOmahTAAAAAAAABoMMgEAAAAAgMYImQAAAAAAQGOETAAAAAAAoDGyUCbgNN+9AAAAA1jtAcDROc06ZqFMwGl+jwkAAAxgtQcAR+c065hjZAKbNm365ptv1KV2GDVq1ObNm9Wldqvx9OHDhyclJalL7ThRpri4+OrVq+rShlJaWhoYGHjp0iWl+iVcv359ypQpYWFhQ4YMMX1p91ddJrYBLjkjI2PEiBFsW7c78aFxIPYMuy4PjXWIzxH1sdrT/RtoSDUO4Fe/+tV3332nLrWbwWoPAOAQnGYdc4xMYOjQoTNnzlSX2iExMXHXrl3qUrvVeHrPnj3Xr1+vLrXjRJno6Oh169apSxtKSUmJi4vL+fPnleqXsHz58j59+hw/fvzChQumL+3+qsvENsAlDx48mNJdtq3bnfjQOBB7hl2Xh8Y6xOeI+ljt6f4NNKQaB/Cvf/0rKipKXWo3g9UeAMAhOM065mCZwLlz565fv3758uW0tLSTJ0/yCmVlZRcvXvz5BEU5c+bMzZs3S0tLqT4vLCwsTE1NPXz48J07d4S6P2PtU2spKSmlNuLpdFZ+fj61cOrUKVbCMgHteFQnVlZWHjhwYO/evar3Pqm15OTkjIyMW7du0S5dQmRk5LJly6h9aoHVsXPMly5domqnT59mhTk5OdRdeXm5WLOioiIzMzMrK4t1x7HrpSBGjNv4JVBk89xzz02cOJFG9dNPP9U4J4rdY6aWqV+qrCrn888KdWdP9peg6F2mnRNL03WqOjaB4iVrG1cMB6M7eJVDhw61a9eOP1hid7oPjQHZSOh03j4NiS6tqqqK7WqvSPZsYtvaedOSDVt7rp0PjbH7ftWq54gir696yjPaJ1FtFy5F74oUvSeUblPaauIAdE+hmezcuTOV85JaMVjtAQAcgtOsYxbKBAy+e8EzAYq8p06d2q1bt759+7Zo0WLFihWswpo1a0JCQnh9etFq1qwZxQFU7eOPP2aFkyZN6tKlS1xcXFBQUJ8+fVSv+gy1T9X8/Px69+79+eefi6fn5eVFRUUFBgYOGjTIx8dn27ZtrL7ueMQTc3Nzu3fvHhYW1r9//w4dOuzYsUOxvfaPGTOGOnrssceoWXZHwYIFCzw8PGh40dHRNAzF7jFPnjyZxhATE+Pm5paUlES7FF3RUOlf/nK+f//+gIAAqhwREUGVDx48yMrptbxNmzbUY2ho6LRp03jcxi9h1qxZHWyozocffljjnNg5ZgqbqALNibu7+9KlS3m5OP+KZPZYTd2Z171MOyd29+7dEXfRnxNNxc6dOxVhKnQbNxiMbPAqCxcuHDt2LN/l3ckeGgOykfj7+3/77bdsm8JNaorCPkVyRbJnkyKZNxXZsHXPtfOhMXbfr1r1HNGtr/uUVyRPotouXLpXpGieULKmtM87PgDZKeSFF1548cUX+W6tGKz2AAAOwWnWMQtlAgbETIBeNa9cuULbW7dubdWqFXubikoonti7dy+rP3fu3Mcff1yp/oLK32+jUxISEubPn892RdQ+xW381Y6fXlVVRXH2lClTWHeVlZWXL19m9XXHI57Yr18/CvVYg1988YW3tzdF59nZ2S1btuRhOnsfUdHcKWHnmOkV+tq1a7T95ptvUmC9bNkyxfYOd3Bw8Nq1axXbgMPDw2la2CnTp0+nl3waGzVL17t48WLFNtSnnnpKmwmQGTNmUEjHtmucEzvHTPEKu308LS3N1dW1oKCAlYvzL5s9VlM787LLVGo/sRQAxcbGsneU2SUbNK47GIPBq1CYlZiYyHdZdwYPjQHdkSiSmFh2RbJnEzuXbcjmzWDYsnNr+9Bo3ferVqo/R3Tr6z7lZU+iWi1csitSNE8oWVOqaoowANkpZPXq1XQi3wUAAEfkeJnAe++9xwrpRZ1e2vn9MM888wy9BCq210U/P7+///3vSvUXVHpp3LlzJ51OYcrIkSOpTVYuovb5+9OKcPqxY8eor+Li4p+r2sjGw088fvw4FVKwm3lXmzZt9u3bR6+vbm5uFP/l5+eLDaqiIjvHvHz5cradmpratGlTfkcEzcm8efMU25vTNAx+9wWF3bRbVFSUk5NDG/zGFQqD7M8EZHNi55iXLFnCd+mq2fu4qvmXzR6rqZ152WUqtZxYKqQkit/wzS7ZoHHdwRgMXoWCsE8++YTvsu4MHhoDuiNRJDGxwRXpPpuUmuZNsd2WJhu27NxaPTS67vtVK9WfI7r1dZ/ysidRrRYugytSPaFkTamqKdUTft1TSFJSUocOHX4+BwAAHJDjZQL8G7o3b96kF7yjR4+yXXq5atu2LQXBO3bsePDBBysqKpTqL6gjRozo1avXokWLKG6eMGECHWLlIrF9RTid4rnmzZv/XO8u2XjEEyk0H1rdnj176NDXX389bNgwDw+Prl27btmyhTWiiopqO2YKvFq2bMkPTZkyhc0bZQji+NlQ09PTqdzT05OXFxYW8ritxkxANid2jlmMfePj41977TVWLs6/wezpzrzsMpXaTOxnn33m5eWVl5fHS9glGzSuOxiDwatERESsXr2a7/LuZA+NAd2RKJKY2OCKdJ9NiuG8MQbDlp1r/0Mjc9+vWqn+HJHV1z7lZU+iWi1cBlekekLJmlJVU4QByE5RbB+/+Pj4/HwOAAA4IOfJBKqqqgICAuj19amnnqJXZVbIX88KCgooLGP3Dyi2O7O1L6iK5hWRn84CGvG7rYxsPKoT+QcXWhRt0Eusq6srG1tMTAy7n0cxNWZZJsDeejxz5gwrZ2/c0i6Nljb4XQEUl/C4TYxFdDMB3Tmxf8z8thnSo0ePVatWsXJx/g1mT3fmZZep2D2xu3fvbt26Nc0D22XYJRs0rjsYg8GrDB8+/I033uC7rDuDh8aA7khoOyQkZPv27az8wIEDLraY2OCKdJ9NBvPGyYZtcK6dD42B+37VivAcqbG++JTXfRIptVy4DK5InBmDpmSZgMEp5P3333/ooYf4LgAAOCILZQIG372wJxMgr7766oABA9zd3ffv389K+AvqyZMnqfKhQ4cUW7Di7e2tfUFVNK+I/HQycODAhISEGzduKLavJbAP9GXjEU+Mi4sbO3Ysu4+fQo3k5OTKykp67efvOtOFN2vWjN1Q8eSTT86ePZvdNGxizLJMgPqNjo6mSIU2qPfx48fTRLE6vXv3njVrlmILUCgkZXGbYkcmoOjNif1j9vf3Z1FyUlJSixYttIELozt7qpp85g0u056JpYiqffv2qgEody/ZoHHdwSjywaskJiby/0xAEWZY9tCQf/7zn9r7xRX5SEaPHj158mTF1tS4ceNcbDGxwRUpes8m2byp6A7b4Fx7HhpFfsmKNa6aP0dk9WVPee2TSKnlwmVwReLMGDSlfd6xARicQp599tk5c+b8fE5tGKz2AAAOwWnWMQtlAga/x2RnJnDU9n5kREQEL+EvqIRetOgFPjw8PDg4mCIV7QuqonlFFE8vKioaNGiQp6dnSEhIu3bt2P90JhuPeCK9tMfHx9OJoaGhbdu2jYqKunXrFv0BUSOdOnWi0dLGypUrWWUqDwsLc3Nzi42NVWo/ZlkmQI4cORIZGdmxY0cvLy+KGyjqZeUZGRkUlNNIfH19X3/9dRa3KfZlArpzYueYqc3AwECq4+HhsWbNGl6uikh0Z09VU5x52WXaM7HvvvtukyZN2gjYjyTyS5Y1LhuMbPAqJ06coDr83nreneyhIbQbExPDW+BkI8nOzqZG/Pz8fHx83nrrLRYTK/IrUvSeTYpk3lRkw5ada89Do8gvWbHGVYvPEd36sqe87pOotguX7IpUTyhZU9rnHR+A7BT6S6a+6LEWz7KfwWoPAOAQnGYdc4xMoL6Ulpbm5eXpvi9rJ/aNQ91fgDFGcV5OTo74n63SMCgEpPHcvPub5brqPmYRxabshxFF9KJOkQT70RITtHNS45hZ5FFeXk798t9NMqCdPWO6l6lS4yBl7GlcZM/gx44d+8EHH6hL5Q/N4MGDjf8LWK3bt2/n5+fzOz1Etboie+ZNNmx7zlUk1UxcstKwVy3SrW/wlNc+iUS6rWnZc0V2NiXSPYUei7i4OLGEnD17dsOGDSzdMtYAqz0AwD3lNOtY48oEwCK070E2cgUFBc8//7y6VI6eLOx2msajEV6ylc2ePTszM1Ndqih79uwJCQmhzJZ9ZVkGqz3A/8fencdVVef/A0dREsTQXNgUUJFlmABZ0vmqpZgLpeXydRm1+Wpk2teaXOaho6VZGjU2Y5PDpGVqM5rpNx9hVsNUDstYIvkFQUdZFEREUNy3BEXO7/29nx+f+XA2rge8nHt5Pf/gcc7nfLZz7uXD+33vuRewdw6zjiETgBbw0ksvpaWlyUsBwP5RMtCrVy9vb++HH3743XffVX2LAKs9ANg7h1nHTJQJOMxnLwAAWjNKBvr06ePl5UX5QM+ePZVvEWC1BwB75zDrmIkyAQAAcAw8GWD8/Px03iIAAICWYqJMgP/NAAAABxMYGEg/g4KCUlNT5as/AAC0EBNlAgAA4Bh27drFvr+Vfj766KNRUVFDhgz58MMP8Z4AAICpIBMAAIDmxNKAfv36DR06NDAwcN68efpfJQQAAC3FRJmAw3z2AgCg1aI0oGfPnpQJ6LwJgNUeAOydw6xjJsoEHOb7mAAAWqf9+/eHhIQ0+iYAVnsAsHcOs44hEwAAgGaA/zEMAK2Hw6xjyAQAAMCmsNoDgL1zmHUMmQAAANgUVnsAsHcOs46ZKBNwmM9eAACADqz2AGDvHGYdM1EmAAAAAAAANoNMAAAAAACgNUImAAAAAADQGiETAAAAAABojUyUCTjMZy8AAEAHVnvzOHv27Mcff1xbWys/AAC6HGYdM1Em4DDfxwQAADpUV/uPPvooNTVVVrh79+7/+Z//kRXqGDdu3I4dO9j2zZs3ExISQkJCRo4cKTvUdFVVVf7+/pcuXWK7zdu5Dj5QfHx8cnKy/HDDmahuV1RUXL9+ndcnM2fOXLZsmViiQ3biWvhwNrsyzUj2zGm6lr0ILTu6A1Ndx+wRMgEAALAp1dX+lVde6d+/v1hSW1vr5eW1YcMGsVBfYmLivn372Pa6detiYmJKSkouXLggO9R0lZWVTk5O58+fZ7vN27kOPlBERMTWrVvlhxvOZMCAARs3bpSVR0dHb9mypb76/7lz586TTz753XffiYVaZCeuhQ8tzsFeyJ45TWezp4eqlh3dgamuY/YImQAAANiU6mp//PhxCjHz8vJ4yZdffunq6nrlyhW2S4lBdnZ2Zmam+JL2uXPnbt68efny5bS0tCoL2qVyiuGeffbZ6dOnnz59+urVq5LlxWx2iNy9e7eoqCg9PZ2O8q5KS0up5OjRo3SUF8qwgShGlAXEYufUc2pqak5Ozu3bt1kJmyRNidrSKKyQqampOXToUG5uLq8s1denE8/IyDh16pRQ/d8DsUxA2ac4EzEKZ+UXL14MDw9fu3YtnTiVsENNOXFJ43HRygQaHUvr3Gnc6upqtk0j0vzr6ur4UdllpNnSmfKj5MyZM7du3WLb+nNQPnMk7SbKx1pSe3aJD4pWVyKdZwV/qrNC1d60fil0moABquuYPUImAAAANqW12j/66KMLFizguxMmTKCAjG0XFBT069cvJCRk8ODB3bt3T0lJYeUUEM+cOdPHxycqKurzzz/ncef8+fO7W0RHR7///vuSEJIWFhZGRkb6+/sPGzbMy8tr9+7dkuUOmd69e8fFxQUEBMTExMjiSIbiJw8PD+owODh4zpw5YkDMOqfQauLEiTSZESNG0BD83hKaJJ0I9UyTp9xmzZo1rPzgwYN+fn50NCwsrG/fvocPH+b1Z8+eTSXUbYcOHZKSkli5JJyFVp9i5K3cXrZsmZubG7Wis6BTlpp84lqPi2omYM1YWufu6+vL37WgCJvmQJEu21Vexk2bNgUFBbGjhKJeZ2dnyiUkK+agfOaoNtF6rFWfXfwiqHYlozwdVi57qkvavWn9Uug0AQO01jG7Y6JMwGE+ewEAADq0VvstW7ZQBMZeB71w4YKLi8vevXtpu66ubuDAgcuXL2fVvvjiC09PT/7SOIWhPKARg5558+ZR2Mq2+SHqKjY2NiEhgb0gWltby95z4C/fUjllIEuXLuUNeTkNtGrVKskyn6lTpyozgby8vI4dO/LXX/kryjRJCunYvfUZGRnt27cvLi6moUNDQxcvXszqzJ07l+I29jo31ado8tq1a7S9a9euTp068ZdvxUxA2adYQWtbdndQU05c53FRzQQaHUvSPnetTED1MtKVp4QnMzOTFdLRJ554grdlGzpzkD1zVJuoPtZazy5+EVS7EqmeDn9WiE91Sbs3nV8KrSZggNY6ZndMlAkAAEBrduPGDXd3d/Yy6nvvvefv789ioJKSEor8KN49VM/Dw+PAgQOSJejhL4dLVmQCJ06coK4qKip4OUMDUdZBg1LI+9RTT40aNUpWIT8/nxryG2AoylRmAhRmUfaSmJhYVFT075aWSa5evZrvUiyelJRUUFBAPfDbPCiOp92ysjJWn2bCyinepfLy8nK2K2YCyj7FClrbskygKSeu87ioZgKNjiVpn7tWJqB1GWfMmEFhtGSJrX18fD777DNWwZo5yJ45qk1UH2utZxe/CKpdibROR1I81SXt3nR+KbSaQGuGTAAAAMzi2WefHTduHG1ERka+9tprrJBizbZt245qaP/+/ZIl6BE/ONtoJkBdtWvXjhdyY8eO7d+//8qVK9etWzdt2jSqLKuQnp5OWQrfLS0tVWYCtPHNN9+MHj3azc2tT58+O3fuZEdpkh999BFvO2bMmFdffZU6FGdy69Yt6jArK4vV5yfFyo8fP852xUxA2adYQWtblgk05cR1HhfVTKDRsSTtc9fKBLQuI8W7nTt3rq6uTklJeeihh2pqalgFa+Yge+ZoNVE+1lrPLn4RtLritE5HUjzVJe3edH4ptJpAa4ZMAAAAzGLfvn3t27enmK9NmzYnT55khSz65K+Li3SCHtVMgHUl+9hucXExRbTsjhSyfPlyZYTEPtDM77igmE81E2Ao7qRIi06E9UmT5LfQkIcffnjDhg3s9eMzZ86wQvbSO9vVioalhpmAsk+xgtZ2bGzs5s2bWWETT1znceHD8Q1rxpK0zz0oKGjPnj2sPDs726k+E9C6jHV1dX5+fhSgT506lZ4J7KiVcxCfOY02ER9r1WeXVH8RGu1K0j4dSfFU1+lN65dCpwm0ZsgEAADARCjm8/LyiouLEwtpd9KkSTdu3JAsdzikpqayf4alFfRIGpkAbQwdOnTChAk//fQTbVNUVFFRcerUKYq3jhw5IlkCX09PT9UIKSoqav78+ZIl+IuPj+cBsSSkGYWFhazkhx9+cHZ2ZjfV0CR9fX1ZxJycnNyhQwcWqkZHR9MMaYPOZcqUKUOGDGFttaJhqWEmoOxTrKC1/fTTTy9cuJDdyN70E9d6XPhwfMPKsbTOffz48bNmzZIsc5g8eTLPBHQu4yuvvELbrq6uBw8eZCVWzkF85mg10Xqslc8uqf4iaHUl0jkd2VNdpzetXwqdJtCamSgTcJjPXgAAgA791T4xMZHiFdmNEBRRjRkzxt3dPTg4uHPnzpGRkeyDxVpBj6SdCZSVlQ0bNoy6opSjS5cu3377LRUuWrSIQsbQ0NDAwECKelUjpJycHAq+e/bs6e3tvWLFCmUmQOdFHVKFsLAw2li/fj07SpOkyfj7+1Pnbm5umzZtYuXHjh0LDw/v0aNH165dKf47ceIEr68aDUsNMwHVPsUroLpNkwwJCXFxcRk0aJDU5BPXelz4cOIcrBlL69zz8vJodB8fH8oS33zzTZ4JSNqXkb2bQY8F22WsmYPsmaPaROuxVn128Yug2pWM1unInuqSdm86vxRaTcAA/XXMjpgoE3CY72MCAAAdhlf769ev5+fnN/oPbq1BcWRBQYH4PetVVVWFhYXsJW0tFOZSoMb/xYESNT958iT1w7+9XqqPzKqrq6kt/0IhjoJp9gWXBmj1eU+afuLWPy7WjKXlzp07RUVF/OYWGesvo4E5qDZRfawZ5bOLU+1KycrTsbI3kYEmrcrZs2e3bdvG80wdhtcxs0EmAAAANtXaVnvlq7kAYFr79+8PDQ2dPHlyenq6/JjAYdYxZAIAAGBTrW21f+mll9LS0uSlAGBWlAz07t3b29s7ODj4tddeU32LwGHWMWQCAABgU1jtAcDkKBn42c9+FhYW5uXl5ePjEx8fL3uLwGHWMRNlAg7z2QsAANCB1R4AzI8lA9HR0V4WlA+IbxE4zDpmokwAAABaA/ZnFQDAHvXu3Ts1NVW+rtktZAIAAAAAAA3s378/ODjY39+fon9vb+8+ffpERUWtX79e9WMD9guZAAAAAADAv7E0oFevXgEBAX5+fjNnzszKypJXcgjIBAAAAAAA/j9KA/z9/b29vR3yTQAZE2UCDvPZCwAA0IHVHgBMi/0/gYSEBP03ARxmHTNRJuAw38cEAAA6sNoDgDnhfwy3JIe5pgAAoAOrPQDYO4dZx5AJAACATWG1BwB75zDrGDIBAACwKaz2AGDvHGYdM1Em4DCfvQAAAB1Y7QHA3jnMOmaiTAAAAAAAAGwGmQAAAAAAQGuETAAAAAAAoDVCJgAAAAD35uzZsx9//HFtba38AADYFRNlAg7z2QsAANBhbLXfvn37Kou1a9d+/fXXd+/e5YfGjRu3Y8cOoa61eMOKiorr16/LD6uxvqaqqqoqf3//S5cuSU2Y9r3iA8XHxycnJ8sPW/A64qzEbeWJz5w5c9myZWIJQOthbB0zIRNlAg7zfUwAAKDD2Go/atSoiIiIefPmUQDavXv3IUOG3Llzhx1KTEzct29fw+pWGTBgwMaNG2kjOjp6y5Yt8sNqrK+pqrKy0snJ6fz581ITpn2v+EB0Abdu3So/bMHr8GsiFkpqJ07X/8knn/zuu+/EQoBWwtg6ZkLIBAAAwKaMrfaUCbz88stsu7CwkOLpvXv3st2qqqqbN2/ymkVFRampqTk5Obdv32YlFH9XV1ez7dra2tOnT9fV1Un1Ue/FixfDw8PXrl1L5dQV76e0tDQ9Pf3o0aP8/QfVmjU1NYcOHcrNzeXDKV2+fDktLa2kpETMBPSnfe7cOTp64cIFakgz4dUY1UFZkytXrmRkZJw6dYqX84FYJqDaJ68jZgK8UPXEldcHoPUwto6ZEDIBAACwKWOrvZgJ3Llzx9nZefv27WyXB68Ukk6cONHHx2fEiBGRkZEjR45kFXx9fflL1xTLUixOoTlvuGzZMjc3t4CAgOjo6JkzZ7JqtNG7d++4uDgqj4mJoVCYCpU1Dx486OfnRxF2WFhY3759Dx8+zJqLKFz28PCgJsHBwXPmzOGZgP60qc/p06fTWIMHD3Z1dV2zZg3vUGtQKpk9ezaVUM8dOnRISkpi5XwgnT55HTET4NvKE1e9PgCth7F1zISQCQAAgE0ZW+0pE5g7dy5F8OXl5UuWLOnYsSNtsEM8YM3Ly6Ny/kL71atX2YZ+JiCp3fpC1dgGhekTJkxYunQp2xVr1tbWhoaGLl68mO3S9KKioti7DRw1DwkJWbVqFW3ToalTpyozAdVpU9ROMT37REFGRkb79u2Li4sl3UGpCSUS165do+1du3Z16tSJvVovZgKqfYp1VDMBSXGJtK4PQCthbB0zIRNlAg7z2QsAANBhbLWnTMCpnouLC781SBICVgpP6VBiYmJRUdG/WxrKBCi2piHee+89CuKfeuopGp2VizULCgqoK363DEXVtFtWVsZ2mfz8fCrkn7XNzMxUZgKq06aoffXq1XyXxmWv8esMSk1owqycTpDKWbIkZgKqfYp1rMwEtK4PQCthbB0zIRNlAgAAAFr43UEUBP/nf/4nBab8E8NiwPrNN9+MHj3azc2tT58+O3fuZIUGMoGxY8f2799/5cqV69atmzZtGtVk5WLN9PT0du3a8Sa3bt2inrOysniJZKnj7u7Od0tLS5WZgKQ2bYraP/roI95wzJgxr776qqQ7qPiBYFZ+/PhxqWEmoNqnWMfKTEDr+gCAfUEmAAAAdkD8nMCVK1e6du36wQcfsF0xYGVqamooQm3fvj27VSYoKGjPnj3sUHZ2tjITiI2N3bx5M29eXFzctm1b1pYsX76cR7pizRMnTlBXZ86cYbvs5X++y1AsToX8NvqMjAzVTIARp01RO43LDz388MMbNmyQdAe1JhNQ7VOso5UJiCeuc30AwL4gEwAAADsgZgKS5Qsu/fz8KHSWhIC1tLS0sLCQVfjhhx+cnZ3ZbTnjx4+fNWuWZAm1J0+erMwEnn766YULF/LvwDl16hTVOXLkiGQJ5T09PXmkK9asq6uLjo6eM2cObdTW1k6ZMmXIkCGsmigqKmr+/PmSZfT4+HhlJqA6bYrafX192e09ycnJHTp0YOG+zqDWZAKqfYp1tDIB8cR1rg8A2BdkAgAAYAdkmQDFyt26dWMvafOAlcLoLl269OzZMywsjDbWr1/PKufl5Xl7e/v4+Hh5eb355pvKTIAahoSEuLi4DBo0iDVZtGiRq6traGhoYGAgxfE80pXVPHbsWHh4eI8ePbp27UoB+okTJ1g1UU5ODsXfNCuaw4oVK5SZgOq0Iyz/PMHf358m4ObmtmnTJt6h1qDWZAJafTaaCchOXOv6AIB9MVEm4DCfvQAAAB2NrvYUpm/btu3s2bPyA1aora09efJkYWEhhcJi+Z07d4qKivgNLdaoqqqifqhD+QGFioqKyspKeang9u3bFL5fuXJFfqCectosrK+urqaG/EuQRI0OqkWnz3ti/fUBcDyNrmP2wkSZgMN8HxMAAOjQWe2zsrJmzJgRGhq6f/9++bFWRnyBHwDMRmcdsy/IBAAAwKaUq/3ly5fXrVsXHh7u7e0dEBCANIC89NJLaWlp8lIAMAflOmankAkAAIBNiat9VlbWL3/5y169evn6+tLP4OBgpAEAYH4OE7UiEwAAAJui1Z6/CeDv7+9lERAQgDQAAOyFw0StJsoEHOazFwAAoCMpKalv374sAQAAsEcOE7WaKBMAAIBW4vLly3/6058iIiL4ewK0gfcEAABsDJkAAAC0mKysrGnTpuFzAgAALQKZAAAAtDD+FoG3t7e/vz+SAQAA20AmAAAAZpGVlfXMM8/g/wkAANiGiTIBh/nsBQAA6Gh0tW/K/xgGALCBRtcxe2GiTMBhvo8JAAB0YLUHAHvnMOsYMgEAALAprPYAYO8cZh1DJgAAADaF1R4A7J3DrGPIBAAAwKaw2gOAvXOYdcxEmYDDfPYCAAB0YLUHAHvnMOuYiTIBAAAAAACwGWQCAAAAAACtETIBAAAAAIDWSC8TOHz48Dz7l5iY+C4AAAAAQCtQVlYmj+m16WUCFEY7AQAAAACAnXjvvffkMb22xjOBMWPGJNqn2bNn0/xffPHF9wAAwDTGjx8vLwIAsCvmXMfGjRvX/JkAhdSX7NOePXto/mlpafITAwCAluMw38MNAK2WOdexd999F5nAvyETAAAwIXP+BQUAsJ451zFTZwL9+/fv1avX1q1babuwsDA3N7e4uFheqVndayZw586drfUqKiqopLa2lgrr6urkVSWpurqaqtEQ8gPNRxxCazhr6nBnz57lJ0iV5YcBAGzCnH9BAQCsZ851zNSZQPfu3am3DRs20PbIkSNp+7nnnpNXalb3mglcv36d6ru6ugYHB+/bt49KnJ2dqaRNmzZubm4PP/zw66+/zgPo8+fP0yGq2aCLZiUOoTWcNXW4rKwsOkonSNWosvwwAIBNOMz/5gSAVsuc61jLZwIUX/74449ff/317t27c3JyxEM8EygsLHzsscdoe9q0af/617/y8/PFas3IWCYwaNAgXsIygf/+7/+ePn36gw8+SNuPP/44e4vgzp07mZmZubm5rGZVVVVJScmNGzd4W6pQW1tLGxcuXLh16xYvJ9TDmTNnaDheIlbm5eIQYpQvdqhVh6FRxCkx7OIjEwAAAABwJC2fCfTv399JQFE1BaPsEM8EQkJCxDoPPfRQwz6aDfvuIPbqvjW0MgEWNJeVlXXu3Jl2v/zyS0kIuykuf+SRR9i5tGnTZsGCBfyov7//6NGjaeOBBx74+OOPWZ9//etfu3XrxuoPHz68vLycVx4zZgxttG/ffvv27eIQOh0q67Dtbdu2sQtOU5o8ebKYdSATAAAAAHA8LZ8J/PrXv05KSkpOTt6yZUtAQAA1f+WVV9ghngm8/fbbffr0oW1KGxYtWrR8+fKGfTSPF154gYaYP3++/Ky06WcCZMqUKbS7bNkySQi7N2/eTBuvv/56QUHBV199tXPnTn6UrFq16pNPPnFzc3N1dT179mxeXh716evrS+nEkiVLqEJ8fDyv/PLLL7/11lusW3EInQ6VdWj78OHD7dq1+/nPf56dnf3OO+9QIctPGGQCAAAAAI6n5TOB06dPf/DBB0uXLn3xxRcjIiKo+ZNPPskO2fJzAgbSAMmKTGDy5MlOltxGEsLujIwM2ujcufPjjz/+29/+9uTJk/yop6cnazhx4kTa3bNnz+9//3vaoGqS5ePIDzzwgIuLS2VlJRV269aN3XdEQTwF+uIQOh0q69D2H/7wB9oICwuj1GX8+PG0HRISwhpKyAQAAAAAHFELZwJFRUU9e/akJl27dqU0gIX+FFizozbLBIylAVJjmQCF+B4eHrT79ddfSw3D9LS0tAULFgwfPpxKAgMD+VEvLy/Wj1Ym4GLBMgF+f/8DFrIhtDpU1qFtNsrgwYOX1HvjjTdYQwmZAAC0NHN+0g4AwHrmXMdaOBNYv369kyUNoNCWdidNmuSkkQk88cQTtD1r1iyxebMwnAZI2pnA888/P2XKlE6dOtH2qFGj2Cv3POw+cODApk2bci169Ojh5uZGFdhRJ8vNPNu3b+c381Ad2d1Bo0ePFqN5STcTUHaorMPvDgoJCaGnaV5e3ubNm9955x1+UsgEAKBlmfPb9wAArGfOdayFM4Ft27ZRfYpBV65cuXTpUtpw0sgE5s6dS9tdunSZPHkyhbYNemmCpqQBknYmQD8pDYiIiFi9enVNTQ07xMPulJQUd3d3S5TuRBvs6rOj/v7+8fHxtOHi4kLhOGu4ZcsWSpZY/WHDhpWVlVmfCSg7VNZh25988omnpycbhSb/1ltvsc4lZAIA0NLM+RcUAMB65lzHWjgToOBy7NixLPqkuFnnPYG8vLyBAwdSvEslcXFxDXoxqolpgFSfCTz44IM05wMHDsgPa7t79255eXlpaakyT5AsX/r5008/ifXr6uqo/rVr18RC6yk71FJZWUkDse8nJTk5OXRq7OtQkQkAQEsx519QAADrmXMda+FMgDl27Fh2dra89D5rehpAbt++/U499sFfw2Qv85tEWVkZP0ErcwkAgGZnzr+gAADWM+c6ZopMwPaaJQ1oXpRUpKSkWP+vDAAAWg9zftIOAMB65lzH7ksmMHv27D0mxv59mKnSAAAAAAAAG7svmYD5IQ0AAAAAgFaumTOBxMRE6u7FF19MMzHcgQMAAAAA0MyZgIHuAAAAAADA9gyE7ibKBMz52QsAAGheWO0BwN6Zcx0zELqbKBMw5/cxAQBA88JqDwD2zpzrmIHQHZkAAADYFFZ7ALB35lzHDITuyAQAAMCmsNoDgL0z5zpmIHRHJgAAADaltdpv37591apVxcXFvKS6unr16tW/+93vhFqNqKqq8vf3v3TpEtsdN27cjh07aOPmzZsJCQkhISEjR44Uy+1IRUXF9evX5aXWscH55uTkjB07lm1rDSd7dOyFNdNuyqNjErLfkabTehrYhjWj/+pXv/rHP/4hL7WO1jrWsgyE7ibKBMz52QsAAGheWqv9qFGj2rdvv2DBAl5Cf8ippGPHjkKtRlRWVtJfrvPnz7PdxMRE9mXT69ati4mJKSkpuXDhglhuR6Kjo7ds2SIvtY4Nznf48OGUy7FtreFkj469sGbaTXl0TEL2O9J0Wk8D27Bm9L///e+RkZHyUutorWMty0DobqJMAAAAWjPKBJ5++ukePXrcuXOHlYwePXrcuHFiJlBTU3Po0KHc3Nzbt2/zQnL58uW0tDQKYmRBW1VV1c2bNymyefbZZ6dPn3769OmrV6/yclbn7t27RUVF6enpdJR3SEpLS6nw6NGjVEEs586dO8c6p6GpsqycTYkGopLa2trs7OzMzEzxZWNW7cqVKxkZGadOneLljOxML168GB4evnbtWpok65NRTrK6uvp0Q1Qinq+k6JzRmY/q/EVHjhzp0qULDcR2ZcNpPTqqdKZBzfkQNCU6tbq6OrarPCMalC4a22bOnDlz69Yttq28bkpa01a2VX10lNV02OCs9eej/B2RtJvQ70tqampOTo74/FH+HsmeBlq9iZRnJKn9Qql2Jatmzeh0JXv16kXlvMTeGQjdkQkAAIApUCbwyiuvREdHf/HFF5IlgunUqdP27dt5JnDw4EE/P7+IiIiwsLC+ffsePnyYldMfcg8PD2oYHBw8Z84cMWgbMGDAxo0b58+f392C6rz//vu8nDYKCwsjIyP9/f2HDRvm5eW1e/du1nDmzJm9e/eOi4sLCAiIiYmRRVcMzYQiJ6owePBgV1fXNWvW8HJq7uPjExUV9fnnnxcUFPTr1y8kJISq0RxSUlJ4tdmzZ9OJ0GQ6dOiQlJTEe1ae6bJly9zc3GgsOgXqnFVTneT3338fVi8oKIiuxt69e/n5qnbOyrXmozV/0fLlyydNmsR3xeF0Hh1VWtMgvr6+3333HdumcJO6orBP0jijTZs20enzthQCOjs7U1QtaVw3Ga1pq7ZVPjqq1XTc77NudD7K3xHVJhRGT5w4kZ7bI0aMoF8cfh+R6u+R+DRQ7U1G9YwkxS+UVleyalaO/vzzz7/wwgt8194ZCN2RCQAAgCmwTIBioPHjx9Pu22+//cwzz3z55ZcsE6itrQ0NDV28eDGrPHfuXPp7X1dXR6EJBamrVq2SLK/wTZ06VZkJ0Ma8efMonmOFvJzqx8bGJiQksJcJaYgrV66wCvx1TTo0YcKEpUuX8rYcRR4Ur7DbxzMyMtq3b88+5EDlNCUWbdAQAwcOpECZNaEkx9PTk71USdUoeLp27Rpt79q1i9IePg3VM1Xef9LoJCkAGjRoUHV1Nb8OWp1LGvPRmb+IYqzExES+y4fTf3RUqU6DHVKNibXOiHqg6DwzM5OVU4UnnniCt2UbWtdNZ9pabWWPjlY1Lff7rK2Zj+x3RLVJXl4e/T7yJwB790Dr90iMxVV7E2mdkdTwF0rS7kpWzcrRP/jgA2rId+2dgdAdmQAAAJgCywQosKYwiKIuCgtSU1N5JlBQUEB/kvitFxRz025ZWVl+fj5t8LtWKAayPhM4ceIEVa6oqODlHIUge/fupb+AFA4+9dRTNDd5DUvksXr1ar5LsSB7KZfK+fsDJSUlNATlCYfqeXh4HDhwgFXjf2EptqNq5eXlkvaZKjMB/UlSYWBgILvnm18Hrc4ljfnozF9EEdhHH33Ed/lw+o+OKtVpsF3VmFjnjGbMmEEBpWSJMn18fD777DNWR/+6SbrT1more3S0qmm532dtzXxkvyOqTWgCLi4ulPUVFRXxmlq/R2IsrtqbSOeMxF8oSbsrWTUrR09OTu7evTvftXcGQncTZQLm/OwFAAA0L63VnmUCtDFp0qRp06YFBATQ32+eCaSnp7dr145XvnXrFv2FysrKonJ3d3deXlpayoM2qbFMgAJcsU/R2LFj+/fvv3LlynXr1tFkqL68hiXyEMPfMWPGvPrqq6x869atrJCGaNu27aiG9u/fL6vGTuf48eOS9pkqMwGdSX766addu3YtLCxku/w6aHUuacxHZ/6isLCwDz74gO+Kw+k8OqpUp8F2VWNinTOi4K9z587V1dUpKSkPPfRQTU0Nq6Nz3RidaWu1lT06WtW03O+ztmY+st8RrSbffPPN6NGj3dzc+vTps3PnTsnyJFf9PRJjca3eOJ0zEi+OpN2VrJqVo+/atcvLy4vvWk9rHWtZBkJ3E2UC5vw+JgAAaF5aq/2o+kzgb3/7G/31ee2112ibZwLsdcczZ86wyuxVW9qlgIk2+C0BFJSIsaZ+JsAiPPHDvkxxcTGFv+xWDclyE7wycJEskQe/bYY8/PDDGzZsYOU8ImFD8Nd3RVrBn9aZxsbGbt68mTfXmeT333//4IMP0qXglfl10Opc0piPzvxF8fHxr7/+Ot/lw+k/OqpUp8F2g4KC9uzZw7azs7OdLDGxzhlRJunn50fR6tSpU+kJwCroXDdOa9o6bcVHR6ealvt61lbOR/wdabQJJRgUVbdv357qaP0e8adBo71JVj8zdbrSygR0mpA//elPjzzyCN+1ntY61rIMhO7IBAAAwKa0VnueCdy9e/fIkSPs3gyeCdRZbpSnSIU2amtrp0yZMmTIENYwKipq/vz5kiU6oZCUBW3skH4mQBtDhw6dMGHCTz/9RNsUK7A7HE6dOkWd0BwkS1Do6empDFwkS+Th6+vLouTk5OQOHTooAxfJcg/9pEmTbty4IVnOIjU1leYvqyYGf1pn+vTTTy9cuJDfPq41SYqounXrJk5AEs5Xq3NJez5a8xclJibyfyYgNXw5VuvRoXxPebO4pD0NMn78+FmzZkmWriZPnsxiYp0zIvSMol1XV9eDBw+yEq3rJqM6bZ224qOjU61FzlpnPiLxd0SrCYX7/I2mH374wdnZmf2eqv4e8aeBVm8inTMSL45OV1qZgE4T8swzzyxatIjvWk9rHWtZBkJ3ZAIAAGBTWqs9zwREPBMgx44dCw8P79GjR9euXSlooJCXlefk5FBE3rNnT29v7xUrVvBYU7IiEygrKxs2bJi7u3tQUFCXLl2+/fZbVoGCAwqkQkNDAwMDKSJUBi6SJfKgbv39/amOm5vbpk2beLkYkVBUNGbMGBoiODi4c+fOkZGR7BsSdYI/1TOlwCskJMTFxWXQoEGsmuok6W93mzZtPATp6en8fLU6l7TnozV/0cmTJ6kCv7FeHE7r0aHt2NhY3gOnNQ3J8nFV6sTHx8fLy+vNN99kMbGkfUZS/av7YWFhvETSuG4yWtPWait7dLSqtdRZa81HJPsdUW1Cp0m/JnRZqHPaWL9+Paus+nskPg1Ue5PROiPZL5RWV1qZgE4TeibTWPRY81Znz57dtm0bu8L6tNaxlmUgdEcmAAAANtXE1Z4CU/ZdkCL6i05hBP/mn3vFPoIp+0qcqqqqwsJC5evfHIs8qquraWj+FexaKErOz8/X/z+1MqpnKtPoJLVY07mo0flPmjTpz3/+s7zUQvXRGT58eKP/Albpzp07RUVF/E4P0T2dkTXXTXXaknVtJY1qLXjWqvPRp9qEdinxo/Jb9f+cgVP9PeJUe1Oy5oys7Eqk2oQei7i4OLGE7N+/n3KGuXPnsk8paGniOnafGAjdTZQJmPOzFwAA0LwcZrWXvQbZyhUXFz/33HPyUm0USPE7nVqP1nnWprVw4cJDhw7JSy3JgL+/v7e39yOPPPLhhx+qvkVgznXMQOhuokwAAADAjrz00ktpaWnyUgCwf5QM9OvXz8fHJzg4OCAgYM6cOfpvEZiEgdAdmQAAAAAAQAM8GfDy8vLz86OUQOctApMwELojEwAAAJvyAgCwW717905NTZWva+ZgIHRHJgAAAAAA0MD+/fvDwsKGDh3Kc4A+ffrMnz+f/yNkEzIQupsoEzDnZy8AAKB5YbUHAJNjaUBMTAwlAN7e3o899hj//26MOdcxA6G7iTIBc34fEwAANC+s9gBgZpQG9OnThxIAnTcBzLmOGQjdkQkAAIBNYbUHANNi/09gwoQJsjcBZMy5jhkI3ZEJAACATWG1BwBzwv8YbsBAd01hzmsKAADNC6s9ANg7c65jBkJ3E2UC5vzsBQAANC+s9gBg78y5jhkI3U2UCQAAAAAAgDEGQndkAgAAAAAAds9A6I5MAAAAAADA7hkI3ZEJAAAAAADYPQOhu4kyAXN+9gIAAJoXVnsAsHfmXMcMhO4mygTM+X1MAADQvLDaA4C9M+c6ZiB0RyYAAAA2hdUeAOydOdcxA6E7MgEAALApw6v93bt3P//885deemnWrFmrVq3617/+Ja9hnZs3byYkJISEhIwcOVJ+zN5UVVX5+/tfunSJtseNG7djxw5WLp6jWA4AzcLwOnZfGQjdkQkAAIBNGVvtr1279uijj3bv3p0yAfrz9PLLL9N2cnKyvJ4V1q1bFxMTU1JScuHCBfkxe1NZWUl/qc+fP0/biYmJ+/btY+XiOYrlANAsjK1j95uB0N1EmYA5P3sBAADNy9hqP3v27D59+pw9e5aXXL58+ciRI2y7pqbm0KFDubm5t2/f5hXOnTt38+bNK1euZGRknDp1ihVSZPzss89Onz799OnTV69eZYW1tbXZ2dmZmZnXr1+XNadR0tLSqqqq2O6lS5fS09PLy8tZnfz8fGpVXV3NW5HS0lKqc/To0bt374rlnPVdqZ6XZDl3mhUF+mImQJOkbiXFOfJyhmZVVFREQ9NRXtjonAFAZGwdu98MhO4mygQAAABU3bhxw8XFZfPmzfIDFgcPHvTz84uIiAgLC+vbt+/hw4dZOZVQ/kAlAwYM6NChQ1JSEhXOnz+/u0V0dPT7779PJQUFBf369QsJCRk8eDCVp6Sk8OYzZ8708fGJior6/PPPaXfWrFnUW2xsLE0mOTmZdsPDw/39/eknD7WpSe/evePi4gICAmJiYi5evMjKRVZ2pXVeFLJ7eHjQ/IODg+fMmcMzATrNjRs3Sopz5OWksLAwMjKSBho2bJiXl9fu3bsl6+YMAOZnIHRHJgAAAGaXlZVFf494KCyqra0NDQ1dvHgx2507dy4F7nV1dZIl4Kao99q1a7S9a9euTp06sRe8582bRwE0q081Bw4cuHz5crb7xRdfeHp6slicmlN6wMNi2qUomXIS2n7jjTdcXV3Xrl1L29XV1YGBgTxL4S+001gTJkxYunQp2xVZ05XWeVG3NKtVq1ZJlslPnTpVmQlIDc+Rl1N9yj0SEhLYdaAhrly5Ilk3ZwAwPwOhOzIBAAAwu/T0dPp7VFZWJj9geUWfDlVVVbHd4uJiXpMCbv4n7PLly1TObsURo+SSkhIqz8jIOFTPw8PjwIEDrPmaNWtYNba7bt06tk3zadu2Lb+TZ8aMGUuWLGHbFG3v3buXxqVg/amnnho1ahQrF1nTldZ55efn0wa/iykzM9P6TODEiRNUuaKigpVz1swZAMzPQOiOTAAAAMyuqKiI/h7985//lB+wRNLt2rXju7du3aKaWVlZkiXg3rp1q1h+/PhxqWGUTDkABeKjGtq/f7+suWyX4u+OHTvyQwkJCS+//DLbHjt2bP/+/VeuXEmx/rRp0ygK59U4a7rSOi8qd3d35+WlpaXWZwJ0smKfnDVzBgDzMxC6mygTMOdnLwAAoHkZW+0DAwN5aCtir3OfOXOG7bKXzNmuNZkAi6T5x3ZFBjKB4uJiyivY/Uhk+fLlqlG1NV1pnRedAm3we5YouLc+E2AnSz9ZOWPlnAFAZGwdu98MhO4mygTM+X1MAADQvIyt9rt3727fvv3bb7/NbuKnyJX62bFjR11dXXR0NEW9tFFbWztlypQhQ4awJtZkAiQuLm7SpEnsrn3qJDU1lfqRNZftaoXvp06dolHYNxrRWJ6enqpRtTVd6ZxXVFTU/PnzJcs3C8XHx1ufCZChQ4dOmDDhp59+kizXsKKiwso5A4DI2Dp2vxkI3ZEJAACATTW62l++fHnbtm3iF4YyycnJ/fr1a9OmjZeXl4uLy5gxY4qLi6n82LFj4eHhPXr06Nq1K0XPJ06cYPWtzAQoGqau3N3dg4ODO3fuHBkZyb6y00AmQBYtWuTq6hoaGhoYGEjxumpUbWVXWueVk5Pj6+vbs2dPb2/vFStW3FMmUFZWNmzYMDrZoKCgLl26fPvtt5J1cwYAUaPrWIswELojEwAAAJvSWe2zsrIohKWQlN2pr6q8vLygoIC9qi2igL6yslJWaL3r16/n5+ezf9bbRFVVVYWFheyNhaZTPS/KVShPYN/8YwDlWnQNxX8y0LxzBnB4OutYCzIQuiMTAAAAm1Ku9hSYfvjhh4MHD/bx8fHz8zPnDbgAAJxyHTMDA6G7iTIBLP0AAK2BuNqzNwHYP//q2bNnQEAA/hYAgPmZc6UyELqbKBMAAIBWgr8JEB4eHhER4WWBNAAAoCkMhO7IBAAAwKZSU1P79u1LoX/Pnj1ZDgAAYF/k65o5GAjdkQkAAICtnTlz5vnnn/f39+d/VocOHRoWFqbzQWEAANBnIHRHJgAAAC3mk08++cUvfsGSgZiYGCQDAACGGQjdTZQJ4PZQAIDWQLna87cIvL29e/fujWQAAExOuY6ZgYHQ3USZgDm/jwkAAJqXzmr/ySefjBkzRv//CQAAtDiddawFGQjdkQkAAIBNNbraa/2PYQAAk2h0HWsRBkJ3ZAIAAGBTWO0BwN6Zcx0zELojEwAAAJvCag8A9s6c65iB0N1EmYA5P3sBAADNC6s9ANg7c65jBkJ3E2UCAAAAAABgjIHQHZkAAAAAAIDdMxC6IxMAAAAAALB7BkJ3ZAIAAAAAAHbPQOhuokzAnJ+9AACA5oXVHgDsnTnXMQOhu4kyAXN+HxMAADQvrPYAYO/MuY4ZCN0dIRPYvn37Kgua8Lfffis/3NwqKiquX78uL7XOuHHjduzYIS81n6qqKn9//0uXLrFdPu2bN28mJCSEhISMHDlSLL9XTbmGAGDvDK/2AAAmYc51zEDo7giZwKhRoyIiIubNm/erX/2qc+fOTz75ZF1dnbxS84mOjt6yZYu81DqJiYn79u2Tl5pPZWUlPfTnz59nu3za69ati4mJKSkpuXDhglh+r5pyDQHA3hle7QEATMKc65iB0N1BMoGXX36ZbR86dIjm/M9//pO2z507d/PmzcuXL6elpVVVVVFJbW1tdnZ2Zmam+II0q3blypWMjIxTp07xclJTU0Md5ubm3r59m5VcvHgxPDx87dq1p0+fZn2S0tLS9PT0o0eP3r17l5VUV1efbohKJMtr7TQWqyOp9a8zGUlj/iLW/NKlSzSf8vJyVpifn09N2AQ45dCEXSsK9GWZAJs2Rf/PPvvs9OnT6XSuXr3Ky3lzOv2ioiIamirwQuXFsfIaKqn2r3oi+peRo95SU1NzcnJ4WzpxfqHoatNAPKtUHV21UNJ+pJQjKkskjZMCcBiGV3sAAJMw5zpmIHQ3USZg+LMXYiZAEZizs/Onn35K2xERETNnzvTx8YmKivr8888LCgr69esXEhIyePDg7t27p6SksCZUbfbs2X379h0wYECHDh2SkpJY+cGDB/38/OhoWFgYHT18+DAVLlu2zM3NLSAgIDo6mjqnEvrZu3fvuLg4KoyJiaEwlwq///77sHpBQUF0Gffu3UvlNMTGjRt1+teaDNGav4iaz5o1i5rHxsa6uLgkJyfTLoXd/v7+9JNH7apDUzjr4eFB5xUcHDxnzhwxE2DTnj9/fncLqvP+++/zclansLAwMjKSBho2bJiXl9fu3bsljYtj5TWUUe1f9UQk3cvIUAQ/ceJEem6MGDGCumU3OxFfX9/vvvuObVNwTxeBsiNJY3TVQknjkVKOqCxhzbVOCsBhGF7tAQBMwpzrmIHQ3USZgGFiJvDhhx+2adPm2LFjkiUcpGiMhZV1dXUDBw5cvnw5q/bFF194enqyyJiqURx27do12t61a1enTp0oRKOMIjQ0dPHixaz+3LlzKZ1gLw/L7mzhLwZTqwkTJixdupQfYijMHTRoEHulmYfOWv2rTkbSnb+ImlMkfePGDdp+4403XF1d165dK1neowgMDNy8ebOkMTQV0rVatWqVZBlr6tSpykyANubNm0dJAisUy6kJ5R4JCQlsttTblStXJO2Lc6/XULV/1RNhj5HWZeTy8vI6duzILyB7i0PSyARUR1ctlLQfKeWIyhLWj9ZJAQAAAOgwELo7SCbg4eHRt2/fHj16UGj1xz/+kZVTOLhmzRq2XVJSQueSkZFxqB41OXDgAKvGz5HCPqpWXl5eUFBAG/zeleLiYtotKyuTFFEsRWl79+6lHiiMfuqpp2gy/BChQgrB2V31khA6a/WvOhlJd/4iar5u3Tq2nZ6e3rZtW36vy4wZM5YsWSJpDJ2WlkY/+a0smZmZ95QJnDhxgupXVFTwQ4zWxbmnayhp9K96Iuwx0rqMHEX5Li4uiYmJRUVFYrlqJqA6umqhpP1IKUdUlki6JwUAAACgw0Do7iCZwLRp0yjkOn78eE1NDS+ncHDr1q1smyIzCotHNbR//35ZtVu3btEpUz8URrdr1453xcqzsrIkRRQ7duzY/v37r1y5kkJwmgYFx/zQp59+2rVr18LCQl7CQ2et/lUnI+nOXyQ2p2ie8iJ+KCEhgb1zojr0+vXr3d3deWFpaanTvWQCND2xT07r4lh/DRnV/lVPhD1GWpdR9M0334wePdrNza1Pnz47d+5khaqZgOroqoWsXOuRUo6oLNE5KQAAAAAdBkJ3B8kE+N1BIjEcZKGt7IVhRjVqZK/4njlzhpXn5+fz3djYWHabjWR5yZbCPnYXClm+fDmPYr///vsHH3yQ4kK2y8heRFf2rzoZSXf+ImsyAdWhf/jhB/rJb9CnaTvdSybApkc/+SFJ9+JYeQ051f5VT4Ttal1GJUodKf1o3749m0BQUNCePXvYoezsbCdLJqA6umohL9d5pGQjykp0TgoAAABAh4HQ3USZgOHPXliTCZC4uLhJkyaxe+jr6upSU1Nra2tl1XjUSBWio6Mp6qUNqjZlypQhQ4awOk8//fTChQvZ3eGnTp2i+keOHKFtauXp6cmiWIrnunXrJo7O8NBZq3/VybBdrfmLrMkEtIaOioqaP3++ZAlM4+Pjne4lEyBDhw6dMGHCTz/9RNsU0VZUVGhdHMm6ayij7F/rRCTdy8hQvM7fq6EnnrOzM7szavz48bNmzZIsF2Hy5MlO9Z8YVo6uVShpPFLKEY8ePaqcg85JATgMw6s9AIBJmHMdMxC6mygTMPx9TFZmAhSojRkzxt3dPTg4uHPnzpGRkewrGrWixmPHjoWHh/fo0aNr164UnFFwz+rQYx8SEuLi4jJo0CDaXbRokaura2hoaGBgIEXSLIqlS9emTRsPQXp6utQwdFbtX2sykvb8RdZkApLG0Dk5Ob6+vj179vT29l6xYsW9ZgJlZWXDhg2j6QUFBXXp0oX9izfViyNZdw1lVPtXPRFJ9zIyNAHqhE42LCyMNtavX8/K8/Ly6PR9fHy8vLzefPNNngmojq5aKGk8UsoRlSWsudZJATgMw6s9AIBJmHMdMxC621MmQDHZtm3bzp49Kz9wL65fv56fn8//e26jKKqrrKyUlzZUVVVVWFiofIXeGtb0L7rX+etQDk0BK4Wh7DtwjKHHqKCgQPxSIysvjpXVlP1LaidiDRrr5MmTNCilCmL5nTt3ioqK+K07ItXRVQsltUdKOaKyhDN2UgB2odHVHgDA5My5jhkI3e0jE/j6668ff/zx4OBg5WdkAQDAvuis9gAAdsGc65iB0N3UmcD58+cXLlzYt29fLy+vgIAApAEAAA5AudoDANgXc65jBkJ3E2UC4mcvvv7666FDh3p7e1MO4Ofnh3cDAAAchjk/aQcAYD1zrmMGQncTZQJSwzcBmICAAKQBAAAAAAD6DITuJsoEUlNTg4KCKPqPjY3lmQAAADgY+eoPAADNwUDobqJMQLJ8DcuHH3746KOPDhw4cMKECSEhIfQ3w9vbW/nF/AAAAAAAwBkI3c2VCXBZWVnz5s0LCgoaO3ZsbGwskgEAAAAAAB0GQncTZQLKz17wtwh8fX179eqVnJwsqwAAAHZHudoDANgXc65jBkJ3E2UCOt/HxN4iCA0NxUeHAQDsnc5qDwBgF8y5jhkI3e0jE2Ca5X8MAwBAy2p0tQcAMDlzrmMGQnd7ygQAAMABYLUHAHtnznXMQOiOTAAAAGwKqz0A2DtzrmMGQncTZQLm/OwFAAA0L6z2AGDvzLmOGQjdG88EyMqVK2mXfmIb29jGNraxjW1sYxvb2Dbh9ujRo52aPRMQu7tz587WehUVFVRSW1tLhXV1dawC2+X1m+6TTz7ZsWMHbVRXV9Oge/bskddoVuIoWiPycq0KorNnz/IrRvXlhwEAAAAAmoMydG/UvWUC169fpxJXV9fg4OB9+/ZRibOzM5W88MILrMKgQYNo9+DBg7xJE1H/HTt2pI3z589TzzSuvEazEkfRGpGXa1UQZWVlUQW6YlST6ssPAwAAAAA0B2Xo3igjmQCF+7yEZQLt27c/ceKEpMgE6urqzpw5Q614fcnyxkJtbS1tXLhwQXaIo/IrV65IQiZArTIzM3Nzc3mdqqqqkpKSGzdu8BKx51u3bvFySW0mqtMQRxEDfbFDXkc1E6BRxCkxjz32GDIBAAAAALh/lKF7o5ohEyDu7u6//OUvpYaZwF//+tdu3bo5WQwfPry8vFyqD6/9/f3HjBnDUojt27ezrvhnL9544422FjNnzlR9T4Di8kceeYT13KZNmwULFog9s3ukHnjggY8//ph1qJyJ1jSU7wkoO9R6T2Dbtm3du3dnU5o8ebKYdSATAADgzPlJOwAA65lzHVOG7o1qhkyAQuQVK1ZQ+Jubm8szgby8PDrk6+v75ZdfLlmyhArj4+Ol+jCavPzyy2+99ZYYSbPvYzp06BAVenl5JScnv/DCC7StzAQ2b95M26+//npBQcFXX321c+dOsedVq1Z98sknbm5urq6uZ8+eVZ2J1jSUmYCyQ9VM4PDhw+3atfv5z3+enZ39zjvvUDnLTxhkAgAAnDm/fQ8AwHrmXMeUoXujmicTuHbtWrdu3SjC5pkAXSDa+O1vfytZPkZMdVxcXO7cucOiZ6rMPmRM0TNF2Kwrdk1pOKqwaNEiPpwyE8jIyKDtzp07P/744zTEyZMneQVPT0/W28SJE2l3z549qjOprKxUnYYyE1B2qJoJ/OEPf6DtsLCwKVOmjB8/nrZDQkJYQwmZAACAwJx/QQEArGfOdUwZujeqeTIB2li7di0d8vDwcFLLBFwseCbA3wd4wIJts2v6xz/+kSr85je/kbQzAZKWlrZgwYLhw4dTYWBgIK/g5eXFKmhlAmwmLBNQTkOZCSg7VM0E2CiDBw9eUu+NN95gDSVkAgAAAnP+BQUAsJ451zFl6N6oZssEqqur/fz8nCwoE8jNzZXdkzN69GhJEdArM4GcnBwWf+vcHXTgwIFNmzblWvTo0cPNza2uro5VcLLczLN9+3Z+M4/qTLSmocwElB2qZgLs7qCQkJAffvghLy9v8+bN77zzDutcQiYAACAw519QAADrmXMdU4bujWq2TIBs2bKFhc7sE8O027VrV1YybNiwsrIySTcT4J+9eO2119gnhmfNmqX6ieGUlBR3d3fWM22wGbIK/v7+8fHxtOHi4kLhOOtQOROtaSgzAWWHqpmAZPnXB56enmyUTp06vfXWW6xcQiYAACAw5yftAACsZ851TBm6N8pIJvDggw9SMnDgwAGhrrq6urry8vJr167JDzSGmrBvEdVy9+5d6rm0tLSmpoaViHH5hQsXfvrpJ7G+4Zkwyg61VFZW0kDs+0kly1scdK3oiiETAAAAAID7Rxm6N+reMoHbt2+/U499Ttc8ZK/Qm0RZWRm/YlbmEgAAAAAA90oZujfq3jIBM6MsJSUlhf3nYwAAAACAVsVA6O44mQAAAAAAQKtlIHQ3USZgzs9eAABA88JqDwD2zpzrmIHQ3USZgDm/jwkAAJoXVnsAsHfmXMcMhO7IBAAAwKaw2gOAvTPnOmYgdEcmAAAANoXVHgDsnTnXMQOhOzIBAACwKaz2AGDvzLmOGQjdTZQJmPOzFwAA0Lyw2gOAvTPnOmYgdDdRJmDY9u3bV61aJf5P4k2bNmVmZgpVbOHmzZsJCQkhISEjR46UHzNk3LhxO3bskJfaSsuOrlRVVeXv73/p0iW2a7Pp8YHi4+OTk5PlhxvOxGazAgAAAJAxELo7QiYwatQomueyZct4SXR09DvvvCNUsYV169bFxMSUlJRcuHBBfsyQxMTEFvxHaS07ulJlZSU9yufPn2e7NpseHygiImLr1q3yww1nMmDAgI0bNzY8DgAAAGALBkJ3B8kEfvGLX3Ts2PHs2bOshGcCFD5WV1ezwtra2tOnT9fV1fGGNTU1hw4dys3NvX37Niu5fPnyxYsXeQVy5syZW7du0UZpaWl6evrRo0fv3r0rVmAo+n/22WenT59OQ1y9epUVajUpKipKTU3Nycnh4xKqQ+VUn3pgJVVVVTdv3mTbWl3JKM/o3Llz1AmdV1paGnXIClV7k9UUR9dqImLNr1y5kpGRcerUKfGQclaSbn0Rmw/lV7JMQJye8nqyzulBobY0c1bI3Otk+EAsE1D2Kc5ElgnQUy47OzszM/P69eu8EAAAAOB+MBC6O0gm8Morrzz++OPz5s1jJTwT8PX1/e6771ghRdh0OhRZst2DBw/6+flReBcWFta3b9/Dhw9LltuKgoKCWAVCga+zszPFoDNnzuzdu3dcXFxAQEBMTIwsWyDz58/vbkFDv//++1Si2oTC6IkTJ/r4+IwYMSIyMpLfR1RYWEi7/v7+w4YN8/Ly2r17tySElapdKameEe1ScxoxKirq888/l7R7k9UUg1qtJiJqPnv2bBqXGnbo0CEpKYmVq85Kp76Icg8PDw+6pMHBwXPmzBEzATY9retJnVNWRrMdPHiwq6vrmjVrWLmByfDroNWneKHE7YKCgn79+oWEhFB9emKkpKSwcgAAAID7wUDobqJMwPBnL1gmQEGei4tLSUmJZEUmUFtbGxoaunjxYnZo7ty5FP7W1dVdu3bNzc2Nf8aAKjzxxBOsLSuh0HPChAlLly5luyLKQyha5buqTfLy8jp27MhfQmbvHtC4sbGxCQkJ7OV2mhv7zAMPK1W7ktE6I4pfKRgVY3et3mQ1xaBWq4mImlMsTheQtnft2tWpUyeqrDUrrfpCf/83Fs1n1apVkuUSTZ06VZkJqF5PydI5hfXsQwUZGRnt27cvLi42NhkxE1D2KVYQt6nbgQMHLl++nJV/8cUXnp6e4nssAK2Z4dUeAMAkzLmOGQjdTZQJGP4+JpYJ0MbEiRNnzJghWZEJFBQU0Da/W4ZCOtotKyujbeqBYkTJElv7+Ph89tlnkiWw27t3L10KCkyfeuopGpE1FMkyAdUmNAdKVxITE4uKinjNEydO0OgVFRW8hBHDSmVXMlpnRPErf/Wa0epNVlMMcLWaiKg5f6rQRabRy8vLtWalVZ/tMvn5+VTI76uh9EyZCaheT8nS+erVq/kuPR+SkpKMTUbMBJR9ihXEbcpIqRNKGA7V8/DwOHDgAG8O0JoZXu0BAEzCnOuYgdDdoTIBCvUoLjx8+HCjmUB6enq7du14D7du3aJDWVlZtE0hb+fOnaurq1NSUh566KGamhoqHDt2bP/+/VeuXLlu3bpp06ZRwMfbcrJMQKvJN998M3r0aDc3tz59+uzcuVOyvMAsTobjYaVWVyKtM4pQfM5VqzdZTTHA1WoiEpuz0Y8fP641K636vKZkOSN3d3e+W1paqswEJLXrKVk6/+ijj3jbMWPGvPrqq8YmI2YCyj7FCuI2PaZt27Yd1dD+/ft5c4DWzPBqDwBgEuZcxwyE7g6VCZCEhAQKW3kmEBQUtGfPHnYoOzubZwLsZfgzZ86wQ+zlZ7ZbV1fn5+dHMeXUqVPZBw+Ki4spqmO3jpDly5erhsJiJtBoE0owKKpu37491WExruyDrVJ9WNloV4zWGcnie53etDIBnSYi1WBaa1Za9dkuQ7tUyO9WotjaSS0TYMTrKVk653fmkIcffnjDhg3GJiNmAso+xQriNntMZe9yAABjeLUHADAJc65jBkJ3R8sETp8+3aFDh06dOrFMYPz48bNmzZIskeLkyZOd6jMBCvcpW6DAnTZqa2unTJkyZMgQ3iH1Rruurq4HDx6k3VOnTlHDI0eOSJbw1NPTUzUUFjMBrSYUIBYWFrI6P/zwg7OzM7v7ZejQoRMmTPjpp59om2JZdqcQCyu1upLROiNZfK/Tm1YmoNNEpBpMa81Kqz7b5aKioubPny9ZHr74+HhlJqB1PalzX19fFognJyfTU4IifmOTETMBZZ9iBdl2XFzcpEmTbty4IVkendTUVBqUHQJo5Qyv9gAAJmHOdcxA6G6iTKDRz15QEL9t2zb+VaGcmAmQRYsW0bRZJpCXl+ft7e3j4+Pl5fXmm2/yTIAcO3YsPDy8R48eXbt2pQDxxIkTvAf2anRYWBgvoT4pMQgNDQ0MDKTYVDUUlt0dpNqEzrFLly49e/akzmlj/fr1rHJZWdmwYcPc3d2DgoKo/Ntvv5WEsFK1KyXVM5LF95J2b1qZgE4TkVYwrTornfqinJwcCr7pctGDuGLFCmUmoHU9qXN6OPz9/WnCbm5umzZtYuUGJiNmAqp9amUClM6NGTOGHtPg4ODOnTtHRkaK31sK0Jo1utoDAJicOdcxA6G7iTIBHVlZWRSEUSRq4E7rO3fuFBUV8ZtbZChcq6yslJeqqaqqKiwsvKeXdVWb0O7Jkyep/Jbl3xSIKEspKChQ/YYZ1a5UWXNG1vfGGWgismZWqih6pvBd/AfSMqrXk0X21dXV1JZ/oRBneDJEq08t169fz8/P5/8aGQAAAOA+MRC6mzoToMj4ww8/fPTRR319fXv16pWcnCyvAaBG+U4IAAAAgGMzELqbNBNgbwL069dvzJgx0dHR3t7e27Ztk1cC0PDSSy+lpaXJSwEAAAAcl4HQ3VyZAH8TYMCAAePGjaNMwMvLC2kAAAAAAIA+A6G7iTKBpKQkFvpHR0d7AQCAgzLnJ+0AAKxnznXMQOhuokzg97///cWLF3/zm98EBgZ6e3uzPxgBAQHBwcEGPigMAADmZM5v3wMAsJ451zEDobu5MgG+nZKSEhcXx/KBXr16IRkAAHAY5vwLCgBgPXOuYwZCd5NmAgx/i4C9OYBkAADAAShXewAA+2LOdcxA6G7qTIBLSUkZMWIE3hkAAHAAOqs9AIBdMOc6ZiB0N1Em0OhnL7T+xzAAANiRRld7AACTM+c6ZiB0N1EmAAAAAAAAxhgI3RvPBMaNG/cuAAAAAACYGAXtzZ8JAAAAAACAXWi2TKCsrOw9AAAAAACwExTAy2N6bXqZgI2Z87MXAADQvLDaA4C9c5h1zESZgDm/jwkAAJoXVnsAsHcOs44hEwAAAJvCag8A9s5h1jFkAgAAYFNY7QHA3jnMOoZMAAAAbAqrPQDYO4dZx0yUCTjMZy8AAEAHVnsAsHcOs46ZKBMAAAAAAACbQSYAAAAAANAaIRMAAAAAAGiNkAkAAAAAALRGJsoEHOazFwAAoAOrPQDYO4dZx0yUCTjM9zEBAIAOrPYAYO8cZh1DJgAAADaF1R4A7J3DrGPIBAAAwKaw2gOAvXOYdQyZAAC0Imlpaa9BSxs5cqS8qIWkp6fLnyIAAFZwmKjVRJmAw3z2AgBMi4I/J4B6K1eulD9FAACs4DBRq4kyAQCA+41lAoMHD14CrdugQYOQCQAAIBMAgFaEZQIUCF6C1o2eA8gEAACQCQBAK4JMABhkAgAAEjIBAGhVkAkAg0wAAEAyVSbgMJ+9AADTQiYADDIBAGgKh4laTZQJOMz3MQGAaSETAAaZAAA0hcNErcgEAKAV0ckE3nvvvWUNJSUlsUP9+/fv1avX1q1bZdvWM9ZKhzjb1atX/+Uvfzlz5oy80v1UWFiYm5tbXFwsP3Avmv2yWA+ZAAA0hcNErcgEAKAV0ckEfv7znzs1FB0dzQ51796ddjds2EDbFLk+8MADGzdubNC4McZa6VDOtkePHhkZGfJ6983IkSNp0Oeee05+4F40+2WxHjIBAGgKh4lakQkAQCvSaCYQGxubVG/Hjh3skJgJ5Ofn/+tf/+IvwPPd4uLiL7/8srCwkAovXryYmpqanp5+/vx5WTXZbnl5+VdffZWTk8PKCTX58ccfv/766927d4vlMmy2gwcP/vTTT999992HHnqIdgcMGMCO8v7LysrEWeXm5u7Zs+fgwYNiVzqTIRcuXDh06BDNJy8vj3pghdThY489RiNOmzaN2lIPl7RnXllZ+a+Gjh07xg7JLovqWGI11RlqnZc+ZAIA0BQOE7WaKBNwmM9eAIBpNZoJTJo0SX6gYSYgbhMWgk+dOtXd3Z02Hnjggb/85S//8R//4WQxcODAqqoqZSu2+8wzz7DmZPHixexQ//79WQkzaNAg1dt+ZLN97rnnaLdjx45sl/VPhZ07d6aN9evXZ2RkhIeHi92y9IBXVp1MWlqa+OZDdHR0ZmYmlYeEhPBCQg0vac+cYnSxnDz44IPi0OyyaI3Fq6nOUOe89CETAICmcJiola+fAACthU4mQMF073orVqxghxrNBNzc3H7zm988/PDDtN2mTZvY2NiFCxc6OzvT7pYtW5St2K6Li8uLL77IbrNp164du+f+17/+dVJSUnJyMjUMCAigQ6+88gprJWKzHTdu3MmTJw8cOBAUFES7wcHB7CjrnwwfPvy//uu/tm7dykpmzJixa9cuNuLjjz8uVlZOpqysrFu3brT72GOP/fGPf4yJiaHtXr16nT179u233+7Tpw/tUvS/aNGi5cuXX9Ke+aFDhxZZLFiwoFOnTlROF0ocmi6Lzlg6Mzx9+rTOeeljmQAAQKsizwMoE5CvjgAAjovFfzqZAMXxzvUotGWHGs0EKO6nbQph2VLL7n5hr5EvW7ZM2Yrtzps3j7aPHj3KWv3jH/+gXYpuP/jgg6VLl1LUGxERQeVPPvkkayVSfk6AbNq0iR1l/U+ePJnt/uUvf3GyRM8fffTRxx9/vHLlSlb/+PHjvLJyMlTTyXJBWLUff/yRHaJY/5La5wT0Z37x4sXp06dTIaVY/O4gfln0x9Kaof556dN5JgAAOCp5HoBMAABaFZ34ryl3B/35z3+mbYpHnYRbdAYOHEi7ixYtUrZiu6xVWVkZi1//9re/FRUV9ezZk7a7du1KwTSrNmjQINZKxGbr6ekZFxdHAfcLL7yQnp7Oj7KG7733Httds2YNG0Jm3759vLJyMqyVu7s766SyspId+vDDDy8pMoFGZ56QkEAlVOfw4cO8kF8W/bH0Z6jEzkufzjMBAMBRyfMA3B0EAK2QavzXlEyA7bJMgN8EP2DAACfdTIDtnj59ms2KQtv169c7WYJpCoXpEE3GSTcTUJ3tJcVwn3zyiZPlMwxHjhw5Xo8icvaBZq3JbNu2jW0fPXqUDv3zn/9ku1999RXtPvHEE7Q9a9YsNoT+zOfNm+dkyVv+93//l5UwfGj9sbRmqH9e+nB3EAC0QvI8AJ8YBoBWpdFPDHfq1CmwXkxMDDtks0yABcTt2rVbuXLl0qVLacOpOTIBis79/Pyo5NFHH/3zn/+8Zs2aX/7ylz/72c+UlcXJVFRU+Pr60nZERARNhn0UgX6yOHvu3Lm026VLl8mTJ69atUpn5ps2bWJ90gX5pcWzzz4rG1p/LK0Z6p+XPnxiGACawmGiVhNlAg7zfUwAYFqNZgIi9pU4l2yYCVDgO3bsWLZLMXFzvSdAcnJyRo0a1aZNG9Y5TZK/nK+5HMyGAAB/uElEQVQ1Gdo9ePAg+7ZQJ8tN/CNHjszLy2OtaGPgwIEPPPAAHYqLi9OZ+e9+9ztWzql+d5DOWDoz1DkvfcgEAKApHCZqRSYAAK2ITiZgHseOHcvOzpaXNofKysoff/yR+rfm/hmuvLycwnTVLzOVafrMrR9LZOC8kAkAQFM4TNSKTAAAWhG7yATABpAJAEBTOEzUikwAAFoRZALAIBMAgKZwmKjVRJmAw3z2AgBMC5kAMMgEAKApHCZqNVEmAABwvyETAAaZAACAhEwAAFoVZALAIBMAAJCQCQBAq8IygUGDBi2B1o2eA8gEAACQCQBAK8IyAQAGmQAAtHImygQc5rMXAGBa6enpK6GlJSQkyItaCD0f5E8RAAArOEzUaqJMwGG+jwkAAHRgtQcAe+cw6xgyAQAAsCms9gBg7xxmHUMmAAAANoXVHgDsncOsY8gEAADAprDaA4C9c5h1zESZgMN89gIAAHRgtQcAe+cw65iJMgEAAAAAALAZZAIAAAAAAK0RMgEAAAAAgNYImQAAAAAAQGtkokzAYT57AQAAOrDaA4C9c5h1zESZgMN8HxMAAOjAag8A9s5h1jFkAgAAYFNY7QHA3jnMOoZMAAAAbAqrPQDYO4dZx5AJAACATWG1BwB75zDrmIkyAZ3PXmzfvv3bb7+Vl1ph3LhxO3bskJdardHm8fHxycnJ8lIrGmqpqKi4fv26vNQQcQ73Op97rd+oZu+wZTXlYbLBpcjJyRk7dizb1hquqqrK39//0qVLtP2rX/3qH//4h7wGwH2js9oDANgFh1nHTJQJ6Bg1atTLL78sL7VCYmLivn375KVWa7R5RETE1q1b5aVWNNQSHR29ZcsWeakhAwYM2LhxI9u+1/nca/1GNXuHLaspD5MNLsXw4cMpeWbbWsNVVlY6OTmdP3+etv/+979HRkbKawAAAICjs7NM4Ny5czdv3rxy5UpGRsapU6d4hcuXL1+8ePHfDSTpzJkzt27dqqqqovq8sLS0ND09/ejRo3fv3hXq/hvrn3pLS0urshCbU6uioiLq4fTp06yEZQLK+cga1tbWZmdnZ2Zmyl5Ipt5SU1NzcnJu375Nu3QK4eHha9eupf6pB1an0TlLGv2LmQCfDzvBS5cuUZ/l5eXsaH5+PrWtrq7mbcX5a11zSW1u1Mnphli3Yoc1NTWHDh3Kzc1lZ83ojKJ6djKs+YULF+iBo1nJyvkDKmn0pjO6crZWPkzWXApJrX9Jdz6q8xcdOXKkS5cu/NGUDccuRUlJiZgJ1NXV9erVi+bPqwEAAEBrYGeZAEXes2fP7tu3L4W5HTp0SEpKYhU2bdoUFBTE61NA5uzsTLGOGA3PnDmzd+/ecXFxAQEBMTExssyBof6pmo+PT1RU1Oeffy42LywsjIyM9Pf3HzZsmJeX1+7du1l91fmIDQsKCvr16xcSEjJ48ODu3bunpKRIlqRi4sSJNNCIESOo25EjR1LhsmXL3NzcaHrR0dE0Dcm6Oav2LzWcA9+mCc+aNYsmHBsb6+LikpycTLsU19J50U8eMopttc5RdW7ff/99WD16RCjW3Lt3r9jhwYMH/fz8qE+qQH0ePnxYfxSts5Oh5tOnT6eZUDVXV9c1a9bwcvEB1epNa3TV2Vr5MDV6KbT615mP1vxFy5cvnzRpEt8Vh6NY38PDg6YdHBw8Z84cngmQ559//oUXXuCtAAAAoDWwv0yA4uZr167R9q5duzp16sRegqUSCs4yMzNZ/cWLFz/xxBNSwzDodP0L+dRkwoQJS5cuZbsi6p/CLB5w8+Z1dXUUOickJLDhamtrr1y5wuqrzkdsOHDgQArOWIdffPGFp6cnBdx5eXkdO3bkkffVq1fZhuy2k0bnrNW/pJ0JUKh648YN2n7jjTcoaF67dq1keQE7MDBw8+bNsvqsieo5Njo3io8HDRrEXpxmHdJ1Cw0NpUeHVZg7dy4F6HQKksYoOmcnQ80pbmZ3vWdkZLRv3764uJiV8wdUpzfV0XVme68Pk/JSSJZnkVb/qvPRmb+IEpLExES+y4ejHuhSrFq1SrJciqlTp4qZwAcffECD8lYAAADQGpgoE9D57IWYCbz33nus8PLlyxTK8FtcZsyYQbGUZAmwfHx8PvvsM6lhREvRz969e6k5BUNPPfUU9cnKRdQ/fzlZEpqfOHGCxqqoqPh3VQut+fCGJSUlVEix6aF6Hh4eBw4coNjRxcWFIraioiKxQ1mI2eictfqXtDOBdevWscL09PS2bdvy20joAi5ZskRWnzVRPUf9uVEhpRYXLlxgu6zDgoICas7vqKFgnXbLysokjVF0zk6Gmq9evZrv0mVkr6OLD6hOb6qj68z2nh4m1UshWV7g1+pfdT468xdRuP/RRx/xXT5cfn4+Nef3FFHa7CRkAsnJyd27d+etAO4rndUeAMAuOMw6ZqJMQOf7mMRMgH9C99atWxTKHD9+nO1SKNa5c2eKa1NSUh566KGamhqpYUQ7duzY/v37r1y5kkLhadOm0SFWLhL7l4TmFH61a9fu3/Xqac1HbEjR9qiG9u/fT4e++eab0aNHu7m59enTZ+fOnawTWYjZ6Jx1+tfKBPiEKRbs2LFjfU9SQkIC/1i2LBNQPUeduX366addu3Yt/H/s3Xt8F/Wd73GuEcK9AZJwSQKEXJoaAgGhj4BiWkErKOAiLdoulFJwqQvCPmSxTUulTfvQs1gpuypWOGehArs8QGg9rMrJpWAgy4N7IQkQCAESjECQiwQImfM5+Z5Mh/nNTH4Zw4/5/Xg9/+Ax853vfOc7o48vn/fvRkmJ3qIGlOxhfIxqtMLCQs3mKg53ZyKnG8vfcePG/exnP1Pt+rAOo1le3WG2/v9nsnsUWn0Ssxvfcj4O8zdKSUl555139F3j5Tp27Ki3l5WVGZPAhg0boqKi9KPAXeWw2gNAUAiZdSx0kkBdXV1MTIyU1N/97nfnzJmjGvUyqLS0VKoo9XELrf6z1L5VtWafBFTZZPwqqmI3H9OJ+hsXviSxSPnYtm1bNbdhw4bpH9HxZ84O49/VJOAwtx07dnTu3FnKVrWrqAHVWytnz55VjepVarVreRWHuzOR0/WPzYgHH3zw7bffVu36sA6jWV7dYbZ+/mdyeBRawxtNluNbzsdh/kZPPPHEL3/5S31Xv5yMIKfrn3yTWbUwJIHf//73Dz30kH4WcFc5rPYAEBRCZh0LnSQgfvrTn44aNap9+/a7d+9WLXoZdOrUKel86NAhrb4kioyM9K2qNfskIEaPHj1p0qQvv/xSq/9agvqkkN18jCdmZmZOnjxZfTRf4kpOTk5tba1UdfrrxJ9++mnr1q3Vxzaefvrp+fPnqw/i+zlny/G1u5wE7OYm1W337t2Nz1BRA8r00tPTZ82aJRsyySlTpsh/L9XB8iqa/d2ZyOm9e/dWVfKmTZvatWvnW1Jr9qNZXt1htv78Z3J+FFr9BOzGt5yPZj9/o+zsbP0fE9Du/E85ZMiQefPmafX5UwKDMQl8//vfX7BggX4WcFc5rPYAEBRCZh0LqSSgXvVMSUnRW4xlkBQ6EhKSk5Pj4+OlHrKsqh2SQHl5+aOPPtqxY8eEhIRu3bqpf+nMbj7GEyUzjBs3Tk5MTEzs2rVrWlrazZs3pfqXQfr06SOzlY233npLdZb2pKSksLCwjIwMzb85W46v3eUkoNnM7Y033mjZsmUXA/XblPqAR44cSU1N7dmzZ0REhNTBUi47X8Xu7kzk9Dlz5sTGxspkwsPD33vvPb3d+B/UbjS7q9vN1p//TI0+Cofx7eZjN3+jkydPSgf9+wDGy+3du1fykvxfFx0d/fOf/1xPAjKITECO6oMAd5XDag8AQSFk1jEPJYEAfPeiqqqqpKTE92VU/1VXVxcXF/v+YEujpDIrKipSP26jyDSkaJP5SKln6Gjm55x9xw8AP+fmSyrayspKc6u9Ru9Olc41NTVSW+s/xGSn0dFM/Jmt60eh+Te+UaPznzx58r/+67+aW+tJ0S+PSP3ylW7dunWZmZnGFsCFc+fOrVmzRhZJ8wEfAVjtAeCuCpl1zENJAHDN9Nr/fa60tPRHP/qRudXe/Pnz9+3bZ24Fmq6goCAhIUGyqPruOwDA40gCCAUvvvhibm6uuRVAwEkY6Nu3b3R09IMPPvjGG2/48xYBAOBeIQkAAJqThIH+/ftHRUVJHujTpw9vEQCAZ5EEAADNTA8DSkxMDG8RAIAHeSgJ6H9nAABCTHx8vPyZkJCQk5MTMt+0A3DfCpl1zENJIGR+jwkA7nMbNmzo1auXlP7y58MPPzxkyJBRo0atWLFCvSfAag8g2IXMOkYSAAA0JxUDBg4cOHr06Pj4+Dlz5pi+J8BqDyDYhcw6RhIAADQbiQF9+vSRJGB8E8CE1R5AsAuZdYwkAABoHgUFBUlJSb5vApiw2gMIdiGzjnkoCYTMdy8A4D7EvzEM4P4RMuuYh5IAAAAAgIAhCQAAAAD3I5IAAAAAcD8iCQAAAAD3Iw8lgZD57gUAwAGrPYBgFzLrmIeSQMj8HhMAwAGrPYBgFzLrGEkAABBQrPYAgl3IrGMkAQBAQLHaAwh2IbOOkQQAAAFludr/4Q9/yMnJMTV+8MEH//Ef/2FqdDBhwoR169ap7WvXrs2YMSMpKWnMmDGmQwHQ6OUqKiquXLlibg1FX+VOG32MwL1iuY4FIw8lgZD57gUAwIHlav/Tn/508ODBxpba2tqoqKi3337b2OgsOzt7+/btanvZsmVDhw49ceLE+fPnTYcCoNHLpaenr1q1ytwair7KnTb6GIF7xXIdC0YeSgIAgPvWsWPHWrRoceDAAb3lT3/6U/v27S9duqR2JRjs2bNn586dxheYP/vss2vXrlVXV+fm5lbVk11pl+r/hz/84XPPPXf69OkvvvhCWvRD4vbt20ePHs3Ly5Oj+lBlZWXScvjwYTmqN5pYzkHIaDk5OXv37r1586ZqMV7Ot8OFCxdSU1OXLl0qE5Ceqo/l4OoG5SHk5+efOnVKNdbU1Jy+k7SoQ43ehRpQno88MelsatefpGr0f0rKjRs39u3bt3//fv05WN6p7yTt7sj4GH0H1xwnYzl5ACYkAQCAJzz88MMvvfSSvjtp0iQp5dV2cXHxwIEDk5KSRo4c2aNHj61bt6r2QYMGTZs2rVevXkOGDNm4cePw4cPfffddaZ83b16Peunp6f/2b/8mLfqhkpKStLS02NjYRx99NCoq6oMPPpBGGaRfv36ZmZlxcXFDhw6V+lWNb2Q5B6lln3nmGZnAY489JsOqTyJphstZdnjllVfCw8PlWjI9ubTd4Fr9Dc6cOXPAgAEyYLt27ZYvXy6NO3bsSGmQkJAgCWrbtm2af3chA8pTlQ5yIQlar732mt5ufJJaE6ckdu/eHRMTI0dlVnL04MGDmtWdWk7S7o70x2g5uMNk7CYPwIQkAADwhFWrVknRpl7xPX/+fFhYmCoH6+rqRowYkZWVpbpt3rw5MjJSvVQshaBUe3rJqxeOYs6cObNmzVLb+iEZatiwYTNmzFCvRtfW1qr3HE43vDkg7ZJAFi1apJ+o2M3hwIEDHTp00F+3Vu8/aIaZ2HUwfmbGbnCt/gYlP1y+fFm2N2zY0KlTJ9OL/VJYZ2RkqFfQG70LrX5AqZsvXrwo2/n5+W3bti0tLVXtxifZ1CnJk0xOTn755ZdV/9mzZ0uikEE0n08HNTpJ4x2px+gwuOVkHCYPwIQkAADwhKtXr3bs2FG9SP/mm2/Gxsaqau/EiRMtWrSQsnVfgy5duuzatUurLwT1V7U1P5LA8ePHZaiKigq9XZELSeqQiy5ZsuSpp54aO3asqYPdHKSulcSSnZ199OhRY399JnYdjPWx3eBa/Q3KrFS36upq6XbmzJmGMTSZbXx8vPoihObHXWj1A/7qV7/Sd2Ua6nV005Ns6pSKi4tlQ//8j6QL2S0vL9d8koDzJE13pB6jw+CWk3GYPAATDyWBkPnuBQDAgcNq/8Mf/nDChAmykZaW9otf/EI1SknXqlWrsXcqKCjQ6gvB1atX66c3mgRkqDZt2uiNuvHjxw8ePHjx4sXLli2bOnWqdDZ1cJjDRx999Pjjj4eHh/fv33/9+vWqv3Emlh2M9bHD4MYbvH79uhS4x44dU7tr166NiIgoKSlRu5ofd6HVD/iHP/xB3x03btzPfvYz1W58kk2dUl5envHBqvbCwkLNJwk4TNL3jtRjdBjccjIOkweai8M6Flw8lARC5veYAAAOHFb77du3t23b9pNPPmnZsuXJkydVY1lZmem1cF1Tk4AayvhNWa3+NWYpHNUnTERWVpZvDe0wB+XGjRtS2srk1TjGmVh2GDZs2MqVK9Uhh8EtK12t/oP1nTt3lpJX7+nPXWj1A+ofmxEPPvig+nUm05Ns6pTUmy1nz55V7UVFRfqu8U4dJul7R9qd7+RYDm45GYfJA83FYR0LLiQBAEBAOa/2CQkJUVFRmZmZxkbZnTx58tWrV7X6j5fk5OTU1tZqPvVro0lANkaPHj1p0qQvv/xStqUkraioOHXqlBSOhw4d0up/wigyMtKyhracgxSd+mvYn376aevWrdUv1eiXs+vw9NNPz58/X//Qv+Xgmk2lK5Vx9+7djTcu/LwLGbB3796qSt60aVO7du18S2qlSVOSDunp6fLAZUO6TZkyZdSoUaqP8U7tJml5R1rDY3QY3HIymv3kgebivI4FEZIAACCgnFf77OxsqedMRaHU6+PGjevYsWNiYmLXrl3T0tLUF4tdJIHy8vJHH31UhpLI0a1bt48//lgaFyxY0L59++Tk5Pj4+Hnz5lnW0JZzkOJeBunTp09KSopsvPXWW6qzfjm7DtKelJQUFhaWkZFhN7hmU+m+8cYbLVu27GKQl5en+XcXMqA8mdjYWOkTHh7+3nvv6e0unrmx+D5y5EhqamrPnj0jIiKkcJfiXvUx3anlJO3uSH+MdoPbTcZu8kBzcV7HgghJAAAQUK5X+ytXrhQVFanfvfmKqquri4uLjb8nU1VVVVJS0ugrx75zkFNOnjwp50olauj4N4120PkO3lSN3oUqnWtqaqS21n/IyEFTpyQleGVlpbn1To1O0o4/gxs1dfLAuXPn1qxZI+uD+YAP1+uY13goCYTMdy8AAA5Y7e8h39f+ARgVFBQkJyc/++yz6o0pOyGzjnkoCQAAgLvqxRdfzM3NNbcCMJAw0K9fv+jo6MTExF/84hf+vEUQvEgCAAAAwN9IGPj617+ekpISFRXVq1evJ554wvktguBFEgAAAADuoMJAenp6VD3JAyH5FgFJAAAQUOqvVQAIRv369cvJyTGva0HLQ0kgZL57AQBwwGoPwPsKCgoSExNjY2Ol+o+Oju7fv/+QIUPeeust9Z5AyKxjHkoCIfN7TAAAB6z2ADxOxYC+ffvGxcXFxMRMmzatsLDQ2CFk1jGSAAAgoFjtAXiZxIDY2Njo6GjjmwAmIbOOkQQAAAHFag/As9S/JzBjxgzTmwAmIbOOkQQAAAHFag/Am/g3hu+lkPnuBQDAAas9gGAXMuuYh5IAAAAAgIAhCQAAAAD3I5IAAAAAcD8iCQAAAAD3Iw8lgZD57gUAwAGrPYBgFzLrmIeSQMj8HhMAwAGrPYBgFzLrGEkAABBQrPYAgl3IrGMkAQBAQLlb7d9///0l9ZYuXfrhhx/evn1bPzRhwoR169YZ+vpLP7GiouLKlSvmw1b87+mO873c7at7x1e5U+dnCDQLd+uYB5EEAAAB5W61Hzt27KBBg+bMmTNt2rQePXqMGjXq1q1b6lB2dvb27dvv7O6X4cOHv/vuu7KRnp6+atUq82Er/vd0x/le7vbVveOr3KnzMwSahbt1zIM8lARC5rsXAAAH7lZ7SQJz585V2yUlJS1atNi2bZvaraqqunbtmt7z6NGjOTk5e/fuvXnzpmqprKysqalR27W1tadPn66rq9MaksCFCxdSU1OXLl0q7TKUPk5ZWVleXt7hw4f19x8se964cWPfvn379+/XL+dLLrpnz56dO3eaXuf2narxXkxHLa9uOfJnn30mg1y6dCk/P//UqVOqUZ7A6Tvpz8T3Tk3UgOfPn8/NzZXOpvbq6mppdzElxfcBWt6p7yTt7sj4DH0H1xwno9nMHzBxt455kIeSAAAAdoxJ4NatW61bt37//ffVrv7SvtSIzzzzTK9evR577LG0tLQxY8aoDr179/7kk0/UttSLkiKkeNVPfOWVV8LDw+Pi4tLT06dNm6a6yUa/fv0yMzOlfejQoVKbSqNvz927d8fExAwaNCglJWXAgAEHDx5UpxsVFxcPHDgwKSlp5MiRPXr02Lp1q2Y/VTUly6O+V7ccWch8Zs6cKfOR0dq1a7d8+XJp3LFjR0qDhIQEPUpZ3qmJDPjcc89JB7lQ+/btX3vtNb1dTpd5DhkyZOPGjVoTp6TZPEDfO7WcpN0d6f8/WA7uMBnNfv5AqCIJAACCgCSB2bNnSwV/5syZhQsXdujQQTbUIb3yO3DggLTrrwd/8cUXasM5CWhWn0WRbmpDivJJkyYtWrRI7Rp71tbWJicnv/zyy2pXpicFsXq3QSe7I0aMyMrKUrubN2+OjIyUGdpNVU3J7qjx6nYja/WVruSHy5cvy/aGDRs6depkerFfCuuMjAz1CrrdnRrJgFI3X7x4Ubbz8/Pbtm1bWlqq2qVo1sNDU6fk8ABN/0UanaTxjtQzdBjccjKa4/yBUEUSAAAEAUkCLRqEhYXpHw3SDAW91ItyKDs7++jRo38701USkKJQLvHmm28uWbLkqaeekqurdmPP4uJiGUr/+IoUx7JbXl6udpUTJ05Io1TP+xp06dJl165ddlNVU7I7ary63chafaUrM1fd5E6lm56ahNxRfHz8+fPn1a7dnRrJgL/61a/0XZmGeh1d2vX3B7SmT8nhAZr+izhP0nRH6hk6DG45Gc1x/kCoIgkAAIKA/ukgqe3+7u/+TipF/RvDekEvPvroo8cffzw8PLx///7r169XjS6SwPjx4wcPHrx48eJly5ZNnTpVeqp2Y8+8vLw2bdrop1y/fl1GLiws1Fu0+lfQW7VqNfZOBQUFms1U9SlZHjVe3WFkqXRXr16tuqlZHTt2TO2uXbs2IiKipKRE7Wr2d2okA/7hD3/Qd8eNG/ezn/1MtesX0po+JYcHaPov4jBJ3ztSz9BhcMvJaI7zB0KVh5JAyHz3AgDgwN1qP9bwPYFLly5J8ffOO++oXWMSUG7cuCElY9u2bdUnQBISErZs2aIO7dmzxzcJDBs2bOXKlfrppaWlUhGqc0VWVpZeehp7Hj9+XIY6e/as2i0qKjLuKmVlZfpLzpZMUzXdi+mo8eoOI9tVujt27OjcubPUu3pPhzs1kgH1z8yIBx988O2331btxiTQ1Ck5PEDjnTpM0veOtIZn6DC45WQ0x/kDJu7WMQ/yUBIImd9jAgA4cLfaG5OAVv9LkTExMVIoa4bqWSo5/bVh+Xu6devW6udfJk6cOH36dK2+sH722Wdb+CSBp59+ev78+fqH6U+dOiV9Dh06JNtSI0ZGRuqlp7FnXV1denr6rFmzZKO2tnbKlCmjRo1S3YwyMzMnT5589epVrf6UnJwc6Ww3VTUlu6OmeVqOrNlUulIZd+/e3Vi4a453aiQD9u7dW5XImzZtateunW9JrTRpSg4P0HindpO0vCOt4Rk6DG45GbVrN3/AxN065kEkAQBAQLlb7U1JQCpjqQLVK9N6QS9Fc7du3fr06ZOSkiIbb731lup84MCB6OjoXr16RUVF/frXv/ZNAnJiUlJSWFhYRkaGOmXBggXt27dPTk6Oj4+fN2+eXh+beh45ciQ1NbVnz54RERFSd0ptqroZVVRUjBs3rmPHjomJiV27dk1LS7t586bdVNWU7I6arm45smZT6b7xxhstW7bsYpCXl6fZ36nRoPp/ySE2Nlb6hIeHv/fee3q7qRBv0pQ0+wdoulPLSdrdkf6f1W5wu8lo9vMHTNytYx5EEgAABFSjq72U6WvWrDl37pz5gB9qa2tPnjxZUlIiFZ6x/datW0ePHtU/YeKPqqoqGcefl4SlfKysrDS33kmiS1FRkfr5HcVuqv4cNfIduakavVNVOtfU1Ehtrf+QkYOmTsmfB9joJO34M7hJU+eP+1Cj61iwIAkAAALKYbUvLCx8/vnnk5OT+Zqmp/i+9g/c5xzWseDioSQQMt+9AAA48F3tq6urly1blpqaGh0dHRcXRwzwmhdffDE3N9fcCtzHfNexIOWhJAAAuN8UFhZ+73vf69u3b+/eveXPxMREYgAABAxJAAAQaPqbALGxsVH14uLiiAEAEGAkAQBAQOXk5AwYMEAFAAAIRuZ1LWiRBAAAgVZdXf373/9+0KBB+nsCssF7AgAQYB5KAiHz3QsAgAPjal9YWDh16lS+JwAguIRM1eqhJBAyv8cEAHDgu9rrbxFER0fHxsYSBgB4nO86FqRIAgCAgHJY7QsLC7///e/z7wkA8DiHdSy4kAQAAAHV6Gr/Vf6NYQAIgEbXsWBBEgAABBSrPYBgFzLrmIeSQMh89wIA4IDVHkCwC5l1zENJAAAAAEDAkAQAAACA+xFJAAAAALgfkQQAAACA+5GHkkDIfPcCAOCA1R5AsAuZdcxDSSBkfo8JAOCA1R5AsAuZdcwpCRw8eHBOAI0aNcrc1Byys7PfAAB4xsSJE81NABBUvLyOlZeXm2t6e05JQMroFgAAAACCxJtvvmmu6e01ngTGjRuXHZxmzpwp8//JT37yJgDAMyZOnGhuAoCg4s11bMKECc2fBKSkvhictmzZIvPPzc013xgA4N4JmW/aAbhveXMde+ONN0gCf0MSAAAAwH3C00lg8ODBffv2Xb16tWyXlJTs37+/tLTU3KlZNTUJ3Lp1a3WDiooKaamtrb1lcPv2bfM5DWpqauQsuaL5QFOcO3dOn4AMaD4MAAAA2PB0EujRo4eM9vbbb8v2mDFjZPtHP/qRuVOzamoSuHLlivRv3759YmLi9u3bpaV169YtDGbNmmU+p8Hnn38uHeRE84EG3/ve98aOHXvz5k3zAYPCwkIZQSYgQ8mA5sMAAACAjXufBKR+/e///u8PP/zwgw8+2Lt3r/GQngRKSkoeeeQR2Z46depf//rXoqIiY7dm5C4JZGRk6C0qCfzDP/zDgnobNmzQD1VVVZ04ceLq1atq99atWzt37ty/f7/l0dra2sjISBlKWqSnahRnz57V++jUwyEJAAAAwH/3PgkMHjy4/tXz/0+qail21SE9CSQlJRn7fO1rX7tzjGajfjtIvbrvD7skYCrKz58//9BDD6nJt2zZ8qWXXtIM7wlYHh0wYIBqUaRlzZo16oFIn2effVYurY9PEgAQ2rz5TTsA8J8317F7nwT+8R//cfny5Zs2bVq1alVcXJyc/tOf/lQd0pPAb3/72/79+8u2xIYFCxZkZWXdOUbzeOGFF+QS8+bNM9+VPbsk8ECDf//3f5fGlStXSuMvf/nL4uLiP//5z+vXr9cMScDy6AcffNClSxdpl6OrV68+ePBgmzZtvvGNb+zZs+f111+XdhUYFJIAgNAWMv82J4D7ljfXsXufBE6fPv3OO+8sWrToJz/5yaBBg+T0J598Uh0K5PcEXMQAzT4J/P3f//2segUFBdKYn58vjV27dv32t7/9z//8zydPntQMScDyqFCfDrp+/bps/8u//Itsp6SkTJkyZeLEibKdlJSkX5QkACC0efNvUADwnzfXsXucBI4ePdqnTx85JSIiQmKAKv2lsFZHA5YE3MUAzT4J+Bblubm5L7300re+9S05Gh8fr935jWHfoyIqKkpPAvJ/j2yPHDlyYYNXX31VH5wkACC0efNvUADwnzfXsXucBN566y0VAyorK2V38uTJdkngO9/5jmxPnz7deHqzcB0DNPskMGvWrLn1VqxYIY27du1677339tfr2bNneHh4XV2dngQsj8pZX//619XD3Lhxo/p0UFJS0qeffnrgwIGVK1e+/vrr+kVJAgBCmzf/BgUA/3lzHbvHSWDNmjXSX2rcxYsXL1q0SDbsksDs2bNlu1u3bs8+++ySJUvuGOUr+CoxQLNPAronn3xSGrdu3dqxY0fVIhvqcetJwPKoWL16tfqAkHrf4I9//KPaFZ06dfrNb36jX5QkACC0efObdgDgP2+uY/c4CUjxOn78eFXdDho0yOE9gQMHDowYMeKBBx6QlszMzDtGcesrxgCtIQl07txZ5rxr1y7zYYPbt2+fOXOmrKzsxo0b5mONHTWqrKyUnrW1tWp37969cmmZAEkAAAAATXKPk4By5MiRPXv2mFvvsq8eA8TNmzdfb6B/0zeQysvL9Ql8+eWX5sMAAACADU8kgcBrlhgAAAAABK+7kgRmzpy5xcPUPx9GDAAAAMD97K4kAe8jBgBAEPHmN+0AwH/eXMeaOQlkZ2fLcD/5yU9yA+KFF14wN/lh+/bt5nkDADzMm7++BwD+8+Y61sxJwMVwX4U3nykAoHmx2gMIdt5cx1yU7iQBAEBAsdoDCHbeXMdclO4kAQBAQLHaAwh23lzHXJTuHkoC3vzuBQCgebHaAwh23lzHXJTuHkoCAAAAANxxUbqTBAAAnvD+++8vuZP6594nTJiwbt061ce47Y+m9veOioqKK1eumFv9E4C73rt37/jx49W23eWqqqpiY2MvXrwo2z/4wQ/+z//5P+YeAJqVi9KdJAAA8ISxY8empKTMMDhy5Ii0Dx8+/N1331V9srOzm/Tj0U3t7x3p6emrVq0yt/onAHf9rW99S5Kb2ra7XGVlpVQRn3/+uWz/13/9V1pamrkHgGblonQnCQAAPEGSwNy5c82tdyaBqqqqa9euqe3PPvtMti9evJiXl3fmzBnVWFRUtHPnzpqaGrv+ly5dys/PP3XqlGpUysrKZJDDhw/fvn3b2K5T554/fz43N1c6+x6qrq6WQ3I5aamtrd2zZ49Mw/iivsPVb9y4sW/fvv3799+8eVO1XLhwITU1denSpadPn1ZjalaTlNs8fSd148a71qzG1xznYzl/o0OHDnXr1s3yIQv1KE6cOGFMAnV1dX379pX5690ANDsXpbuHkoA3v3sBAGhedqu9P0nAuD1o0KDp06cPGDBg2LBhYWFhmzZtkl0poGNjY+VPVZua+s+cOVP6S2O7du2WL1+u2qdNm9avX7/MzMy4uLihQ4dKFa7ajeTc5557TjqMHDmyffv2r732mvGQjNCrV68hQ4Zs3LixuLh44MCBSUlJ0rNHjx5bt27Vu1lefffu3TExMXI0JSVFjh48eFAaX3nllfDwcLlcenq6DK7ZTHLHjh0pDRISEuSv7G3btml33rXl+A7zsZu/UVZW1uTJk/Vd4+Wk1u/SpYtMOzExcdasWXoSED/+8Y9feOEF/SwgqNmtY/eWi9LdQ0nAm7/HBABoXnarvSSBBx98cJbB1atXNcckIDWx6vPqq69Kgb506VKt/pXy+Pj4lStX+vZPS0u7fPmybG/YsKFTp07qxfXTp0+rDrI7adKkRYsWqV0jOVeKZvWR9/z8/LZt25aWluqHpG5WpXldXd2IESOkUFaHNm/eHBkZqTKJ5dVra2uTk5Nffvll1X/27NkSJ2QQzefTQY1OUqJCRkaGep1ev2uH8S3n4zB/Iwkk2dnZ+q5+ORlBHsWSJUu0+kfx3e9+15gE3nnnHbmofhYQ1OzWsXvLRelOEgAABJTdai9J4Jvf/KbxG8Nffvml5pgEli1bprbz8vJatWqlf17l+eefX7hwoW9//W+06upq+QtOfaZIatZt27bJIbniU089JdNQfYzk3F/96lf6rpTp+ovockh/i+DEiRMyrESFfQ26dOmya9cu1c336sXFxbKhf/5H0oXslpeXaz5JwHmS0ijh5/z582pXv2uH8S3n4zB/Iyn3//CHP+i7+uWKiorkdP0zRTt37jQmgU2bNvXo0UM/CwhqduvYveWidCcJAAACym61d/HpoNWrV6ttKTo7dOigtsWMGTPUUHb9r1+/Ln/BHTt2TLbHjx8/ePDgxYsXS66YOnWqnNIwzN/Iucbad9y4cT/72c/0Q/qwUkNLIBl7p4KCAlM3/eoSYNq0aaMa9fbCwkLNJwk4THLt2rURERElJSV6i37XDuNbzsdh/kYpKSnvvPOOvmu8XMeOHfX2srIyYxLYsGFDVFSUfhQIanbr2L3lonQnCQAAAsputR97L5JAaWmp1L7qQzJa/Sfg7ZKA/pkZ8eCDD7799tv6IX1YVfvqX182srz68ePHZePs2bOqXb2mrnaHDRumPuCk1b+WbzfJHTt2dO7cWSp4tavod+0wvuV8HOZv9MQTT/zyl7/Ud/XLyQhyuv5FC5mVMQn8/ve/f+ihh/SzgKBmt47dWy5Kdw8lAW9+9wIA0LzsVntJArNmzfrcwPSpd9N2sySBU6dOycahQ4e0+kI2MjLSLgn07t1blcibNm1q166dXl4bh9XqP0M/efJk9e2Furq6nJyc2tpaUzf96tIhPT1d7lo2pNuUKVNGjRql+jz99NPz589X32Swm6QU+t27dzdeXdHv2mF8y/lo9vM3ys7O1v8xAe3OhzxkyJB58+Zp9T9YJIHBmAS+//3vL1iwQD8LCGp269i95aJ091ASAADczyQJtLiT+njMXU0Csi3lafv27ZOTk+Pj46WKtUsCc+bMiY2NlT7h4eHvvfee8ZCxFq+oqBg3blzHjh0TExO7du2alpamfrvT7upHjhxJTU3t2bNnRESEVO1S3Ks+UmckJSWFhYVlZGRoNpOUv6ZbtmzZxUD9TKfxru3Gt5uP3fyNTp48KR307wMYL7d3716JTH369ImOjv75z3/eoiEJyCAyATmqDwJ40Llz59asWVNdXW0+ECRclO4kAQDA/a6qqqqkpMT3xW+dqptramqksP7iiy/Mh31IlVxUVKR+a8gfUn9XVlaaW+/U6CQd+DO+UaPznzx58r/+67+aW+tJ0S9P6dKlS8bGdevWZWZmGlsAbyooKJDIPXv2bPWNmuDionQnCQAA0AjTC/8oLS390Y9+ZG61N3/+/H379plbAU+SMBAbGxsdHf3QQw+tWLEiiN4icFG6kwQAAGjEiy++mJuba24FEKIkDAwcOLBXr16JiYlxcXGzZs0KircIXJTuHkoC3vzuBQCgebHaA/A+PQxERUXFxMRIJDC+ReDNdcxF6e6hJODN32MCADSvKAAIWv369cvJyfFm1eqidCcJAAACitUegPcVFBSkpKSMHj1azwD9+/efN2+e+ke7vbmOuSjdSQIAgIBitQfgcSoGDB06VAJAdHT0I488smXLFmMHb65jLkp3kgAAIKBY7QF4mcSA/v37SwAwvglg4s11zEXp7qEk4M3vXgAAmherPQDPUv+ewKRJk0xvAph4cx1zUbp7KAkAAAAA9wr/xvAdXAwHAAAAIPBclO4kAQAAACDouSjdSQIAAABA0HNRunsoCXjzuxcAgObFag8g2HlzHXNRunsoCXjz95gAAM2L1R5AsPPmOuaidCcJAAACitUeQLDz5jrmonQnCQAAAorVHkCw8+Y65qJ0JwkAAAKK1R5AsPPmOuaidPdQEvDmdy8AAM2L1R5AsPPmOuaidPdQEgAAwMHt27c3btz44osvTp8+fcmSJX/961/NPfxz7dq1GTNmJCUljRkzxnzsnpowYcK6det8t/3R1P6NavYBAdxtLkp3kgAAIAhcvnz54Ycf7tGjhyQB+etp7ty5sr1p0yZzPz8sW7Zs6NChJ06cOH/+vPnYPTV8+PB3331XbWdnZ2/fvv3O406a2r9RzT4ggLvNRelOEgAABIGZM2f279//3Llzekt1dfWhQ4fU9o0bN/bt27d///6bN2/qHT777LNr165dunQpPz//1KlTqlGq/x/+8IfPPffc6dOnv/jiC9VYW1u7Z8+enTt3XrlyxXS6XCU3N7eqqkrtXrx4MS8v78yZM6pPUVGRnFVTU6OfJcrKyqTP4cOHb9++bWw3sryiMQnIFeVyWsM0Gr2u3l8/xXTjiu/cZJDTd1LDGgf0//EqlncH4G5zUbqTBAAAXnf16tWwsLCVK1eaD9TbvXt3TEzMoEGDUlJSBgwYcPDgQdUuLZIfpEUq7Hbt2i1fvlwa582b16Neenr6v/3bv0lLcXHxwIEDk5KSRo4cKe1bt27VT582bVqvXr2GDBmyceNG2Z0+fbqMNmzYMJnMpk2bZDc1NTU2Nlb+1ItmOaVfv36ZmZlxcXFDhw69cOGCajeyu6IxCejbfl7XeK7ljWs2c9uxY0dKg4SEBPl7f9u2bcYBm/R4Nfu7A3C3uSjdPZQEvPndCwBA83Kx2hcWFsrfR3oNalRbW5ucnPzyyy+r3dmzZ0vhXldXp9WXqmlpaZcvX5btDRs2dOrUSb0QPmfOnFmzZqn+0nPEiBFZWVlqd/PmzZGRkaq8ltOlnNVLedmV6lkyiWy/+uqr7du3X7p0qVb/mnp8fLyeUk6fPq025FqTJk1atGiR2tU5XNEuCfhzXVMSsLzxRucmUSEjI0O9J6AGbOrjdbg7IJS4WMcCwEXp7qEk4M3fYwIANC8Xq31eXp78fVReXm4+UP8KtByqqqpSu6WlpXpPKVX1v8Kqq6ulXX26xpgETpw4Ie35+fn7GnTp0mXXrl3q9Ndee011U7vLli1T2zKfVq1a6R/Oef755xcuXKi2pRTetm2bXHfJkiVPPfXU2LFjVbvO4Yp2ScCf65qSgOWNO89NGiVa6N+dUAM29fE63B0QSlysYwHgonQnCQAAAsrFan/06FH5++gvf/mL+UB9cdymTRt99/r169KzsLBQqy9VV69ebWw/duyYdmcSkJpVauuxdyooKDCdbtrduXNnhw4d9EMzZsyYO3eu2h4/fvzgwYMXL14s5fvUqVOlnta7KQ5XtEsC/lzXlAQsb9xhbmvXro2IiCgpKdFb1IBNfbwOdweEEhfrWAC4KN1JAgCAgHK32sfHx+vlu9Hx48flr6qzZ8+q3aKiIn3XslTV7kwCZWVl6sVstWvkIgmUlpZKHaw+MCOysrJ8k4DDFe9qEnCY244dOzp37ixFvNpV1IBNfbwOdweEEnfr2N3monQnCQAAAsrdav/BBx+0bdv2t7/9rfrQuVS0Ms66devq6urS09OlspeN2traKVOmjBo1Sp1iWapqdyYBkZmZOXnyZPVBfBkkJydHxjGdbtq1q8hPnTolV1G/aCTXioyM9E0Cmv0V72oSsJub1Prdu3c33qmiBnTxeO3uDggl7taxu81F6e6hJODN714AAJpXo6t9dXX1mjVrjD8YqmzatGngwIEtW7aMiooKCwsbN25caWmptB85ciQ1NbVnz54RERFStkppq/rblaqmJFBRUSFDdezYMTExsWvXrmlpaeq3Ml0kAbFgwYL27dsnJyfHx8fPmzfPMgnYXfGuJgHNZm7yd7080i4GeXl5xgGb+njt7g4IJY2uY/eEi9LdQ0kAAHCfKywslDJdSlWHT5afOXOmuLj4yy+/NLVLAVpZWWlq9N+VK1eKioouXrxoPtB0VVVVJSUljb4Q3oxX9J+fc/PV1Md7T+4OuM+5KN1JAgCAe6y6unrFihUjR47s1atXTEyMN19sAwCPc1G6kwQAAPeMehNA/etUffr0iYuLIwYAgDsuSneSAAAg0PQ3AVJTUwcNGhRVjxgAAF+Fi9LdQ0mAvwAA4H6wfPnyAQMGSOnfp08flQEAILh4s2p1Ubp7KAl48/eYAADNS1b7s2fP/vjHP46NjdX/Wh09enRKSorDF4UBwDu8WbW6KN1JAgCAgDKu9n/84x+/+c1vqjAwdOhQwgCAoODNqtVF6U4SAAAElO9qr79FEB0d3a9fP8IAAI/zXce8wEXpThIAAASUw2r/xz/+cdy4cc7/ngAA3HMO69g95KJ091AS8OZ3LwAAzavR1d7u3xgGAI9odB27J1yU7h5KAgAAAADccVG6kwQAAACAoOeidCcJAAAAAEHPRelOEgAAAACCnovS3UNJwJvfvQAANC9WewDBzpvrmIvS3UNJwJu/xwQAaF6s9gCCnTfXMRelO0kAABBQrPYAgp031zEXpTtJAAAQUKz2AIKdN9cxF6U7SQAAEFCs9gCCnTfXMRelu4eSgOvvXrz//vtL6smEP/74Y/Ph5lZRUXHlyhVzq38mTJiwbt06c+vdp1/XxQRcnKL7Ks8KQKhyvdoDgEd4cx1zUbp7KAm4Nnbs2EGDBs2ZM+cHP/hB165dn3zyybq6OnOn5pOenr5q1Spzq3+ys7O3b99ubr37hg8f/u6772quJuDiFN1XeVYAAADwn4vSPUSSwNy5c9X2vn37ZM5/+ctfZPuzzz67du1adXV1bm5uVVWVtNTW1u7Zs2fnzp3GF6pVt0uXLuXn5586dUpvFzdu3JAB9+/ff/PmTdVy4cKF1NTUpUuXnj59Wo0pysrK8vLyDh8+fPv2bdVSU1Nz+k7SIu1yilxL9dGsxneYjGYzfxPLPnoSME5AXevixYsy+TNnzqjGoqIiOVfNVtFPcZ6b70Pw81n5kkNHjx6VbnKi3uj7rLTGpqST0XJycvbu3aufW1lZqd+jPDG5kJ4eLa9u2ajZPG3N6oq+LZrNTQEAALjgonQPtSQglVnr1q3Xrl0r24MGDZo2bVqvXr2GDBmycePG4uLigQMHJiUljRw5skePHlu3blWnSLeZM2cOGDBAyuV27dotX75cte/evTsmJkaOpqSkyNGDBw9K4yuvvBIeHh4XF5eeni6DS4v82a9fv8zMTGkcOnSolL/SuGPHjpQGCQkJ8hi3bdumGSpyu/HtJiPs5m9k10e/rnECcq3p06fLtYYNGxYWFrZp0ybZldo9NjZW/tQDg36Kw9wsH4Kfz8qkpKQkLS1N5vDoo49GRUV98MEHms2z0hynpEgF/8wzz8j/A4899pgMO2bMGNXeu3fvTz75RG1LcS//gSQxajZXt2zUbJ627xV9W9TpdjcFAADggovSPdSSwIoVK1q2bHnkyBGtvkyUKk2Vm3V1dSNGjMjKylLdNm/eHBkZqYpd6Sb12eXLl2V7w4YNnTp1ktJNEkVycvLLL7+s+s+ePVvihHrZ2PSJF/1FYjlr0qRJixYt0g8pUv5mZGSoV6D1qtpufMvJaI7z1zn0sUsCUo5fvXpVtl999dX27dsvXbpUq39DIz4+fuXKlaqbMQlYzk2zfwhNfVZyCxJLZsyYoUaWp3Tp0iW7Z6U5Tkk5cOBAhw4d9Af1xRdfqA3LJGB5dctGzf5p+17Rt0WNY3dTAAAALrgo3T2UBFx/90KSQJcuXQYMGNCzZ08puX73u9+pdikTX3vtNbV94sQJuZf8/Px9DeSUXbt2qW76PUo5KN3OnDlTXFwsG/pnWkpLS2W3vLxc86lupXrbtm2bjLBkyZKnnnpKJqMfEtIoVfX58+fVrl5V241vORnNcf46hz52SWDZsmVqOy8vr1WrVvoHZp5//vmFCxeqbWMSsJybZv8QmvSsxPHjx2XYiooKY6Pds9Icp6RIlR8WFpadnX306FFju2USsLy6ZaNm/7R9r+jbojneFBDyXK/2AOAR3lzHXJTuHkoCrn+PSQrKqVOnSil27NixGzdu6O1SJq5evVptS8Umle7YOxUUFJi6Xb9+XW5ZxpHKuE2bNvpQqr2wsFDzqW7Hjx8/ePDgxYsXS1Ut05C6WT+0du3aiIiIkpISvUWvqu3Gt5yM5jh/nUMfuySgX2vnzp0SohpG0mbMmKG/zWJMApZz0+wfgv/PSpFbMD4Wxe5ZaY5T0n300UePP/54eHh4//79169frxotk4Dl1S0bVbvd0/a9om+Lw00BIc/1ag8AHuHNdcxF6R4iSUAvW42MZWJZWVkLnxeMFctqUr0SfPbsWdVeVFSk7w4bNkz/5ExpaamUg+rTKSIrK0uvbnfs2NG5c2epF9WuolfVduNbTkZznL/Ooc9dTQIOD8HPZ6VTtyB/GhvtnpVmPyVfEhElfrRt21ZNICEhYcuWLerQnj17WtQnAcurWzbq7ZZPWzFd0dTicFNAyHO92gOAR3hzHXNRut8vSUBkZmZOnjxZfSy+rq4uJyentrbW1E2vJqVDenr6rFmzZEO6TZkyZdSoUarP008/PX/+fPWp8VOnTkn/Q4cOybacFRkZqapbqfO6d+9uvLqiV9V241tORu3azd/Irs9dTQJ2D0Hz71mZjB49etKkSV9++aVsS8VcUVFh96w0+ynppF7X35P59NNPW7durX7kZ+LEidOnT9fqq/Nnn322RcM3hn2vbteo2Txt3ysePnzYdw4ONwWEPNerPQB4hDfXMRel+32UBKSAGzduXMeOHRMTE7t27ZqWlqZ+utGumjxy5EhqamrPnj0jIiKkaJPiXvWRYi4pKSksLCwjI0N2FyxY0L59++Tk5Pj4+Hnz5qnqVh5dy5Ytuxjk5eVpdxbiluPbTUazn7+RXZ+7mgQ0m4eg+fesTMrLyx999FG5hYSEhG7duql/Ks7yWWmOU1JkAjJInz59UlJSZOOtt95S7QcOHIiOju7Vq1dUVNSvf/1rPQlYXt2yUbN52r5X9G1Rp9vdFBDyXK/2AOAR3lzHXJTuHkoCjX73Qmq1NWvWnDt3znygKa5cuVJUVHTx4kXzARtS7VVWVppb71RVVVVSUuL7Cr0//BnfyJ/5+9On2fn5EPzsJv+ti4uLTT+O1NRnpci1Tp48KReVqGBsv3Xr1tGjR/WP7hhZXt2yUbN62r5X9G3RubspIKg1utoDgMd5cx1zUbp7KAk4+PDDD7/97W8nJiaaviMLAAAAQHNVuns6CXz++efz588fMGBAVFRUXFwcMQAAAACw5KJ092gS+PDDD0ePHh0dHS0ZICYmhncDAAAAAAcuSndvJQHjmwBKXFwcMQAAAABw5qJ091ASWL58eUJCglT/w4YN05MAACDEePObdgDgP2+uYy5Kdw8lgf/xP/5HdXX1ihUrHn744REjRkyaNCkpKUn+zoiOjvb9YX4AQJDy5q/vAYD/vLmOuSjdvZUE9O3CwsI5c+YkJCSMHz9+2LBhhAEACBne/BsUAPznzXXMRenu0SSg6G8R9O7du2/fvps2bTJ1AAAEHd/VHgCCizfXMRelu6eTgE69RZCcnMxXhwEg2Dms9gAQFLy5jrko3T2UBBr97kWz/BvDAIB7q9HVHgA8zpvrmIvS3UNJAAAAAIA7Lkp3kgAAAAAQ9FyU7iQBAAAAIOi5KN0bTwJi8eLFsit/ss0222yzzTbbbLPNNtse3H788cdbNHsSMA5369at1Q0qKiqkpba2Vhrr6upUB7Wr92+Spn73oqamRqaxZcsW84GmOHfunH5HMqD5MACguTV1tQcAr/HmOuZbujeqaUngypUr0tK+ffvExMTt27dLS+vWraXlhRdeUB0yMjJkd/fu3fop/mvq7zF9/vnnci2ZifmAwfe+972xY8fevHnTfKBBYWGhjCB3JEPJgObDAIDm1tTVHgC8xpvrmG/p3ig3SUDKfb1FJYG2bdseP35c80kCdXV1Z8+elbP0/lr9Gwu1tbWycf78eeMh0zOVE69evWpsEVVVVSdOnFDtMs7OnTv3799veVSrf4MiMjJS5iMtxncqfEd+5JFHSAIAEBje/BsUAPznzXXMt3RvVDMkAdGxY8fvfe972p1J4N///d+7d+/eot63vvWtM2fOaA0v5MfGxo4bN05FiPfff18NpT/TNWvW9OjRQ462bNny2WefVWlBYsNDDz2kRpP2l156yfiegO9RaRwwYIBqUexG1kgCABBA3vwbFAD85811zLd0b1QzJIEHHnjg5z//udTW+/fv15PAgQMH5FDv3r3/9Kc/LVy4UBqfeOIJrSEJiLlz5/7mN79pYfh4j3qmBw8ebNOmzTe+8Y09e/a8/vrr0kGV9StXrpTtX/7yl8XFxX/+85/Xr19vTAK+R6Xxgw8+6NKli7TL0dWrV9uNrJEEACCAvPk3KAD4z5vrmG/p3qjmSQKXL1/u3r271Pp6EpAHJBv//M//rNV/Skf6hIWF3bp1S5Xv0ll9yVhK8/DwcDWU+u7Fv/zLv0iHlJSUKVOmTJw4UbaTkpKkPT8/X7a7du367W9/W4Y9efKkMQn4HlVjqk8HXb9+3WFkjSQAAAHkzW/aAYD/vLmO+ZbujWqeJCAbS5culUPqNXjfJBBWT08C+vsAD9TTR9PqM5Z0GDly5MIGr776qjqUm5v70ksvfetb35IO8fHxpqFMR1VjVFSUngQcRiYJAAAAIKj5lu6NarYkUFNTExMT06KeJIH9+/ebPh30+OOPaz4/+OObBNRneJKSkiRsHThwYOXKla+//rq079q167333ttfr2fPnuHh4VVVVfpQvkfVew5f//rXpU92dvbGjRvtRtZIAgAAAAhyvqV7o5otCYhVq1bpSUDtRkREqJZHH320vLxc8yMJiD/+8Y/qUz2iU6dOv/nNb6Rx69atHTt2VI2yIbMyDuV7VA21evVqNZTqZjmyRhIAAABAkPMt3RvlJgl07txZwsCuXbsMfa3V1dWdOXPm8uXL5gN+qKyslHPV740qt2/flpaysrIbN24YOvp11Mg48t69e+Ve5I5IAgAAAAhevqV7o5qWBG7evPl6A/1buc3lnnz3ory8XL+jL7/80nwYANDc7slqDwDNyJvrmG/p3qimJYG7ypu/xwQAaF6s9gCCnTfXMRelO0kAABBQrPYAgp031zEXpTtJAAAQUKz2AIKdN9cxF6U7SQAAEFCs9gCCnTfXMRelu4eSgDe/ewEAaF6s9gCCnTfXMRelu4eSAAAAAAB3XJTuJAEAAAAg6Lko3UkCAAAAQNBzUbqHQhJ4//33l9STCX/88cfmw82toqLiypUr5lb/TJgwYd26deZWb/sq9+u/wFwFAAAgVLko3T2UBFx/92Ls2LGDBg2aM2fOD37wg65duz755JN1dXXmTs0nPT191apV5lb/ZGdnb9++3dzqbV/lfv0XmKsA8ALXqz0AeIQ31zEXpbuHkoDr32OSJDB37ly1vW/fPpnzX/7yF9n+7LPPrl27Vl1dnZubW1VVJS21tbV79uzZuXOn8eVn1e3SpUv5+fmnTp3S28WNGzdkwP3799+8eVO1XLhwITU1denSpadPn1ZjirKysry8vMOHD9++fVu11NTUnL6TtEi7nCLXUn00q/EdJqPZzN/I4XTfa2mO/RXL+/V9sL6Dy1E5Vx9HnD179vr162rb9MQsr+LbDUBocL3aA4BHeHMdc1G6h1oSkFq5devWa9eule1BgwZNmzatV69eQ4YM2bhxY3Fx8cCBA5OSkkaOHNmjR4+tW7eqU6TbzJkzBwwYMHz48Hbt2i1fvly17969OyYmRo6mpKTI0YMHD0rjK6+8Eh4eHhcXl56eLoNLi/zZr1+/zMxMaRw6dKgqf3fs2JHSICEhQR7jtm3bpF0u8e677zqMbzcZYTd/I7vTLa/l0F/ne7+az4O1HPy9996TG9fHkWpe/rtUVlZqVk/M8iq+3fTRAAQ116s9AHiEN9cxF6V7qCWBFStWtGzZ8siRI1p9wSp1s6og6+rqRowYkZWVpbpt3rw5MjJSvTwv3dLS0i5fvizbGzZs6NSp0+3btyVRJCcnv/zyy6r/7NmzpepVHzoyfY7l9OnTakPOmjRp0qJFi/RDilS0GRkZ6j0BPQnYjW85Gc1x/kaWp9tdy66/Ybz/x/dzO8YHaze4jCnF/c6dO1W7dPjOd76jti2fmO9VLLsBCAGuV3sA8AhvrmMuSvcQSQJdunQZMGBAz549O3To8Lvf/U61S8H62muvqe0TJ07IveTn5+9rIKfs2rVLddPvsbq6WrqdOXOmuLhYNvRPqpSWlspueXm55lOzStW7bds2GWHJkiVPPfWUTEY/JKQxPj7+/PnzaldPAnbjW05Gc5y/keXpdtey6692db41uvHBOgz+/PPPSzDQ6tNCr169/vM//1P1sXxivlex7AYgBLhe7QHAI7y5jrko3T2UBFx/90JqxKlTp0pxfOzYsRs3bujtUrCuXr1abUsN3apVq7F3KigoMHW7fv263LKMk5eX16ZNG30o1V5YWKj51Kzjx48fPHjw4sWLly1bJtOQWl8/tHbt2oiIiJKSEr1FTwJ241tORnOcv5Hl6XbXsuuv91R8a3TjWQ6DSx3ftWvXmpqarVu3fu1rX9P/01g+Md+rWHYDEAJcr/YA4BHeXMdclO4eSgKujTV8OsjIWLCWlZVZvuCt2VTDx48fl42zZ8+q9qKiIn132LBhK1euVO2lpaVSoKtP14isrCy9YN2xY0fnzp2lgle7ip4E7Ma3nIzmOH8jy9PtrmXXX+3qjPerGM9yGLyuri4mJmb9+vXf/e5358yZozrYPTHTVey6AQAAwJKL0v1+SQIiMzNz8uTJV69e1eqL1JycnNraWlM3vRqWDunp6bNmzZIN6TZlypRRo0apPk8//fT8+fPV5+lPnTol/Q8dOiTbclZkZKQqWKU+7t69u/Hqip4E7Ma3nIzatZu/keXpdtey6692dcb7VYxnOQwufvrTn8pu+/btd+/erVrsnpjpKnbdAAAAYMlF6R5MSaC6unrNmjXnzp0ztfuZBCoqKsaNG9exY8fExMSuXbumpaWpn7y0q4aPHDmSmpras2fPiIgIKXaluFd9Pv3006SkpLCwsIyMDNldsGCBVLrJycnx8fHz5s1TBas8upYtW3YxyMvL0+787SDL8e0mo9nP38judMtrOfQ3Mt2v5vNg7QbX6ot4GTMlJUVv0WyemO9VLLsBAADAkovSPTiSQGFh4Zw5c6Qo9P1kfFNduXKlqKjo4sWL5gM2pP5Wv33poKqqqqSkxPcVen/4M75RU+dv1NRrNUmTBvfzifnZDQAAAC5Kdw8lAd/vXlRXV69YseLhhx/u3bt33759N23aZOoAAAg6vqs9AAQXb65jLkp3DyUB4+8xqTcBBg4cOG7cuPT09Ojo6DVr1hj6AgCClTd/fQ8A/OfNdcxF6e6tJKC/CTB8+PAJEyZIEoiKiiIGAEAo8ebfoADgP2+uYy5Kdw8lAfUmgJT+6enpUQCAEOXNv0EBwH/eXMdclO4eSgLyTC9cuPBP//RP8fHx0dHR6i+MuLi4xMTEr/5FYQCAR3jzb1AA8J831zEXpbuHkoDxuxdbt27NzMxUeaBv376EAQAIGd78ph0A+M+b65iL0t1DScCX/haBenOAMAAAAABYclG6ezoJ6LZu3frYY4/xzgAAAABgyUXpHhxJQLH7N4YBAACA+5yL0j2YkgAAAAAASy5K98aTwIQJE94IiHnz5pmbAAAhh9UeQLDz5jomRXvzJwEAAAAAQaHZkkB5efmbATRx4kRzEwAg5LDaAwh2Xl7HpIA31/T2nJJAgHnz32gAADQvVnsAwS5k1jGSAAAgoFjtAQS7kFnHPJQEvPmvtQEAmherPYBgFzLrmIeSAAAAAICAIQkAAAAA9yOSAAAAAHA/IgkAAAAA9yMPJYGQ+e4FAMABqz2AYBcy65iHkkDI/B4TAMABqz2AYBcy6xhJAAAQUKz2AIJdyKxjJAEAQECx2gMIdiGzjpEEAAABxWoPINiFzDrmoSQQMt+9AAA4YLUHEOxCZh3zUBIAAAAAEDAkAQDwhNzc3F+Eory8PPOtAgC8gSQAAJ4gRXOLULR48WLzrQIAvIEkAACeoJLAyJEjF4aKjIwMkgAAeJmHkkDIfPcCAFxQSUAK6IuhQu7FMgmw2gMIdiGzjnkoCYTM7zEBgAv3TxJgtQcQ7EJmHSMJAIAnkAQAIFiEzDpGEgAATyAJAECwCJl1jCQAAJ5AEgCAYBEy65iHkkDIfPcCAFxwSAJvvvnmK6+8smbNGvOBwCopKdm/f39paan5gA27JMBqDyDYhcw65qEkAAD3M4ck8I1vfEMOTZ482XwgsMaMGSPT+NGPfmQ+YMMuCQAAPIIkAACe4C4JnD9/ft++fR9++OGBAwcuXLhgPHTixIn//b//9+HDh6XPX+udO3fO+SzpLN0qKytl+/PPP1dnVVVVXax/Q+CRRx6RaUydOlUai4qK9LPskAQAwONIAgDgCS6SQG5urjqkpKen79y5Ux36X//rf4WHh0tjq1atXnjhBdXh448/dj6rdevW0rJu3TrZlnJfdSgsLJTdpKQk/RTxta997f9Pwh5JAAA8zriwAwDuMf+TQHl5effu3aX9kUce+d3vfjd06FDZ7tu377lz58rKyqRSl92MjIzf/va3X//619XgkgQczrrYkAT+4z/+46JPEpBx+vfvL7uDBw9esGBBVlaWcTKWVBIAAHiEOQdIEjCv3ACAe0HVzf4ngf/5P/+nNLZs2fLYsWOy+9///d9qod+0adPatWvV9tGjR+XQRx99pHYlCTicdbEhCfznf/7nRZ8kcNHt9wQs7wgAEHjmHEASAACPcKibLZPAa6+9Jo0dO3ZUu5WVlapwX7Fixe9//3vZeOCBB9QhvaaXJOBw1sU73xPYt2+fOkQSAIDQYM4BfDoIADzFsm62TAJr1qxRpxw+fFh2//KXv6jdP//5z1u2bFHbn376qRxatWqV2pUk4HCW7EpCkO23337beJaeBL7zne/I7vTp0/U5OOPTQQDgKeYc4KlvDIfMv9EAAC40+o3hTp06xTcYOnRoRUVF7969pX3QoEGLFi1KSEiQbfnz83rqC74RERFjxozp3Lmz+jtAkoDDWXIh9bWBPn36/PCHP+zSpYs6S08Cs2fPlt1u3bo9++yzS5YsuWOKVuy+McxqDyDYhcw6RhIAAE9oNAkYqZ/u2b17t/plzxb1H/2Xov/AgQPqFDn0zW9+MywsbODAgerDQiIvL8/5rD//+c9S6Leo//iQVPCqj54EpNuIESMeeOABaczMzFSNDkgCAEJVyKxjHkoCIfOvtQGACw5JwNmZM2ekuD979qyxcc+ePerfARC/+c1vWtR/baC8vFzvYHmWOHfunGW7C3ZJgNUeQLALmXXMQ0kAAO5nrpOApTlz5vTo0WPUqFGpqanqpX1/fvezedklAQCAR5AEAMATmjcJbNmyZeLEiUOHDs3IyHjuuef+67/+y9zj7iMJAIDHkQQAwBOaNwl4AUkAADyOJAAAnkASAAAEmIeSQMh89wIAXLh/kgCrPYBgFzLrmIeSQMj8HhMAuKCSQEZGxsJQIfdimQRY7QEEu5BZx0gCAOAJKgmEHpIAgNATMusYSQAAPCEvL29xKJL7Mt0pqz2AYBcy6xhJAAAQUKz2AIJdyKxjHkoCIfPdCwCAA1Z7AMEuZNYxDyUBAAAAAAFDEgAAAADuRyQBAAAA4H5EEgAAAADuRx5KAiHz3QsAgANWewDBLmTWMQ8lgZD5PSYAgANWewDBLmTWMZIAACCgWO0BBLuQWcdIAgCAgGK1BxDsQmYdIwkAAAKK1R5AsAuZdcxDSSBkvnsBAHDAag8g2IXMOuahJAAAAAAgYEgCAAAAwP0oOJLA+++/v6Te0qVLP/zww9u3b+uHJkyYsG7dOkPfOzzxxBObNm0yt9ZzPtFORUXFlStXzK2O3F3IHRfTAwAAwP0pOJLA2LFjBw0aNGfOnGnTpvXo0WPUqFG3bt1Sh7Kzs7dv335n97+Rs1avXm1ured8op309PRVq1aZWx0NHz783XffNbfeHS6mBwAAgPuTh5KAw3cvJAnMnTtXbZeUlLRo0WLbtm1qt6qq6tq1a2r79u3bR48ezcvLO336tGpRSeDSpUv5+fmnTp1SjYrxxNra2j179uzcudP0grqMlpOTs3fv3ps3b8ruhQsXUlNTly5dKuPL6apPWVmZXPHw4cPGdyqMTEngxo0b+/bt279/vxpTd/ny5R07dpw4cULGkfH10Sz7V1ZW1tTUqG2ZvPSvq6uznB4AeI3Dag8AQSFk1jEPJQGH32MyJoFbt261bt36/fffV7t6nS0JIS0tLTY29tFHH42Kivrggw+0+iQwc+bMAQMGSLd27dotX768Yci/nVhcXDxw4MCkpKSRI0f26NFj69atWn2oeOaZZ3r16vXYY4/JsGPGjJHGV155JTw8PC4uLj09fdq0adIif/br1y8zM1Mahw4dKrW4Pr7OmAR2794dExMjs0pJSZFZHTx4ULXn5uZ269Zt2LBhMo1Zs2ZJ1Pn8888d+vfu3fuTTz5R21L3S//q6mrf6QGABzms9gAQFEJmHQuaJDB79mwpds+cObNw4cIOHTrIhjqk6uy6ujopo2fMmKFeSq+trb106ZJWnwSkjr98+bJsb9iwoVOnTvpr7fqJI0aMyMrKUo2bN2+OjIy8du3agQMH5Cr6mwZffPGF2jB9/EZ/80GGnTRp0qJFi/RDOj0JyKySk5Nffvll1S53NGTIEJmAZBuJE6+//ro0yu73v/99lQTs+ms2SUDzmR4AeJDDag8AQSFk1rGgSQItGoSFhekfDdIa6uzjx4/LoYqKCsNJ/48kgTfffFNtS60sfUwR4sSJE9KYn5+/r0GXLl127dol5bVcKDs7++jRo38bzqfUlrpcJiOXWLJkyVNPPSXz/FvXBsY3H+Ra+ud2SktLZbe8vPyvf/1ry5Ytv/zyS9W+e/dulQTs+mskAQDBzGG1B4CgEDLrWNAkAfXpICmL/+7v/k7qXf0bw6rOllK+TZs2d5xTz/iN4evXr0vFfOzYMbWrn9iqVauxdyooKJAOH3300eOPPx4eHt6/f//169ers0yl9vjx4wcPHrx48eJly5ZNnTpVxtQP6fQkkJeXZ5ykmk9hYaHMoWPHjnr7yZMnVRKw66+RBAAEM4fVHgCCQsisYx5KAg7fvdCTgLh06VJERMQ777yjdlWdXVZWJtWw/Pm3c+o1mgTUifobBb5u3LghVX7btm3VR4yGDRu2cuVKdai0tFRShGoXWVlZzklAvXFx9uxZ1V5UVKR21Rz0NzQkgagkYNdfthMSErZs2aLa9+zZoycB4/QAwJscVnsACAohs455KAk4MCYBrf4HQGNiYqRG1wx19ujRoydNmqQ+YyPVuSqsG00CspGZmTl58uSrV69q9Z/2ycnJqa2tleq8pKRE9ZT/2K1bt1Y/K/T000/Pnz9ffdng1KlTMuChQ4dkW4aNjIx0TgIyeHp6+qxZs2RDLjFlypRRo0apPo8++uizzz574cIFuW5GRoZKAg79J06cOH36dK0+qMiJehIwTg8AAABwEJRJQIry7t27v/3225qhzi4vL5d6umPHjgkJCd26dfv44481/5KAZIZx48bJiYmJiV27dk1LS7t586ZU/zJInz59UlJSZOOtt95SZ0l7UlJSWFiY1Ouyu2DBgvbt2ycnJ8fHx8+bN885CYgjR46kpqb27NkzIiJCqvzjx4+r9srKyieffFJNfsWKFS1btpTZOvQ/cOBAdHR0r169oqKifv3rX+tJwDQ9AAAAwE5wJAH/SUFcXFys/+aP/yRdFBUVXbx4UW+pra09efJkSUmJKsrtVFVVSR/pbD5gT7KHlP7m1gbr16/v27evscWy/61bt44ePap/NgkA7q1z586tWbNGvSoBAAgKoZYEgtTmzZtff/31P/3pT2+++WaPHj2WLVtm7gEAnldQUJCQkDB58mT12wYAAI/zUBIIme9euHDkyJF58+Y988wzP/7xj/WvAgNA0JEw0Ldv3+jo6AcffPCNN96wfIvgfl7tAYSGkFnHPJQEQub3mADgfiZhoH///lFRUZIH+vTp4/sWAas9gGAXMusYSQAA0Mz0MKDExMQY3yJgtQcQ7EJmHfNQEtD/zgAAhJj4+Hj5MyEhIScnJ2T+BgVw3wqZdcxDSSBknikA3Oc2bNigfuZY/nz44YeHDBkyatSoFStW8J4AgNAQMuuYh5JAyHz3AgDuZyoGDBw4cPTo0fHx8XPmzDF9T4DVHkCwC5l1zENJAAAQ7CQG9OnTR5KA8U0AAIA3kQQAAM2joKAgKSnJ900AAIA3kQQAAM2Af2MYAIIOSQAAAAC4H3koCYTMdy8AAA5Y7QEEu5BZxzyUBELm95gAAA5Y7QEEu5BZx0gCAICAYrUHEOxCZh0jCQAAAorVHkCwC5l1jCQAAAgoVnsAwS5k1jEPJYGQ+e4FAMABqz2AYBcy65iHkgAAAACAgCEJAADusdra2iVWfv3rX5u7fmUTJkxYt26dudUb7uHcKioqrly5Ym7121c8HcC9QhIAANxjt27dmtEgLi4uMTFRbf/4xz82d/3KsrOzt2/fbm71hns4t/T09FWrVplb/fYVTwdwr5AEAAAe8swzz0gGMDXW1tbu2bNn586dxheeP/vss2vXrlVXV+fm5lZVVandixcv5uXlnTlzRvUpKiqSs2pqavSzpKd0M45w6dKl/Pz8U6dO6X1EWVmZjHP48OHbt28b242OHj2ak5Ozd+/emzdv6o2WU9VsOpsajXMTN27c2Ldv3/79+42nOMzZ7tK6yspK/VFI59OnT9fV1cn2hQsXUlNTly5dKi0yB72D72iWV/f/dABe46EkEDLfvQAAOHBe7X2TQHFx8cCBA5OSkkaOHNmjR4+tW7eq9kGDBk2bNq1Xr15DhgzZuHGj7E6fPn3AgAHDhg0LCwvbtGmT7EqFGhsbK3/qFfbw4cPfffddfYSZM2fKKdLYrl275cuXq3YZtl+/fpmZmXFxcUOHDpVKV7XrJB7IPOXSjz32WFpa2pgxY1S75VQtO1s2Gue2e/fumJgYmWFKSorM8ODBg6rdbs6Wlzbp3bv3J598oralam/RooXkKNl+5ZVXwsPD5WbT09Pl3jX70Syv7v/pQMhwXseCiIeSQMj8HhMAwIHzam9KAnV1dSNGjMjKylK7mzdvjoyMVGW9VKVSa+pluuxK1X716lXZfvXVV9u3b7906VLZrqmpiY+PX7lypepmSgJShV++fFm2N2zY0KlTJ/UOgFTJqoPsTpo0adGiRWpXd+DAgQ4dOujp4osvvtDsp2rZ2bJRn1ttbW1ycvLLL7+sjs6ePVvSjnr93nLOdpdWuzq7JKDd+fEeh9Esr+7/6UDIcF7HgghJAAAQUM6rvSkJnDhxQgrW/Pz8fQ26dOmya9curb4qfe211/Sesrts2TK1nZeX16pVK/2TMM8///zChQvVtikJvPnmm2pbamK5kPpYkdSy27Ztk0NLlix56qmnxo4dq/ropIwOCwvLzs4+evSo3mg3VcvOlo363IqLi2Uo/ZM2paWlslteXq7ZzNnu0g0D/39+JgGH0Syv7v/pQMhwXseCCEkAABBQzqu9KQlIQSk1/dg7FRQUaPVV6erVq/Wext2dO3d26NBBPyQDzp07V22bkoB+yvXr16V+PXbsmGyPHz9+8ODBixcvlmgxdepUOUX1Mfroo48ef/zx8PDw/v37r1+/XnOcqm9ny0Z9bpJk2rRpo19Lza2wsFCzmbPDpY38TAIOo1le3f/TgZDhvI4FEZIAACCgnFd7UxIoKyvTX3g2uUtJoLS0VApZ9QEYkZWVZZkElBs3bkhaaNu2rfR3mKpi7GzZqM/t+PHjMtTZs2dVn6KiIn3Xcs6NXlpJSEjYsmWL2t6zZ48xCQwbNkz/AJXDaJZX1/w+HQgZzutYEPFQEgiZ714AABw4r/a+3xjOzMycPHmy+gJAXV1dTk5ObW2tdteSwKlTp2Tj0KFD0ii7kZGRvklAit2SkhK1LbfTunVr9Qs5llO17GzZ+H/buxP4qMp7/+MBQ8oSKhFZEoGwhsS0IRIoCGIrrWDrgmIBQbFEakH5WyK8XECToEBA5UKJkLj0ghaKcC+CqPe6QEOwCKSUXQgJhCVAQCoEQZAlYe7PPPX8x7NlMkkmM2c+79d55XXOc55zznOGF795vpkl2tjk2KSkpDFjxsiKnGHYsGH9+vVTnU3H7LK4tOqmue+++5KTk10V8WPo0KHuSWDQoEETJkzQvijJ6mxWV/fwcMAx7OtYAPGjJAAAgDEJlJSU3HXXXeHh4V27dm3WrFliYqL6Vs1aSgKyPnHixEaNGsXFxXXu3DklJcWYBGQSEBER0aZNm/j4eFnJzs5W7aZDNe1s2ug+tj179iQkJLRs2bJ58+aSCvbv36/arcZsemnVTbNjx47IyMioqKjWrVtPnz7dPQnIeGJjY8PCwvr27euyPpvV1T08HIC/IQkAAALAuXPn8vPzT58+rd9RO06ePFlQUGDzm2zZdfDgQekjE2LdLuNQTTubNurIlPr48eP6VmvGS+tcuXKlsLDQ/e1JNio9m71qHg743okTJxYvXqwl5GBAEgAAAAC+s2HDhri4uKFDh+bm5ur3ORFJAAAAAPg3CQMdOnSIjIzs2rVrenq6s18i8KMk4JjPXgAAbFDtAfg5CQM33nhjfHx869ato6Kifv3rX+teInBMHfOjJOCY72MCANig2gPwfyoMJCUlta4gecD9JQLH1DGSAADAp9TTKgAEog4dOuTk5Dhm1koSAAD4FNUegP/bsGFD165do6OjZfYfGRnZsWPH7t27Z2dn85pAbXHMYwoAsEG1B+DnVAxo27Zt+/bt27VrN2rUqLy8PPcOjqljfpQEHPPZCwCADao9AH8mMSA6OjoyMtL9RQAdx9QxP0oCAAAAQB1Sf09g9OjRuhcBnIokAAAAAPA3hgEAAAAEB5IAAAAAEIz8KAk45rMXAAAbVHsAgc4xdcyPkoBjvo8JAGCDag8g0DmmjpEEAAA+RbUHEOgcU8dIAgAAn6LaAwh0jqljJAEAgE9R7QEEOsfUMT9KAo757AUAwAbVHkCgc0wd86MkAACAjfLy8hUrVjzxxBPJyclTp0794osv9D08c/78+dGjR8fGxg4YMEC/zydKSkrOnTunb60h995779KlS/Wt1VDjJ/SBQBwzUCdIAgCAAHD27Nlbb721RYsWkgTmzJkzfvx4WV+5cqW+nwcyMzN79Ohx4MCBr776Sr/PJ5KSkhYuXKhvrSEZGRl///vf9a3VUOMn9IFAHDNQJ0gCAIAA8Oijj3bs2PHEiRNaS2lp6a5du9T6pUuXtm3btn379suXL2sdvvzyy/Pnz585c2bdunWHDx9WjTL7f+SRRx588MEjR458/fXXqrGsrGzLli0bN250/1W9Olyusnbt2pMnT6rN06dP5+bmHj16VPXJz8+Xoy5evKgdJQ4dOiR9du/eXV5e7t6unDp1KiEhYfbs2TIAOa1q9GQAWov9GKSn9HE/g+4RUIyDlDMc+SF1TvcTusweapuruCxuTaewsDAnJ2fr1q3u/3xWBxo7G1sqHbPLdthWlwachyQAAPB333zzTVhY2IIFC/Q7KmzevLldu3bdunWLj4/v1KnTzp07Vbu0SH6Qll69ejVs2HDevHnSmJKS0qJCUlJSVlaWtOzdu7dLly6xsbG33HKLtH/00Ufa4aNGjYqKiurevfuKFStkMzk5Wc7Ws2dPGczKlStlU+b00dHR8lObd8ohHTp06N+/f/v27Xv06CHzftWumTx5cuPGjWWvDEA6uzwegGqpdAxys2+++aZ2BuMj4LIY5Pr16+O/FxMTExISsmbNGt0JTR9qq6u4rG9NIznk/vvvl3u8/fbbExMTtfdrmR5o7GxsUYdXOmaX9bBNLw04lR8lAcd89gIAYMOLap+XlycTU20O566srCwuLu7pp59Wm2PHjpV589WrV10VUz2ZHZ49e1bWly9f3rRpU/X773Hjxo0ZM0b1l569e/dOTU1Vm6tWrWrVqpWaUsvhMh3UpvKyKZNmySSy/uKLLzZq1Gj27Nmuil+ld+7cWUspR44cUStyrcGDB0+aNEltunN/d5DnA1AtlY5BlwRMH4FKBylRoW/fvuo1Ae2EVg+11VVsbk2zY8eOJk2aaI3qVRqrA42djS1qpdIxuyweHKtLq01A40Ud809+lAQc831MAAAbXlT73NxcSQLFxcX6HRW/wZVd2ttsioqKtJ4y1Zs7d65qLy0tlXb1jhr3JHDgwAFpX7du3bbvXXvttZs2bVKHv/zyy6qb2szMzFTrMp769etrb8h56KGHnnnmGbUuU8k1a9bIdadOnXrPPfcMHDhQtbtzTwKeD0C1VDoGXRIwfQTsBymNkiu0D1FoJ7R6qK2uYnNrGskkYWFhGRkZhYWFWqPVgcbOxhal0jG7LB4cq0t/f2Lg37yoY/6JJAAA8Ckvqr3M82R+9tlnn+l3VEyIQ0NDtc1vv/1Weubl5bkqpnqLFi1yb9+3b5/rh0lA5nwynx74Qxs2bNAdrtvcuHFjkyZNtF2jR48eP368Wr/77rtvuummKVOmyJR9xIgRMiXVumnck4DnA9C1WI1BlwRMHwGbQb7zzjvNmzcvKCjQWrQTWj3UVlexuTV3n3zyyR133NG4ceOOHTsuW7bM/kBjZ2OLy4MxuyweHJtLA+68qGP+iSQAAPAp76p9586dtem7u/3798sc7tixY2ozPz9f2zSd6rl+mAQOHTqkfhmsNt15kQSKiopkHqnecCJSU1NNk0DPnj21dxN5PgBdi9UYKk0CNoNcv379j3/8Y5kNq01FO6HVQ216FZftrRldunRJYkmDBg1kYJUe6N7ZtKXSMbssHpxKLw0o3tUxP0QSAAD4lHfV/r333pN53syZM9WbtmXCJ+dZunTp1atXk5KSZGYvK2VlZcOGDevXr586xHSq5/phEhD9+/cfMmSIevO9nCQnJ0fOoztct2k1Cz98+LBcRX2jkVyrVatWpklg0KBBEyZM0L60x8MB6FqsxlBpErAapEyar7/+et0VXW4ntHqoTa+iNq1uTSMzb+31h88///yaa65RX9djeqCx8+7du00Pr3TMLuthm15adQM03tUxP+RHScAxn70AANjwutqvXLmyS5cu9erVa926dVhY2F133VVUVCTte/bsSUhIaNmyZfPmzWXaJzNa1d9qqqdLAiUlJXKq8PDwrl27NmvWLDExUX3XpBdJQEycOLFRo0ZxcXGdO3dOSUkxTQLyCMTGxsot9O3b1+XxAHQtVmOoNAm4LAY5Z84ceWyvdZObm6s7oelDbXUVl/WtaeShiIiIaNOmTXx8vKxkZ2fbHGjsbGxRh1c6Zpf1sE0vrboBGq/rmL/xoyQAAICr4uObixcvdv/TAe6OHj26d+/eCxcu6NplAnf8+HFdo+fOnTuXn59/+vRp/Y6qO3nyZEFBQVV/kVyDA/CEd4NUqvpQ29+ajOHgwYMyGJmO63YZDzR2NraYqtkxA45BEgAA+Iu8vLyHHnooLi6Oz2gCgA+QBAAAday0tDQzMzMhISEyMrJ9+/bEAADwDZIAAKDO5OXlDR8+vG3btjfccIP87Nq1KzEAAHzGj5KAYz57AQCwIdVeexEgOjq6dYX27dsTAwAECsfMWv0oCTjm+5gAADbGjRvXqVMnFQAAIBA5ZtZKEgAA+JRU+9LS0ldffbVbt27aawKywmsCAAKFY2atJAEAgE+5V/u8vLwRI0bwOQEAgcUxs1aSAADAp4zVXnuJIDIyMjo6mjAAwM8Z61iA8qMk4JjPXgAAbNhU+7y8vJEjR/L3BAD4OZs6Flj8KAkAAOCq7G8MAwBqCkkAAAAACEYkAQAAACAYkQQAAACAYORHScAxn70AANig2gMIdI6pY36UBBzzfUwAABtUewCBzjF1jCQAAPApqj2AQOeYOkYSAAD4FNUeQKBzTB0jCQAAfIpqDyDQOaaO+VEScMxnLwAANqj2AAKdY+qYHyUBry1ZsuTTTz/Vt9aykpKSc+fO6Vsrc/78+dGjR8fGxg4YMMB9Xd/Pje5C3l1XU83DAQAA4BhOSAIDBw4cP368vrWWJSUlLVy4UN9amczMzB49ehw4cOCrr75yX9f3c6O7kHfX1VTzcAAAADiGk5PApUuXtm3btn379suXL7u3nz17dv369TIFLy8vP3LkiPy06X/8+PGLFy+q9bKyMul/9erVU6dOJSQkzJ49WzZPnjypdXYnnbds2bJx40btd/Ay43/kkUcefPBBOergwYPa+tdff211iO5CxuuaDk9tHjp0KDc3d/fu3doNGg93Wdy1jpyhsLBQziYHao2mB3755Zfnz58/c+bMunXrDh8+rLUbyQlzcnK2bt2qHW5zL6YDMG00PoaK8XJWjab3BQAA4DyOTQKbN29u165dt27d4uPjO3XqtHPnTtW+du3aiIiInj17xsbGjhkzJiQk5F//+pdN/xtuuGH16tVqXWac0r+0tHTy5MmNGzdu3759UlLSqFGj1F53e/fu7dKli1zilltuadGixUcffSSNKSkpLSrIUf3799fWs7KyrA7RXch4XdPhybrs7dChg1xFOvfo0UMygPFsLuu7dldQUJCYmBgdHX3bbbe1bt36vffec1kfKC2PPvqotPTq1athw4bz5s37wbkqyAz+/vvvj4qKuv322+XM2pujrO7FdACmjaaPoenlTBtd1vcFAADgPH6UBLz+7IUxCZSVlcXFxT399NNqc+zYsd27d7969eqVK1dkfvzKK69Io2yOHDlSJQGr/i7r6anN22zkwN69e6empqrNVatWtWrV6vz587I+btw4iR+q3X3d5hD7dwdZDU/7NblMeQcPHjxp0iS16X64zV1rZFNS0+jRo9ULC3LImTNnbA6UObRMrM+ePSvry5cvb9q0qfaKhGbHjh1NmjRRdye0l0RM78V0AFaNpo+h6eVMG23uC0AN8rraA4CfcEwd86Mk4PX3MRmTwN69e2Ueqb0BpqioSDaLi4u/+OKLevXqXbhwQbVv3rxZJQGr/i6L6anLMCN3d+DAAem2bt26bd+79tprN23a5LJOAjaHeJcEZP66Zs2auXPnTp069Z577pGHSPVxP9zmrjX79++XxpKSEvdGmwMlCchFVbuMRNqPHj2qHajIOMPCwjIyMgoLC93bTe/FdACmjVaPoenlTBtt7gtADfK62gOAn3BMHXNmEsjNzQ0NDdU2v/32W5nS5eXlyTQxPDxcaz948GBIRRKw6u+ymJ66DDNyd3KV+vXrD/yhDRs2uKyTgM0h3iWBu++++6abbpoyZUpmZuaIESN69eql+rgfbnPXGhmYex/F5kBJAosWLXJv37dvn9ZT88knn9xxxx2NGzfu2LHjsmXLVKPpvZgOwKrR6jE0vZyx0ea+ANQgr6s9APgJx9QxZyYB9TvjY8eOqc38/Hy1eejQoRC33yXLXFAlAav+sh4TE/P++++r9i1btmhT7Z49ey5YsEC166irGH8X7rJOAjaH6C6k2zQdXlFRkcyJ1Vt0RGpqqpYE3A+3uWuNGpj8dG+0OdDDJKBcunRJgkqDBg3UUE3vxXQANo2mj6Giu5yx0ea+ANQgr6s9APgJx9QxhyQBmVL/y82VK1eSkpKk8erVq2VlZcOGDevXr5/qfNtttw0dOvTUqVMycezbt29IRRKQblb977vvvuTkZFfFlFEOVNNT2Rw0aNCECROMb4JX+vfvP2TIkG+++cZV8UadnJwcOa3LOgnYHKK7kG7TdHiHDx+WlV27dkm7TMRbtWqlJQH3w23u2t0vfvGLwYMHq7dUyXRZcpTNgZ4kAXnkCwoK1Prnn39+zTXXqO/5Mb0Xl9kArBpNH0PTy5k22twXgBrkdbUHAD/hmDrmR0mg0s9eyLxw8eLFJ06c0LVLEgj5IZkE79mzJyEhoWXLls2bN5fp3f79+1Xn48eP33nnneHh4TExMW+88Ua9evVkwirtVv137NgRGRkZFRXVunXr6dOna9NTGW1sbGxYWJjEie8H8v/JxPSuu+6Sq3Tt2rVZs2aJiYnqKyltkoDVIboL6Tathjdx4sRGjRrFxcV17tw5JSVFSwK6w63u2l1xcbHEJ/WIRUREqD/iZnWgJ0lAxiDnadOmTXx8vKxkZ2erdqt7MR2AaaPpY2h6OdNGl/V9AahBlVZ7APBzjqljfpQEbOTl5T3++OMyvVNv+/acTA1l6q9v/d6yZcvatm3r3mLa/8qVK4WFhe5vKfHQuXPn8vPzT58+rd9hzYtDrIZ38uTJgoIC9cKCPdO71pFJ+d69e7Uv21E8OdCUjOrgwYMyPBXDNFb34rIYgGmj8TE0vZxpo+L1fQEAAAQQv04CMs974403+vTpExUV1aZNm7Vr1+p7VN2qVateeeWVDz74YO7cuS1atMjMzNT3AAAAAIKAnyYB9SJAhw4dEhMTIyMj27ZtWyMxwFXx9o+UlJT777//D3/4g/b5VAAAACDY+FcS0F4EiI+Pj4mJaV2hBmMAAAAAAMWPksC8efO6dOkiU//IyEiVAQAAzuOYT9oBCFqOqWN+lARmzZpVWlqanZ2dmJjYoUMH7TlD1qv6QWEAgN9yzLfvAQhajqlj/pUEtPW8vLyHH364XQXCAAA4iWOeQQEELcfUMT9NAor2EoH60DBhAAAcwFjtASCwOKaO+XUS0KiXCLz4ewIAAH9jU+0BICA4po75URKo9LMXVn9jGAAQQCqt9gDg5xxTx/woCQAAAADwGZIAAAAAEIxIAgAAAEAwIgkAAAAAwciPkoBjPnsBALBBtQcQ6BxTx/woCTjm+5gAADao9gACnWPqGEkAAOBTVHsAgc4xdYwkAADwKao9gEDnmDpGEgAA+BTVHkCgc0wd86Mk4JjPXgAAbFDtAQQ6x9QxP0oCAAAAAHyGJAAA+LclS5a+8MK0jIyXAn2ZPz/78uXL+tsD4ETyn13+yxvrgPOW2qhsJAEAwHfWrFn71lvLiovPOGD55z8LnnzyqUuXLulvEoCzXLx4Sf6zy395Yx1w3iK3OWHC0zVb2UgCAIDvpKVNO3y41PjcE6CLPGVmZb2mv0kAzjJvXnaQxAC1yM1mZ9dkZatuEsjPzz906JB7y6lTpzZv3nz16lX3RgCAn5MkYHzWCehl+vSZ+psE4CzTps00/t939jJjxkv6R6EaqpsEevXqNXr0aPeWRYsWhYSEfPvtt7L++OOPz5xZ3UJcIycBANhzXhLIyKjJ50sAfkgCv/H/vrOXQEoCd9555/jx4933eqFGTgIAsEcSABBwSALVVItJICsrKyoqKiYmZliFY8eOqQ4ffvihTO4TExOHDBmyZcsW1Tht2rQlS5a8/vrrN99886233rpgwQLVXqWTAAC8RhIAEHBIAtVUi0lg8+bNSUlJMl//7wpnz56VvTLFDw8Pnzlz5po1a9LT0xs1arRjxw5p/+Uvf9m2bdsHHnhg1apVGRkZ9evXlw7SXqWTAAC8RhIAEHBIAtVUi0nAZXhjz5UrV1q0aJGZmam1jBo1avjw4a6KJCAzfu1zxgMHDhw3bpxa9/wkAACvkQQABBySQDX5NAns2rVLdo0dOzY9PT0tLS01NXXAgAEJCQmuiiTg3vOxxx4bPHiwWvf8JAAAr5EEAAQckkA1VTcJ/OpXvxo2bJh7y/z588PCwsrLy12GSXxeXp5M4p966qkZbrKyslwVSeCZZ57Reo4bN27QoEFq3fOTAAC8ZpME9u07sXTp+3/60+tvvbVs48YvtPb09Blz5rxm7O8nC0kAcDybJLBhw84PP1wry8cfr5fCVRt/L+XZZ9Pnz19gbK/Vxb+SwJgxY+Lj491bZBIfGxur1mU2/8QTT2i7Tp06Vb9+/eXLl2stGpsk4PlJAABes0oCK1d+2qpV6+bNW/To0bt9+45SgSdNmqJ23XPP/Y8+Os54iLY8/PDvtc6+X0gCgOPZJIHf/nZ4aGhoRMR1117bTApX06Y/HjHid9u27TP21C2eF66+fX/+2GMpxvZaXfwrCWzevLlevXovvfTSxYsXy8vLP/744/Dw8NmzZ6u9f/zjH/v06XPixIlz586pzwCMHDmyY8eO2gd89+zZs3r1apdtEvD8JAAAr1klgY4dO995570HDvxLbW7atPujj/5u7Ga69O8/8JFHxhrbfbOQBADHs08CvXv3Vev793+5ePGKmJjYNm3a7dhxwNjZffG8cJEEvpOdnR0RESFh60c/+lGDBg0ee+yxy5cvq11FRUV9+/Zt3LhxSEhIfn6+tHzzzTfJyckS0a677romTZrIz9de++5vJtskAc9PAgDwmmkS2LfvhNTeuXPfMO6S5fnnp82aNV+tr1698d57h8THJ3Tv3nPo0Ae3bCmYPv0/WrVqLUHi7rsHy7J5817V8623lskTbXz8TyVg/O//rlONTz31/Kuv/nnatFlyeM+evRcuXHr4cGl6+ozExKRbbvnF0qUfaBd9992P5Qle2pOSev3hD//viy8OGwemFpIA4HgeJgG1SF2S+eTjjz9ZbF1JjIXLqmfxv5PA+ClTZt50Uw/Zq9VDm/MbS6V2iGltNC5+lwRcFd/nI3P0nTt3yhxdv8/M2bNnpfOhQ4fKysr0+zxWIycBACimSUCWtm2j5cls1ao1Bw+e0u0aMOA3v/vdo8UVv29r3rzFyJGjZcr+1lv/NX780+vWbfnww7U//WmiPLG99trbsuzZc1R6yjNlkyZNJk2a8s47q5588tmGDRt+8snnxRVPqJGRUfLEuWDB0t///vHQ0NBhwx4aPvxh2ZTTypP3tm371UXT0jIkgfz1ryv//OclPXr0/tnPbjaOWS0kAcDxqpQEZJHJvUy1i60ribFwWfUsrihcLVq0+s1vBv3lL8ulrIWGNsjMfFPtMj3KtFSq/la10bj4YxIAAAQ6qyTw3nuro6M7hISEyHT85z//pfY8V+yWBD77bKt0+Mc/8nXH6l5kP3Dgq+bNr3/hhZe0liFDRgwa9NviiidUyRuq8fDhUkkFvXr1UZuSQJo1i5g37z91J5dl+/Yiue7atf8w7iomCQBBoKpJYNy4CRER1+kadZXE5t1Bup5SuNq1a3/o0Gm1OXbsHzt1irE5yqpU2tRG40ISAADUPKskUFwxNf/gg5z09BnytCdPY2PGPKHatSQgT2Ndu8a1adNOngiXLHlP+1CB7gl19eqNcvhDDz3y5JPPpqQ8M37807fe2j8uLr644gnVvWdS0s/c330bG3tjWlqGWt+2bb88l/fp008aY2Ji69Wr9/bb/631dF9IAoDjVTUJSI26/vqWxbaVRFe4bHpK4Ro+/GGt51//ulL2FhaesDrKqlTa1Ebj4rQksG/fvj/9KVP+IadNmyk/58yZW1hYqO8EAKhlNknAfUlOHhsa2kCez4rdkoAs+fnHZsyYM3DgneHhTdu1a79+/fZiwxPq++//reIPwvzx2WfTtWX69P8oNnzwrkeP3vKMqG3eeONPnntuqlrv1q17//4DFi9e8emnG3Jy8mQwb775V62n+0ISAByvqkng5z//ZVJSr2LbSqIrXDY9pXBJSdR6rlz5iZQ49Ylkq6NMS6VNbTQuzkkCJSUlaWlTsrIW7NlzRLs9WZ8//z+ffz796NFj+gMAALXGwyTw0kuZ9erVkyez4h8mAW2RXZ06xchTmuqQnDxG27Vz58H69eu/9tpfjKf1MAls2VIgz5e5uf9U7bIimyQBIGhVKQn8z//kXnPNNenpM+wriXvhsu8phUsW7fwzZ/6padMfV3qUWtxLpU1tNC4OSQLbtm1//vkpRUUnjXcoi7RPmpS+ZctW/WEAgNphmgSkGt9339CVKz/dt++717v/9rdNMTGx3bv3VHu1JLBx465Fi95Vb5aVp7To6A7q27iTk8cmJfXaurVQnvPUn/UZPPiBdu3aa5+Ey8nJW7LkvWKPk0BBwfHQ0AYZGbOLK35zdOut/SWWkASAoGWfBBITkz77bKtMxFes+HjixMnh4U1vvvmW/fu/tK8k7oVr794Sm55SuCRaqM1Nm3ZL6VN/YsXq/Falsti6NhoXJySBkpKS1NQXjPemWyQM8MoAAPiGaRI4cOCr/v0HNGzYsH79+o0aNQoJCenX77YNG3aqvVoS+PTTDddf37JBg7CoqBvCwn40cOCd8kQo7evXb5c5vTpQfcZOnlaHDn0wNDS0WbOIxo0by88ZM+YUe5wEZHnxxZflQi1atGrSpElq6nQ5CUkACFr2SSCkgkzWr7uueZ8+/WRqrt7ZWGxbSXSFy6anFK4HHhj5k590k/NLkZRLaO9zMT3KqlQWW9dG4+KEJJCWZvlqgPsifSZPTtMfDACoBaZJQKvG8tT4t79tcn8zp3HJy9sjz3M7dx407tIte/YclZ4bN+4yfjOpJ8vu3cWrV2+0H0wxSQAIAjZJoNLFw0riSc9167aod/x7cpRNqfSkNgZ8EigsLHzjjbeNN2a6ZGUtzM8v0J8CAFDTbJJAgC4kAcDxqpMEAnQJ+CQwf/58YzyyWqTnnDmv6k8BAKhpJAEAAYckUE11kARmznzZeFc2y7RpM/SnAADUNJIAgIBDEqimOkgCcgPGu7JZpk4lCQBArSMJAAg4JIFqqoMkUPXXBGbqTwEAqGkkAQABhyRQTXWQBObPn5+fX4XPCcydy+cEAKDWkQQABBySQDXVQRIoLCz88589+iNqsmRnL9y7l+8OAoBal5Y23ViEA3ohCQCO98ILTvsVRqXLzJkv6x+FaqiDJCDS01/w8O8JPPccf08AAHwhI+OV3buLjaU4QJe33lq2fPkK/U0CcJYlS96R/+zGCuDU5e23/2vFipqsbHWTBEpKStLSXjTenm557rn0Y8dK9AcDAGpBaemZjIyXp0zJSE+fHvjLtDVrcvV3CMCJ1qxZm5Y2zVAEHLlMy8mp4cpWN0lAbN++XcKA1SsDFa8GTNm6dZv+MAAAAAA1oc6SgKvilYEpU158/fWF7n9oTNazsxekpU2RvfoDAAAAANSQukwCyr59+zIzX50x46WRI38nP+fOzZQWfScAAAAANaruk4Bm1qxZ+iYAAAAAtYMkAAAAAAQjkgAAAAAQjEgCAAAAQDAiCQAAAADBiCQAAAAABCOSAAAAABCMfJEEli1bNssDgwcP1jeZkbPpLwAAAACginyRBDw0i9cEAAAAAF8hCQAAAADBiCQAAAAABCOSAAAAABCMSAIAAABAMCIJAAAAAMGIJAAAAAAEI5IAAAAAEIxIAgAAAEAwIgkAAAAAwYgkAAAAAAQjkgAAAAAQjEgCAAAAQDAiCQAAAADBiCQAAAAABCOSAAAAABCMSAIAAABAMCIJAAAAAMHIX5LAhQsXHnjgAfmp3wEAAACgFvhFEigvL09NTd29e7f8lHX9bgAAAAA1zS+SwKxZswoLC2VFfvIeIQAAAMAH6j4JvP32259//rm2KevS4rYfAAAAQM2r4yTw8ccfv/vuu7pGaZF2XSMAAACAGlSXSWD79u1ZWVn61grSLnv1rQAAAABqSJ0lgSNHjkydOlXf6kb2Sh99KwAAAICaUDdJ4Ouvv548efLly5f1O9zIXukjPfU7AAAAAFRbHSQBz6f4ngQGAAAAAF6ogyRQpbf9VPomIgAAAABe8HUS8OKjwDYfLAYAAADgHZ8mAa+/HtT0y0YBAAAAeM13SaCafzJM9wfIAAAAAFSHj5JAYWHhrFmz9K1VJGeQ8+hbAQAAAFSdL5LAyZMnU1NTy8vL9TuqSM4g55Gz6XcAAAAAqCJfJIGFCxdeuHBB3+oVOY+cTd8KAAAAoIp8kQQAAAAA+BuSAAAAABCMSAIAAABAMCIJAAAAAMGIJAAAAAAEo/8D8CSANMMddB4AAAAASUVORK5CYII=;" vertex="1" parent="1">
          <mxGeometry x="150" y="-1160" width="1367" height="1835.53" as="geometry" />
        </mxCell>
      </root>
    </mxGraphModel>
  </diagram>
</mxfile>
